ISO-10303-21;
HEADER;
/* Generated by software containing ST-Developer
 * from STEP Tools, Inc. (www.steptools.com) 
 */
/* OPTION: using custom renumber hook */

FILE_DESCRIPTION(
/* description */ ('STEP AP242 Edition 2',
'CAx-IF Rec.Pracs.---Representation and Presentation of Product Manufa
cturing Information (PMI)---4.0---2014-10-13',
'CAx-IF Rec.Pracs.---3D Tessellated Geometry---0.4---2014-09-14','2;1',
'CAx-IF Rec.Pracs.---User Defined Attributes---1.5---2016-08-15'),
/* implementation_level */ '2;1');

FILE_NAME(
/* name */ 'Syringe 20mL - Seal - Part 1',
/* time_stamp */ '2026-04-18T18:53:46Z',
/* author */ (''),
/* organization */ (''),
/* preprocessor_version */ 'ST-DEVELOPER v20',
/* originating_system */ 'ONSHAPE BY PTC INC, 1.213',
/* authorisation */ '  ');

FILE_SCHEMA (('AP242_MANAGED_MODEL_BASED_3D_ENGINEERING_MIM_LF { 1 0 10303 442 3 1 4 }'));
ENDSEC;

DATA;
#10=SHAPE_REPRESENTATION_RELATIONSHIP('','',#237,#11);
#11=ADVANCED_BREP_SHAPE_REPRESENTATION('',(#235),#419);
#12=TOROIDAL_SURFACE('',#272,0.009271,0.000127);
#13=TOROIDAL_SURFACE('',#273,0.009271,0.000127);
#14=TOROIDAL_SURFACE('',#274,0.010033,0.000127);
#15=TOROIDAL_SURFACE('',#275,0.010033,0.000127);
#16=TOROIDAL_SURFACE('',#276,0.010033,0.000127);
#17=TOROIDAL_SURFACE('',#277,0.010033,0.000127);
#18=PLANE('',#244);
#19=PLANE('',#250);
#20=PLANE('',#256);
#21=PLANE('',#262);
#22=PLANE('',#266);
#23=PLANE('',#270);
#24=CYLINDRICAL_SURFACE('',#241,0.01016);
#25=CYLINDRICAL_SURFACE('',#247,0.009144);
#26=CYLINDRICAL_SURFACE('',#253,0.01016);
#27=CYLINDRICAL_SURFACE('',#259,0.007493);
#28=CYLINDRICAL_SURFACE('',#264,0.0078105);
#29=VERTEX_LOOP('',#88);
#30=ORIENTED_EDGE('',*,*,#68,.T.);
#31=ORIENTED_EDGE('',*,*,#69,.T.);
#32=ORIENTED_EDGE('',*,*,#70,.T.);
#33=ORIENTED_EDGE('',*,*,#71,.T.);
#34=ORIENTED_EDGE('',*,*,#72,.T.);
#35=ORIENTED_EDGE('',*,*,#73,.T.);
#36=ORIENTED_EDGE('',*,*,#74,.T.);
#37=ORIENTED_EDGE('',*,*,#75,.T.);
#38=ORIENTED_EDGE('',*,*,#76,.T.);
#39=ORIENTED_EDGE('',*,*,#77,.T.);
#40=ORIENTED_EDGE('',*,*,#78,.T.);
#41=ORIENTED_EDGE('',*,*,#79,.T.);
#42=ORIENTED_EDGE('',*,*,#80,.T.);
#43=ORIENTED_EDGE('',*,*,#81,.T.);
#44=ORIENTED_EDGE('',*,*,#82,.T.);
#45=ORIENTED_EDGE('',*,*,#83,.T.);
#46=ORIENTED_EDGE('',*,*,#82,.F.);
#47=ORIENTED_EDGE('',*,*,#84,.T.);
#48=ORIENTED_EDGE('',*,*,#83,.F.);
#49=ORIENTED_EDGE('',*,*,#85,.T.);
#50=ORIENTED_EDGE('',*,*,#84,.F.);
#51=ORIENTED_EDGE('',*,*,#86,.T.);
#52=ORIENTED_EDGE('',*,*,#85,.F.);
#53=ORIENTED_EDGE('',*,*,#86,.F.);
#54=ORIENTED_EDGE('',*,*,#81,.F.);
#55=ORIENTED_EDGE('',*,*,#80,.F.);
#56=ORIENTED_EDGE('',*,*,#73,.F.);
#57=ORIENTED_EDGE('',*,*,#71,.F.);
#58=ORIENTED_EDGE('',*,*,#75,.F.);
#59=ORIENTED_EDGE('',*,*,#74,.F.);
#60=ORIENTED_EDGE('',*,*,#72,.F.);
#61=ORIENTED_EDGE('',*,*,#69,.F.);
#62=ORIENTED_EDGE('',*,*,#77,.F.);
#63=ORIENTED_EDGE('',*,*,#76,.F.);
#64=ORIENTED_EDGE('',*,*,#79,.F.);
#65=ORIENTED_EDGE('',*,*,#78,.F.);
#66=ORIENTED_EDGE('',*,*,#70,.F.);
#67=ORIENTED_EDGE('',*,*,#68,.F.);
#68=EDGE_CURVE('',#87,#87,#107,.T.);
#69=EDGE_CURVE('',#89,#89,#108,.F.);
#70=EDGE_CURVE('',#90,#90,#109,.T.);
#71=EDGE_CURVE('',#91,#91,#110,.F.);
#72=EDGE_CURVE('',#92,#92,#111,.T.);
#73=EDGE_CURVE('',#93,#93,#112,.T.);
#74=EDGE_CURVE('',#94,#94,#113,.T.);
#75=EDGE_CURVE('',#95,#95,#114,.F.);
#76=EDGE_CURVE('',#96,#96,#115,.T.);
#77=EDGE_CURVE('',#97,#97,#116,.F.);
#78=EDGE_CURVE('',#98,#98,#117,.F.);
#79=EDGE_CURVE('',#99,#99,#118,.T.);
#80=EDGE_CURVE('',#100,#100,#119,.F.);
#81=EDGE_CURVE('',#101,#101,#120,.T.);
#82=EDGE_CURVE('',#102,#102,#121,.T.);
#83=EDGE_CURVE('',#103,#103,#122,.T.);
#84=EDGE_CURVE('',#104,#104,#123,.T.);
#85=EDGE_CURVE('',#105,#105,#124,.T.);
#86=EDGE_CURVE('',#106,#106,#125,.T.);
#87=VERTEX_POINT('',#361);
#88=VERTEX_POINT('',#362);
#89=VERTEX_POINT('',#365);
#90=VERTEX_POINT('',#367);
#91=VERTEX_POINT('',#370);
#92=VERTEX_POINT('',#372);
#93=VERTEX_POINT('',#375);
#94=VERTEX_POINT('',#377);
#95=VERTEX_POINT('',#380);
#96=VERTEX_POINT('',#382);
#97=VERTEX_POINT('',#385);
#98=VERTEX_POINT('',#387);
#99=VERTEX_POINT('',#390);
#100=VERTEX_POINT('',#392);
#101=VERTEX_POINT('',#395);
#102=VERTEX_POINT('',#397);
#103=VERTEX_POINT('',#400);
#104=VERTEX_POINT('',#403);
#105=VERTEX_POINT('',#406);
#106=VERTEX_POINT('',#409);
#107=CIRCLE('',#240,0.0100836382161497);
#108=CIRCLE('',#242,0.01016);
#109=CIRCLE('',#243,0.01016);
#110=CIRCLE('',#245,0.009271);
#111=CIRCLE('',#246,0.010033);
#112=CIRCLE('',#248,0.009144);
#113=CIRCLE('',#249,0.009144);
#114=CIRCLE('',#251,0.009271);
#115=CIRCLE('',#252,0.010033);
#116=CIRCLE('',#254,0.01016);
#117=CIRCLE('',#255,0.01016);
#118=CIRCLE('',#257,0.010033);
#119=CIRCLE('',#258,0.008763);
#120=CIRCLE('',#260,0.007493);
#121=CIRCLE('',#261,0.007493);
#122=CIRCLE('',#263,0.0078105);
#123=CIRCLE('',#265,0.0078105);
#124=CIRCLE('',#267,0.007493);
#125=CIRCLE('',#269,0.00630515955616929);
#126=EDGE_LOOP('',(#30));
#127=EDGE_LOOP('',(#31));
#128=EDGE_LOOP('',(#32));
#129=EDGE_LOOP('',(#33));
#130=EDGE_LOOP('',(#34));
#131=EDGE_LOOP('',(#35));
#132=EDGE_LOOP('',(#36));
#133=EDGE_LOOP('',(#37));
#134=EDGE_LOOP('',(#38));
#135=EDGE_LOOP('',(#39));
#136=EDGE_LOOP('',(#40));
#137=EDGE_LOOP('',(#41));
#138=EDGE_LOOP('',(#42));
#139=EDGE_LOOP('',(#43));
#140=EDGE_LOOP('',(#44));
#141=EDGE_LOOP('',(#45));
#142=EDGE_LOOP('',(#46));
#143=EDGE_LOOP('',(#47));
#144=EDGE_LOOP('',(#48));
#145=EDGE_LOOP('',(#49));
#146=EDGE_LOOP('',(#50));
#147=EDGE_LOOP('',(#51));
#148=EDGE_LOOP('',(#52));
#149=EDGE_LOOP('',(#53));
#150=EDGE_LOOP('',(#54));
#151=EDGE_LOOP('',(#55));
#152=EDGE_LOOP('',(#56));
#153=EDGE_LOOP('',(#57));
#154=EDGE_LOOP('',(#58));
#155=EDGE_LOOP('',(#59));
#156=EDGE_LOOP('',(#60));
#157=EDGE_LOOP('',(#61));
#158=EDGE_LOOP('',(#62));
#159=EDGE_LOOP('',(#63));
#160=EDGE_LOOP('',(#64));
#161=EDGE_LOOP('',(#65));
#162=EDGE_LOOP('',(#66));
#163=EDGE_LOOP('',(#67));
#164=FACE_BOUND('',#126,.T.);
#165=FACE_BOUND('',#29,.T.);
#166=FACE_BOUND('',#127,.T.);
#167=FACE_BOUND('',#128,.T.);
#168=FACE_BOUND('',#129,.T.);
#169=FACE_BOUND('',#130,.T.);
#170=FACE_BOUND('',#131,.T.);
#171=FACE_BOUND('',#132,.T.);
#172=FACE_BOUND('',#133,.T.);
#173=FACE_BOUND('',#134,.T.);
#174=FACE_BOUND('',#135,.T.);
#175=FACE_BOUND('',#136,.T.);
#176=FACE_BOUND('',#137,.T.);
#177=FACE_BOUND('',#138,.T.);
#178=FACE_BOUND('',#139,.T.);
#179=FACE_BOUND('',#140,.T.);
#180=FACE_BOUND('',#141,.T.);
#181=FACE_BOUND('',#142,.T.);
#182=FACE_BOUND('',#143,.T.);
#183=FACE_BOUND('',#144,.T.);
#184=FACE_BOUND('',#145,.T.);
#185=FACE_BOUND('',#146,.T.);
#186=FACE_BOUND('',#147,.T.);
#187=FACE_BOUND('',#148,.T.);
#188=FACE_BOUND('',#149,.T.);
#189=FACE_BOUND('',#150,.T.);
#190=FACE_BOUND('',#151,.T.);
#191=FACE_BOUND('',#152,.T.);
#192=FACE_BOUND('',#153,.T.);
#193=FACE_BOUND('',#154,.T.);
#194=FACE_BOUND('',#155,.T.);
#195=FACE_BOUND('',#156,.T.);
#196=FACE_BOUND('',#157,.T.);
#197=FACE_BOUND('',#158,.T.);
#198=FACE_BOUND('',#159,.T.);
#199=FACE_BOUND('',#160,.T.);
#200=FACE_BOUND('',#161,.T.);
#201=FACE_BOUND('',#162,.T.);
#202=FACE_BOUND('',#163,.T.);
#203=CONICAL_SURFACE('',#239,0.,1.16066898625341);
#204=CONICAL_SURFACE('',#268,0.007493,1.0471975511966);
#205=CONICAL_SURFACE('',#271,0.008763,0.785398163397448);
#206=ADVANCED_FACE('',(#164,#165),#203,.T.);
#207=ADVANCED_FACE('',(#166,#167),#24,.T.);
#208=ADVANCED_FACE('',(#168,#169),#18,.T.);
#209=ADVANCED_FACE('',(#170,#171),#25,.T.);
#210=ADVANCED_FACE('',(#172,#173),#19,.T.);
#211=ADVANCED_FACE('',(#174,#175),#26,.T.);
#212=ADVANCED_FACE('',(#176,#177),#20,.T.);
#213=ADVANCED_FACE('',(#178,#179),#27,.F.);
#214=ADVANCED_FACE('',(#180,#181),#21,.T.);
#215=ADVANCED_FACE('',(#182,#183),#28,.F.);
#216=ADVANCED_FACE('',(#184,#185),#22,.T.);
#217=ADVANCED_FACE('',(#186,#187),#204,.F.);
#218=ADVANCED_FACE('',(#188),#23,.T.);
#219=ADVANCED_FACE('',(#189,#190),#205,.F.);
#220=ADVANCED_FACE('',(#191,#192),#12,.F.);
#221=ADVANCED_FACE('',(#193,#194),#13,.F.);
#222=ADVANCED_FACE('',(#195,#196),#14,.T.);
#223=ADVANCED_FACE('',(#197,#198),#15,.T.);
#224=ADVANCED_FACE('',(#199,#200),#16,.T.);
#225=ADVANCED_FACE('',(#201,#202),#17,.T.);
#226=CLOSED_SHELL('',(#206,#207,#208,#209,#210,#211,#212,#213,#214,#215,
#216,#217,#218,#219,#220,#221,#222,#223,#224,#225));
#227=STYLED_ITEM('',(#228),#235);
#228=PRESENTATION_STYLE_ASSIGNMENT((#229));
#229=SURFACE_STYLE_USAGE(.BOTH.,#230);
#230=SURFACE_SIDE_STYLE('',(#231));
#231=SURFACE_STYLE_FILL_AREA(#232);
#232=FILL_AREA_STYLE('',(#233));
#233=FILL_AREA_STYLE_COLOUR('',#234);
#234=COLOUR_RGB('',0.301960784313725,0.301960784313725,0.301960784313725);
#235=MANIFOLD_SOLID_BREP('Part 1',#226);
#236=SHAPE_DEFINITION_REPRESENTATION(#424,#237);
#237=SHAPE_REPRESENTATION('Part 1',(#238),#419);
#238=AXIS2_PLACEMENT_3D('',#358,#278,#279);
#239=AXIS2_PLACEMENT_3D('',#359,#280,#281);
#240=AXIS2_PLACEMENT_3D('',#360,#282,#283);
#241=AXIS2_PLACEMENT_3D('',#363,#284,#285);
#242=AXIS2_PLACEMENT_3D('',#364,#286,#287);
#243=AXIS2_PLACEMENT_3D('',#366,#288,#289);
#244=AXIS2_PLACEMENT_3D('',#368,#290,#291);
#245=AXIS2_PLACEMENT_3D('',#369,#292,#293);
#246=AXIS2_PLACEMENT_3D('',#371,#294,#295);
#247=AXIS2_PLACEMENT_3D('',#373,#296,#297);
#248=AXIS2_PLACEMENT_3D('',#374,#298,#299);
#249=AXIS2_PLACEMENT_3D('',#376,#300,#301);
#250=AXIS2_PLACEMENT_3D('',#378,#302,#303);
#251=AXIS2_PLACEMENT_3D('',#379,#304,#305);
#252=AXIS2_PLACEMENT_3D('',#381,#306,#307);
#253=AXIS2_PLACEMENT_3D('',#383,#308,#309);
#254=AXIS2_PLACEMENT_3D('',#384,#310,#311);
#255=AXIS2_PLACEMENT_3D('',#386,#312,#313);
#256=AXIS2_PLACEMENT_3D('',#388,#314,#315);
#257=AXIS2_PLACEMENT_3D('',#389,#316,#317);
#258=AXIS2_PLACEMENT_3D('',#391,#318,#319);
#259=AXIS2_PLACEMENT_3D('',#393,#320,#321);
#260=AXIS2_PLACEMENT_3D('',#394,#322,#323);
#261=AXIS2_PLACEMENT_3D('',#396,#324,#325);
#262=AXIS2_PLACEMENT_3D('',#398,#326,#327);
#263=AXIS2_PLACEMENT_3D('',#399,#328,#329);
#264=AXIS2_PLACEMENT_3D('',#401,#330,#331);
#265=AXIS2_PLACEMENT_3D('',#402,#332,#333);
#266=AXIS2_PLACEMENT_3D('',#404,#334,#335);
#267=AXIS2_PLACEMENT_3D('',#405,#336,#337);
#268=AXIS2_PLACEMENT_3D('',#407,#338,#339);
#269=AXIS2_PLACEMENT_3D('',#408,#340,#341);
#270=AXIS2_PLACEMENT_3D('',#410,#342,#343);
#271=AXIS2_PLACEMENT_3D('',#411,#344,#345);
#272=AXIS2_PLACEMENT_3D('',#412,#346,#347);
#273=AXIS2_PLACEMENT_3D('',#413,#348,#349);
#274=AXIS2_PLACEMENT_3D('',#414,#350,#351);
#275=AXIS2_PLACEMENT_3D('',#415,#352,#353);
#276=AXIS2_PLACEMENT_3D('',#416,#354,#355);
#277=AXIS2_PLACEMENT_3D('',#417,#356,#357);
#278=DIRECTION('',(0.,0.,1.));
#279=DIRECTION('',(1.,0.,0.));
#280=DIRECTION('',(-3.49148336110938E-15,1.,0.));
#281=DIRECTION('',(-1.,-3.49148336110938E-15,0.));
#282=DIRECTION('',(3.49148336110938E-15,-1.,0.));
#283=DIRECTION('',(1.,3.49148336110938E-15,0.));
#284=DIRECTION('',(3.49148336110938E-15,-1.,0.));
#285=DIRECTION('',(1.,3.49148336110938E-15,0.));
#286=DIRECTION('',(-3.49148336110938E-15,1.,0.));
#287=DIRECTION('',(-1.,-3.49148336110938E-15,0.));
#288=DIRECTION('',(-3.49148336110938E-15,1.,0.));
#289=DIRECTION('',(-1.,-3.49148336110938E-15,0.));
#290=DIRECTION('',(-3.49148336110938E-15,1.,0.));
#291=DIRECTION('',(-1.,-3.49148336110938E-15,0.));
#292=DIRECTION('',(-3.49148336110938E-15,1.,0.));
#293=DIRECTION('',(-1.,-3.49148336110938E-15,0.));
#294=DIRECTION('',(-3.49148336110938E-15,1.,0.));
#295=DIRECTION('',(-1.,-3.49148336110938E-15,0.));
#296=DIRECTION('',(3.49148336110938E-15,-1.,0.));
#297=DIRECTION('',(1.,3.49148336110938E-15,0.));
#298=DIRECTION('',(-3.49148336110938E-15,1.,0.));
#299=DIRECTION('',(-1.,-3.49148336110938E-15,0.));
#300=DIRECTION('',(3.49148336110938E-15,-1.,0.));
#301=DIRECTION('',(1.,3.49148336110938E-15,0.));
#302=DIRECTION('',(3.49148336110938E-15,-1.,0.));
#303=DIRECTION('',(1.,3.49148336110938E-15,0.));
#304=DIRECTION('',(3.49148336110938E-15,-1.,0.));
#305=DIRECTION('',(1.,3.49148336110938E-15,0.));
#306=DIRECTION('',(3.49148336110938E-15,-1.,0.));
#307=DIRECTION('',(1.,3.49148336110938E-15,0.));
#308=DIRECTION('',(3.49148336110938E-15,-1.,0.));
#309=DIRECTION('',(1.,3.49148336110938E-15,0.));
#310=DIRECTION('',(3.49148336110938E-15,-1.,0.));
#311=DIRECTION('',(1.,3.49148336110938E-15,0.));
#312=DIRECTION('',(-3.49148336110938E-15,1.,0.));
#313=DIRECTION('',(-1.,-3.49148336110938E-15,0.));
#314=DIRECTION('',(-3.49148336110938E-15,1.,0.));
#315=DIRECTION('',(-1.,-3.49148336110938E-15,0.));
#316=DIRECTION('',(-3.49148336110938E-15,1.,0.));
#317=DIRECTION('',(-1.,-3.49148336110938E-15,0.));
#318=DIRECTION('',(-3.49148336110938E-15,1.,0.));
#319=DIRECTION('',(-1.,-3.49148336110938E-15,0.));
#320=DIRECTION('',(3.49148336110938E-15,-1.,0.));
#321=DIRECTION('',(1.,3.49148336110938E-15,0.));
#322=DIRECTION('',(-3.49148336110938E-15,1.,0.));
#323=DIRECTION('',(-1.,-3.49148336110938E-15,0.));
#324=DIRECTION('',(3.49148336110938E-15,-1.,0.));
#325=DIRECTION('',(1.,3.49148336110938E-15,0.));
#326=DIRECTION('',(3.49148336110938E-15,-1.,0.));
#327=DIRECTION('',(1.,3.49148336110938E-15,0.));
#328=DIRECTION('',(3.49148336110938E-15,-1.,0.));
#329=DIRECTION('',(1.,3.49148336110938E-15,0.));
#330=DIRECTION('',(3.49148336110938E-15,-1.,0.));
#331=DIRECTION('',(1.,3.49148336110938E-15,0.));
#332=DIRECTION('',(3.49148336110938E-15,-1.,0.));
#333=DIRECTION('',(1.,3.49148336110938E-15,0.));
#334=DIRECTION('',(-3.49148336110938E-15,1.,0.));
#335=DIRECTION('',(-1.,-3.49148336110938E-15,0.));
#336=DIRECTION('',(3.49148336110938E-15,-1.,0.));
#337=DIRECTION('',(1.,3.49148336110938E-15,0.));
#338=DIRECTION('',(-3.49148336110938E-15,1.,0.));
#339=DIRECTION('',(-1.,-3.49148336110938E-15,0.));
#340=DIRECTION('',(3.49148336110938E-15,-1.,0.));
#341=DIRECTION('',(1.,3.49148336110938E-15,0.));
#342=DIRECTION('',(-3.49148336110938E-15,1.,0.));
#343=DIRECTION('',(-1.,-3.49148336110938E-15,0.));
#344=DIRECTION('',(-3.49148336110938E-15,1.,0.));
#345=DIRECTION('',(-1.,-3.49148336110938E-15,0.));
#346=DIRECTION('',(-3.49148336110938E-15,1.,0.));
#347=DIRECTION('',(-1.,-3.49148336110938E-15,0.));
#348=DIRECTION('',(3.49148336110938E-15,-1.,0.));
#349=DIRECTION('',(1.,3.49148336110938E-15,0.));
#350=DIRECTION('',(-3.49148336110938E-15,1.,0.));
#351=DIRECTION('',(-1.,-3.49148336110938E-15,0.));
#352=DIRECTION('',(3.49148336110938E-15,-1.,0.));
#353=DIRECTION('',(1.,3.49148336110938E-15,0.));
#354=DIRECTION('',(-3.49148336110938E-15,1.,0.));
#355=DIRECTION('',(-1.,-3.49148336110938E-15,0.));
#356=DIRECTION('',(-3.49148336110938E-15,1.,0.));
#357=DIRECTION('',(-1.,-3.49148336110938E-15,0.));
#358=CARTESIAN_POINT('',(0.,0.,0.));
#359=CARTESIAN_POINT('',(0.,0.,0.));
#360=CARTESIAN_POINT('',(-1.53073282831013E-17,0.00438419052876068,0.));
#361=CARTESIAN_POINT('',(0.0100836382161497,0.00438419052876072,0.));
#362=CARTESIAN_POINT('',(0.,0.,0.));
#363=CARTESIAN_POINT('',(0.,0.,0.));
#364=CARTESIAN_POINT('',(-2.48314296642098E-17,0.007112,0.));
#365=CARTESIAN_POINT('',(-0.01016,0.00711199999999996,0.));
#366=CARTESIAN_POINT('',(-1.57139740080835E-17,0.00450065842590484,0.));
#367=CARTESIAN_POINT('',(-0.01016,0.0045006584259048,0.));
#368=CARTESIAN_POINT('',(0.009144,0.007239,0.));
#369=CARTESIAN_POINT('',(-2.52748480510707E-17,0.007239,0.));
#370=CARTESIAN_POINT('',(-0.00927100000000003,0.00723899999999997,0.));
#371=CARTESIAN_POINT('',(-2.52748480510707E-17,0.007239,0.));
#372=CARTESIAN_POINT('',(-0.010033,0.00723899999999997,0.));
#373=CARTESIAN_POINT('',(0.,0.,0.));
#374=CARTESIAN_POINT('',(-2.57182664379316E-17,0.007366,0.));
#375=CARTESIAN_POINT('',(-0.00914400000000003,0.00736599999999997,0.));
#376=CARTESIAN_POINT('',(-2.92656135328187E-17,0.008382,0.));
#377=CARTESIAN_POINT('',(0.00914399999999997,0.00838200000000003,0.));
#378=CARTESIAN_POINT('',(0.01016,0.008509,0.));
#379=CARTESIAN_POINT('',(-2.97090319196796E-17,0.008509,0.));
#380=CARTESIAN_POINT('',(0.00927099999999997,0.00850900000000003,0.));
#381=CARTESIAN_POINT('',(-2.97090319196796E-17,0.008509,0.));
#382=CARTESIAN_POINT('',(0.010033,0.00850900000000003,0.));
#383=CARTESIAN_POINT('',(0.,0.,0.));
#384=CARTESIAN_POINT('',(-3.01524503065405E-17,0.008636,0.));
#385=CARTESIAN_POINT('',(0.01016,0.00863600000000003,0.));
#386=CARTESIAN_POINT('',(-3.50300525620103E-17,0.010033,0.));
#387=CARTESIAN_POINT('',(-0.01016,0.010033,0.));
#388=CARTESIAN_POINT('',(0.01016,0.01016,0.));
#389=CARTESIAN_POINT('',(-3.54734709488712E-17,0.01016,0.));
#390=CARTESIAN_POINT('',(-0.010033,0.01016,0.));
#391=CARTESIAN_POINT('',(-3.54734709488712E-17,0.01016,0.));
#392=CARTESIAN_POINT('',(-0.00876300000000003,0.01016,0.));
#393=CARTESIAN_POINT('',(0.,0.,0.));
#394=CARTESIAN_POINT('',(-3.10392870802623E-17,0.00889,0.));
#395=CARTESIAN_POINT('',(-0.00749300000000003,0.00888999999999997,0.));
#396=CARTESIAN_POINT('',(-2.67824705663978E-17,0.0076708,0.));
#397=CARTESIAN_POINT('',(0.00749299999999997,0.00767080000000003,0.));
#398=CARTESIAN_POINT('',(0.007493,0.0076708,0.));
#399=CARTESIAN_POINT('',(-2.67824705663978E-17,0.0076708,0.));
#400=CARTESIAN_POINT('',(0.00781049999999997,0.00767080000000003,0.));
#401=CARTESIAN_POINT('',(0.,0.,0.));
#402=CARTESIAN_POINT('',(-2.05746131503453E-17,0.0058928,0.));
#403=CARTESIAN_POINT('',(0.00781049999999998,0.00589280000000003,0.));
#404=CARTESIAN_POINT('',(0.0078105,0.0058928,0.));
#405=CARTESIAN_POINT('',(-2.05746131503453E-17,0.0058928,0.));
#406=CARTESIAN_POINT('',(0.00749299999999998,0.00589280000000003,0.));
#407=CARTESIAN_POINT('',(-2.05746131503453E-17,0.0058928,0.));
#408=CARTESIAN_POINT('',(-1.81801538612965E-17,0.005207,0.));
#409=CARTESIAN_POINT('',(0.00630515955616927,0.00520700000000002,0.));
#410=CARTESIAN_POINT('',(0.00630515955616927,0.005207,0.));
#411=CARTESIAN_POINT('',(-3.54734709488712E-17,0.01016,0.));
#412=CARTESIAN_POINT('',(-2.57182664379316E-17,0.007366,0.));
#413=CARTESIAN_POINT('',(-2.92656135328187E-17,0.008382,0.));
#414=CARTESIAN_POINT('',(-2.48314296642098E-17,0.007112,0.));
#415=CARTESIAN_POINT('',(-3.01524503065405E-17,0.008636,0.));
#416=CARTESIAN_POINT('',(-3.50300525620103E-17,0.010033,0.));
#417=CARTESIAN_POINT('',(-1.57139740080835E-17,0.00450065842590484,0.));
#418=MECHANICAL_DESIGN_GEOMETRIC_PRESENTATION_REPRESENTATION('',(#227),
#419);
#419=(
GEOMETRIC_REPRESENTATION_CONTEXT(3)
GLOBAL_UNCERTAINTY_ASSIGNED_CONTEXT((#420))
GLOBAL_UNIT_ASSIGNED_CONTEXT((#423,#422,#421))
REPRESENTATION_CONTEXT('Part 1','TOP_LEVEL_ASSEMBLY_PART')
);
#420=UNCERTAINTY_MEASURE_WITH_UNIT(LENGTH_MEASURE(1.E-8),#423,
'DISTANCE_ACCURACY_VALUE','Maximum Tolerance applied to model');
#421=(
NAMED_UNIT(*)
SI_UNIT($,.STERADIAN.)
SOLID_ANGLE_UNIT()
);
#422=(
NAMED_UNIT(*)
PLANE_ANGLE_UNIT()
SI_UNIT($,.RADIAN.)
);
#423=(
LENGTH_UNIT()
NAMED_UNIT(*)
SI_UNIT($,.METRE.)
);
#424=PRODUCT_DEFINITION_SHAPE('','',#425);
#425=PRODUCT_DEFINITION('','',#427,#426);
#426=PRODUCT_DEFINITION_CONTEXT('',#433,'design');
#427=PRODUCT_DEFINITION_FORMATION_WITH_SPECIFIED_SOURCE('','',#429,
 .NOT_KNOWN.);
#428=PRODUCT_RELATED_PRODUCT_CATEGORY('','',(#429));
#429=PRODUCT('Part 1','Part 1','Part 1',(#431));
#430=PRODUCT_CATEGORY('','');
#431=PRODUCT_CONTEXT('',#433,'mechanical');
#432=APPLICATION_PROTOCOL_DEFINITION('international standard',
'ap242_managed_model_based_3d_engineering',2020,#433);
#433=APPLICATION_CONTEXT('managed model based 3d engineering');
ENDSEC;
END-ISO-10303-21;
