ISO-10303-21;
HEADER;
/* Generated by software containing ST-Developer
 * from STEP Tools, Inc. (www.steptools.com) 
 */
/* OPTION: using custom renumber hook */

FILE_DESCRIPTION(
/* description */ ('STEP AP242 Edition 2',
'CAx-IF Rec.Pracs.---Representation and Presentation of Product Manufa
cturing Information (PMI)---4.0---2014-10-13',
'CAx-IF Rec.Pracs.---3D Tessellated Geometry---0.4---2014-09-14','2;1',
'CAx-IF Rec.Pracs.---User Defined Attributes---1.5---2016-08-15'),
/* implementation_level */ '2;1');

FILE_NAME(
/* name */ 'Syringe 20mL - Plunger - Part 1',
/* time_stamp */ '2026-04-18T18:41:52Z',
/* author */ (''),
/* organization */ (''),
/* preprocessor_version */ 'ST-DEVELOPER v20',
/* originating_system */ 'ONSHAPE BY PTC INC, 1.213',
/* authorisation */ '  ');

FILE_SCHEMA (('AP242_MANAGED_MODEL_BASED_3D_ENGINEERING_MIM_LF { 1 0 10303 442 3 1 4 }'));
ENDSEC;

DATA;
#10=SHAPE_REPRESENTATION_RELATIONSHIP('','',#1184,#11);
#11=ADVANCED_BREP_SHAPE_REPRESENTATION('',(#1182),#1937);
#12=TOROIDAL_SURFACE('',#1277,0.0116395500000004,0.0001905);
#13=TOROIDAL_SURFACE('',#1278,0.0116395500000004,0.0001905);
#14=CONICAL_SURFACE('',#1272,0.0078105,0.785398163397452);
#15=CYLINDRICAL_SURFACE('',#1229,0.0078105);
#16=CYLINDRICAL_SURFACE('',#1233,0.009271);
#17=CYLINDRICAL_SURFACE('',#1236,0.009271);
#18=CYLINDRICAL_SURFACE('',#1239,0.009271);
#19=CYLINDRICAL_SURFACE('',#1244,0.009271);
#20=CYLINDRICAL_SURFACE('',#1247,0.009271);
#21=CYLINDRICAL_SURFACE('',#1252,0.009271);
#22=CYLINDRICAL_SURFACE('',#1257,0.009271);
#23=CYLINDRICAL_SURFACE('',#1262,0.009271);
#24=CYLINDRICAL_SURFACE('',#1267,0.0118300500000004);
#25=CYLINDRICAL_SURFACE('',#1273,0.001905);
#26=CYLINDRICAL_SURFACE('',#1274,0.001905);
#27=CYLINDRICAL_SURFACE('',#1275,0.001905);
#28=CYLINDRICAL_SURFACE('',#1276,0.001905);
#29=CIRCLE('',#1187,0.001905);
#30=CIRCLE('',#1189,0.001905);
#31=CIRCLE('',#1191,0.001905);
#32=CIRCLE('',#1193,0.001905);
#33=CIRCLE('',#1195,0.001905);
#34=CIRCLE('',#1197,0.001905);
#35=CIRCLE('',#1199,0.001905);
#36=CIRCLE('',#1201,0.001905);
#37=CIRCLE('',#1211,0.009271);
#38=CIRCLE('',#1212,0.009271);
#39=CIRCLE('',#1213,0.009271);
#40=CIRCLE('',#1214,0.009271);
#41=CIRCLE('',#1228,0.006985);
#42=CIRCLE('',#1230,0.0078105);
#43=CIRCLE('',#1231,0.0078105);
#44=CIRCLE('',#1234,0.009271);
#45=CIRCLE('',#1237,0.009271);
#46=CIRCLE('',#1240,0.009271);
#47=CIRCLE('',#1243,0.009271);
#48=CIRCLE('',#1246,0.009271);
#49=CIRCLE('',#1248,0.009271);
#50=CIRCLE('',#1251,0.009271);
#51=CIRCLE('',#1253,0.009271);
#52=CIRCLE('',#1256,0.009271);
#53=CIRCLE('',#1258,0.009271);
#54=CIRCLE('',#1261,0.009271);
#55=CIRCLE('',#1263,0.009271);
#56=CIRCLE('',#1266,0.0116395500000004);
#57=CIRCLE('',#1268,0.0118300500000004);
#58=CIRCLE('',#1269,0.0118300500000004);
#59=CIRCLE('',#1271,0.0116395500000004);
#60=ORIENTED_EDGE('',*,*,#386,.F.);
#61=ORIENTED_EDGE('',*,*,#387,.T.);
#62=ORIENTED_EDGE('',*,*,#388,.F.);
#63=ORIENTED_EDGE('',*,*,#389,.F.);
#64=ORIENTED_EDGE('',*,*,#390,.F.);
#65=ORIENTED_EDGE('',*,*,#391,.T.);
#66=ORIENTED_EDGE('',*,*,#392,.F.);
#67=ORIENTED_EDGE('',*,*,#393,.F.);
#68=ORIENTED_EDGE('',*,*,#394,.T.);
#69=ORIENTED_EDGE('',*,*,#395,.T.);
#70=ORIENTED_EDGE('',*,*,#396,.T.);
#71=ORIENTED_EDGE('',*,*,#397,.T.);
#72=ORIENTED_EDGE('',*,*,#398,.F.);
#73=ORIENTED_EDGE('',*,*,#399,.T.);
#74=ORIENTED_EDGE('',*,*,#400,.T.);
#75=ORIENTED_EDGE('',*,*,#401,.F.);
#76=ORIENTED_EDGE('',*,*,#402,.F.);
#77=ORIENTED_EDGE('',*,*,#403,.F.);
#78=ORIENTED_EDGE('',*,*,#404,.T.);
#79=ORIENTED_EDGE('',*,*,#405,.T.);
#80=ORIENTED_EDGE('',*,*,#406,.F.);
#81=ORIENTED_EDGE('',*,*,#407,.T.);
#82=ORIENTED_EDGE('',*,*,#408,.T.);
#83=ORIENTED_EDGE('',*,*,#409,.T.);
#84=ORIENTED_EDGE('',*,*,#410,.F.);
#85=ORIENTED_EDGE('',*,*,#411,.T.);
#86=ORIENTED_EDGE('',*,*,#412,.T.);
#87=ORIENTED_EDGE('',*,*,#413,.T.);
#88=ORIENTED_EDGE('',*,*,#414,.T.);
#89=ORIENTED_EDGE('',*,*,#415,.F.);
#90=ORIENTED_EDGE('',*,*,#416,.F.);
#91=ORIENTED_EDGE('',*,*,#417,.F.);
#92=ORIENTED_EDGE('',*,*,#418,.F.);
#93=ORIENTED_EDGE('',*,*,#419,.F.);
#94=ORIENTED_EDGE('',*,*,#420,.F.);
#95=ORIENTED_EDGE('',*,*,#421,.F.);
#96=ORIENTED_EDGE('',*,*,#422,.F.);
#97=ORIENTED_EDGE('',*,*,#423,.T.);
#98=ORIENTED_EDGE('',*,*,#424,.T.);
#99=ORIENTED_EDGE('',*,*,#425,.T.);
#100=ORIENTED_EDGE('',*,*,#426,.T.);
#101=ORIENTED_EDGE('',*,*,#427,.T.);
#102=ORIENTED_EDGE('',*,*,#428,.T.);
#103=ORIENTED_EDGE('',*,*,#429,.T.);
#104=ORIENTED_EDGE('',*,*,#430,.T.);
#105=ORIENTED_EDGE('',*,*,#431,.T.);
#106=ORIENTED_EDGE('',*,*,#432,.F.);
#107=ORIENTED_EDGE('',*,*,#433,.F.);
#108=ORIENTED_EDGE('',*,*,#434,.F.);
#109=ORIENTED_EDGE('',*,*,#435,.T.);
#110=ORIENTED_EDGE('',*,*,#436,.T.);
#111=ORIENTED_EDGE('',*,*,#398,.T.);
#112=ORIENTED_EDGE('',*,*,#437,.T.);
#113=ORIENTED_EDGE('',*,*,#438,.T.);
#114=ORIENTED_EDGE('',*,*,#439,.T.);
#115=ORIENTED_EDGE('',*,*,#406,.T.);
#116=ORIENTED_EDGE('',*,*,#440,.T.);
#117=ORIENTED_EDGE('',*,*,#441,.T.);
#118=ORIENTED_EDGE('',*,*,#442,.F.);
#119=ORIENTED_EDGE('',*,*,#443,.F.);
#120=ORIENTED_EDGE('',*,*,#444,.F.);
#121=ORIENTED_EDGE('',*,*,#445,.T.);
#122=ORIENTED_EDGE('',*,*,#446,.T.);
#123=ORIENTED_EDGE('',*,*,#447,.T.);
#124=ORIENTED_EDGE('',*,*,#448,.T.);
#125=ORIENTED_EDGE('',*,*,#449,.F.);
#126=ORIENTED_EDGE('',*,*,#450,.F.);
#127=ORIENTED_EDGE('',*,*,#429,.F.);
#128=ORIENTED_EDGE('',*,*,#451,.F.);
#129=ORIENTED_EDGE('',*,*,#452,.F.);
#130=ORIENTED_EDGE('',*,*,#453,.F.);
#131=ORIENTED_EDGE('',*,*,#425,.F.);
#132=ORIENTED_EDGE('',*,*,#454,.F.);
#133=ORIENTED_EDGE('',*,*,#421,.T.);
#134=ORIENTED_EDGE('',*,*,#455,.F.);
#135=ORIENTED_EDGE('',*,*,#456,.F.);
#136=ORIENTED_EDGE('',*,*,#457,.F.);
#137=ORIENTED_EDGE('',*,*,#417,.T.);
#138=ORIENTED_EDGE('',*,*,#458,.F.);
#139=ORIENTED_EDGE('',*,*,#459,.F.);
#140=ORIENTED_EDGE('',*,*,#460,.T.);
#141=ORIENTED_EDGE('',*,*,#461,.T.);
#142=ORIENTED_EDGE('',*,*,#462,.T.);
#143=ORIENTED_EDGE('',*,*,#463,.T.);
#144=ORIENTED_EDGE('',*,*,#387,.F.);
#145=ORIENTED_EDGE('',*,*,#464,.T.);
#146=ORIENTED_EDGE('',*,*,#465,.T.);
#147=ORIENTED_EDGE('',*,*,#466,.F.);
#148=ORIENTED_EDGE('',*,*,#467,.F.);
#149=ORIENTED_EDGE('',*,*,#468,.F.);
#150=ORIENTED_EDGE('',*,*,#469,.T.);
#151=ORIENTED_EDGE('',*,*,#470,.T.);
#152=ORIENTED_EDGE('',*,*,#391,.F.);
#153=ORIENTED_EDGE('',*,*,#471,.T.);
#154=ORIENTED_EDGE('',*,*,#472,.T.);
#155=ORIENTED_EDGE('',*,*,#473,.T.);
#156=ORIENTED_EDGE('',*,*,#474,.F.);
#157=ORIENTED_EDGE('',*,*,#475,.T.);
#158=ORIENTED_EDGE('',*,*,#476,.F.);
#159=ORIENTED_EDGE('',*,*,#477,.T.);
#160=ORIENTED_EDGE('',*,*,#478,.F.);
#161=ORIENTED_EDGE('',*,*,#479,.T.);
#162=ORIENTED_EDGE('',*,*,#480,.F.);
#163=ORIENTED_EDGE('',*,*,#481,.T.);
#164=ORIENTED_EDGE('',*,*,#482,.T.);
#165=ORIENTED_EDGE('',*,*,#483,.T.);
#166=ORIENTED_EDGE('',*,*,#484,.F.);
#167=ORIENTED_EDGE('',*,*,#485,.T.);
#168=ORIENTED_EDGE('',*,*,#477,.F.);
#169=ORIENTED_EDGE('',*,*,#486,.T.);
#170=ORIENTED_EDGE('',*,*,#480,.T.);
#171=ORIENTED_EDGE('',*,*,#487,.F.);
#172=ORIENTED_EDGE('',*,*,#488,.T.);
#173=ORIENTED_EDGE('',*,*,#402,.T.);
#174=ORIENTED_EDGE('',*,*,#489,.F.);
#175=ORIENTED_EDGE('',*,*,#395,.F.);
#176=ORIENTED_EDGE('',*,*,#401,.T.);
#177=ORIENTED_EDGE('',*,*,#490,.T.);
#178=ORIENTED_EDGE('',*,*,#396,.F.);
#179=ORIENTED_EDGE('',*,*,#489,.T.);
#180=ORIENTED_EDGE('',*,*,#412,.F.);
#181=ORIENTED_EDGE('',*,*,#491,.T.);
#182=ORIENTED_EDGE('',*,*,#422,.T.);
#183=ORIENTED_EDGE('',*,*,#492,.F.);
#184=ORIENTED_EDGE('',*,*,#433,.T.);
#185=ORIENTED_EDGE('',*,*,#493,.F.);
#186=ORIENTED_EDGE('',*,*,#413,.F.);
#187=ORIENTED_EDGE('',*,*,#492,.T.);
#188=ORIENTED_EDGE('',*,*,#394,.F.);
#189=ORIENTED_EDGE('',*,*,#494,.T.);
#190=ORIENTED_EDGE('',*,*,#468,.T.);
#191=ORIENTED_EDGE('',*,*,#495,.F.);
#192=ORIENTED_EDGE('',*,*,#460,.F.);
#193=ORIENTED_EDGE('',*,*,#496,.T.);
#194=ORIENTED_EDGE('',*,*,#414,.F.);
#195=ORIENTED_EDGE('',*,*,#493,.T.);
#196=ORIENTED_EDGE('',*,*,#432,.T.);
#197=ORIENTED_EDGE('',*,*,#497,.T.);
#198=ORIENTED_EDGE('',*,*,#448,.F.);
#199=ORIENTED_EDGE('',*,*,#498,.T.);
#200=ORIENTED_EDGE('',*,*,#442,.T.);
#201=ORIENTED_EDGE('',*,*,#499,.T.);
#202=ORIENTED_EDGE('',*,*,#403,.T.);
#203=ORIENTED_EDGE('',*,*,#488,.F.);
#204=ORIENTED_EDGE('',*,*,#474,.T.);
#205=ORIENTED_EDGE('',*,*,#487,.T.);
#206=ORIENTED_EDGE('',*,*,#479,.F.);
#207=ORIENTED_EDGE('',*,*,#500,.F.);
#208=ORIENTED_EDGE('',*,*,#501,.F.);
#209=ORIENTED_EDGE('',*,*,#502,.T.);
#210=ORIENTED_EDGE('',*,*,#503,.F.);
#211=ORIENTED_EDGE('',*,*,#485,.F.);
#212=ORIENTED_EDGE('',*,*,#504,.T.);
#213=ORIENTED_EDGE('',*,*,#505,.T.);
#214=ORIENTED_EDGE('',*,*,#506,.T.);
#215=ORIENTED_EDGE('',*,*,#507,.F.);
#216=ORIENTED_EDGE('',*,*,#504,.F.);
#217=ORIENTED_EDGE('',*,*,#484,.T.);
#218=ORIENTED_EDGE('',*,*,#508,.F.);
#219=ORIENTED_EDGE('',*,*,#509,.F.);
#220=ORIENTED_EDGE('',*,*,#482,.F.);
#221=ORIENTED_EDGE('',*,*,#503,.T.);
#222=ORIENTED_EDGE('',*,*,#510,.T.);
#223=ORIENTED_EDGE('',*,*,#511,.T.);
#224=ORIENTED_EDGE('',*,*,#446,.F.);
#225=ORIENTED_EDGE('',*,*,#512,.T.);
#226=ORIENTED_EDGE('',*,*,#434,.T.);
#227=ORIENTED_EDGE('',*,*,#513,.F.);
#228=ORIENTED_EDGE('',*,*,#443,.T.);
#229=ORIENTED_EDGE('',*,*,#498,.F.);
#230=ORIENTED_EDGE('',*,*,#447,.F.);
#231=ORIENTED_EDGE('',*,*,#513,.T.);
#232=ORIENTED_EDGE('',*,*,#514,.T.);
#233=ORIENTED_EDGE('',*,*,#515,.T.);
#234=ORIENTED_EDGE('',*,*,#516,.F.);
#235=ORIENTED_EDGE('',*,*,#501,.T.);
#236=ORIENTED_EDGE('',*,*,#514,.F.);
#237=ORIENTED_EDGE('',*,*,#500,.T.);
#238=ORIENTED_EDGE('',*,*,#478,.T.);
#239=ORIENTED_EDGE('',*,*,#517,.T.);
#240=ORIENTED_EDGE('',*,*,#502,.F.);
#241=ORIENTED_EDGE('',*,*,#516,.T.);
#242=ORIENTED_EDGE('',*,*,#518,.F.);
#243=ORIENTED_EDGE('',*,*,#510,.F.);
#244=ORIENTED_EDGE('',*,*,#519,.F.);
#245=ORIENTED_EDGE('',*,*,#520,.T.);
#246=ORIENTED_EDGE('',*,*,#521,.T.);
#247=ORIENTED_EDGE('',*,*,#506,.F.);
#248=ORIENTED_EDGE('',*,*,#495,.T.);
#249=ORIENTED_EDGE('',*,*,#467,.T.);
#250=ORIENTED_EDGE('',*,*,#522,.F.);
#251=ORIENTED_EDGE('',*,*,#461,.F.);
#252=ORIENTED_EDGE('',*,*,#466,.T.);
#253=ORIENTED_EDGE('',*,*,#523,.T.);
#254=ORIENTED_EDGE('',*,*,#462,.F.);
#255=ORIENTED_EDGE('',*,*,#522,.T.);
#256=ORIENTED_EDGE('',*,*,#505,.F.);
#257=ORIENTED_EDGE('',*,*,#509,.T.);
#258=ORIENTED_EDGE('',*,*,#524,.F.);
#259=ORIENTED_EDGE('',*,*,#519,.T.);
#260=ORIENTED_EDGE('',*,*,#475,.F.);
#261=ORIENTED_EDGE('',*,*,#507,.T.);
#262=ORIENTED_EDGE('',*,*,#521,.F.);
#263=ORIENTED_EDGE('',*,*,#525,.T.);
#264=ORIENTED_EDGE('',*,*,#526,.T.);
#265=ORIENTED_EDGE('',*,*,#511,.F.);
#266=ORIENTED_EDGE('',*,*,#518,.T.);
#267=ORIENTED_EDGE('',*,*,#515,.F.);
#268=ORIENTED_EDGE('',*,*,#517,.F.);
#269=ORIENTED_EDGE('',*,*,#481,.F.);
#270=ORIENTED_EDGE('',*,*,#486,.F.);
#271=ORIENTED_EDGE('',*,*,#476,.T.);
#272=ORIENTED_EDGE('',*,*,#525,.F.);
#273=ORIENTED_EDGE('',*,*,#520,.F.);
#274=ORIENTED_EDGE('',*,*,#524,.T.);
#275=ORIENTED_EDGE('',*,*,#508,.T.);
#276=ORIENTED_EDGE('',*,*,#483,.F.);
#277=ORIENTED_EDGE('',*,*,#527,.T.);
#278=ORIENTED_EDGE('',*,*,#528,.F.);
#279=ORIENTED_EDGE('',*,*,#528,.T.);
#280=ORIENTED_EDGE('',*,*,#494,.F.);
#281=ORIENTED_EDGE('',*,*,#393,.T.);
#282=ORIENTED_EDGE('',*,*,#529,.T.);
#283=ORIENTED_EDGE('',*,*,#469,.F.);
#284=ORIENTED_EDGE('',*,*,#529,.F.);
#285=ORIENTED_EDGE('',*,*,#392,.T.);
#286=ORIENTED_EDGE('',*,*,#470,.F.);
#287=ORIENTED_EDGE('',*,*,#530,.T.);
#288=ORIENTED_EDGE('',*,*,#415,.T.);
#289=ORIENTED_EDGE('',*,*,#496,.F.);
#290=ORIENTED_EDGE('',*,*,#459,.T.);
#291=ORIENTED_EDGE('',*,*,#458,.T.);
#292=ORIENTED_EDGE('',*,*,#416,.T.);
#293=ORIENTED_EDGE('',*,*,#530,.F.);
#294=ORIENTED_EDGE('',*,*,#431,.F.);
#295=ORIENTED_EDGE('',*,*,#531,.T.);
#296=ORIENTED_EDGE('',*,*,#449,.T.);
#297=ORIENTED_EDGE('',*,*,#497,.F.);
#298=ORIENTED_EDGE('',*,*,#430,.F.);
#299=ORIENTED_EDGE('',*,*,#450,.T.);
#300=ORIENTED_EDGE('',*,*,#531,.F.);
#301=ORIENTED_EDGE('',*,*,#405,.F.);
#302=ORIENTED_EDGE('',*,*,#532,.F.);
#303=ORIENTED_EDGE('',*,*,#440,.F.);
#304=ORIENTED_EDGE('',*,*,#404,.F.);
#305=ORIENTED_EDGE('',*,*,#499,.F.);
#306=ORIENTED_EDGE('',*,*,#441,.F.);
#307=ORIENTED_EDGE('',*,*,#532,.T.);
#308=ORIENTED_EDGE('',*,*,#471,.F.);
#309=ORIENTED_EDGE('',*,*,#390,.T.);
#310=ORIENTED_EDGE('',*,*,#533,.T.);
#311=ORIENTED_EDGE('',*,*,#533,.F.);
#312=ORIENTED_EDGE('',*,*,#389,.T.);
#313=ORIENTED_EDGE('',*,*,#534,.T.);
#314=ORIENTED_EDGE('',*,*,#472,.F.);
#315=ORIENTED_EDGE('',*,*,#534,.F.);
#316=ORIENTED_EDGE('',*,*,#388,.T.);
#317=ORIENTED_EDGE('',*,*,#473,.F.);
#318=ORIENTED_EDGE('',*,*,#535,.T.);
#319=ORIENTED_EDGE('',*,*,#418,.T.);
#320=ORIENTED_EDGE('',*,*,#457,.T.);
#321=ORIENTED_EDGE('',*,*,#536,.T.);
#322=ORIENTED_EDGE('',*,*,#419,.T.);
#323=ORIENTED_EDGE('',*,*,#535,.F.);
#324=ORIENTED_EDGE('',*,*,#456,.T.);
#325=ORIENTED_EDGE('',*,*,#455,.T.);
#326=ORIENTED_EDGE('',*,*,#420,.T.);
#327=ORIENTED_EDGE('',*,*,#536,.F.);
#328=ORIENTED_EDGE('',*,*,#428,.F.);
#329=ORIENTED_EDGE('',*,*,#537,.T.);
#330=ORIENTED_EDGE('',*,*,#451,.T.);
#331=ORIENTED_EDGE('',*,*,#427,.F.);
#332=ORIENTED_EDGE('',*,*,#538,.T.);
#333=ORIENTED_EDGE('',*,*,#452,.T.);
#334=ORIENTED_EDGE('',*,*,#537,.F.);
#335=ORIENTED_EDGE('',*,*,#426,.F.);
#336=ORIENTED_EDGE('',*,*,#453,.T.);
#337=ORIENTED_EDGE('',*,*,#538,.F.);
#338=ORIENTED_EDGE('',*,*,#409,.F.);
#339=ORIENTED_EDGE('',*,*,#539,.F.);
#340=ORIENTED_EDGE('',*,*,#437,.F.);
#341=ORIENTED_EDGE('',*,*,#408,.F.);
#342=ORIENTED_EDGE('',*,*,#540,.F.);
#343=ORIENTED_EDGE('',*,*,#438,.F.);
#344=ORIENTED_EDGE('',*,*,#539,.T.);
#345=ORIENTED_EDGE('',*,*,#407,.F.);
#346=ORIENTED_EDGE('',*,*,#439,.F.);
#347=ORIENTED_EDGE('',*,*,#540,.T.);
#348=ORIENTED_EDGE('',*,*,#541,.T.);
#349=ORIENTED_EDGE('',*,*,#436,.F.);
#350=ORIENTED_EDGE('',*,*,#542,.T.);
#351=ORIENTED_EDGE('',*,*,#444,.T.);
#352=ORIENTED_EDGE('',*,*,#424,.F.);
#353=ORIENTED_EDGE('',*,*,#543,.T.);
#354=ORIENTED_EDGE('',*,*,#410,.T.);
#355=ORIENTED_EDGE('',*,*,#454,.T.);
#356=ORIENTED_EDGE('',*,*,#544,.T.);
#357=ORIENTED_EDGE('',*,*,#464,.F.);
#358=ORIENTED_EDGE('',*,*,#386,.T.);
#359=ORIENTED_EDGE('',*,*,#545,.T.);
#360=ORIENTED_EDGE('',*,*,#399,.F.);
#361=ORIENTED_EDGE('',*,*,#546,.T.);
#362=ORIENTED_EDGE('',*,*,#547,.T.);
#363=ORIENTED_EDGE('',*,*,#548,.T.);
#364=ORIENTED_EDGE('',*,*,#526,.F.);
#365=ORIENTED_EDGE('',*,*,#527,.F.);
#366=ORIENTED_EDGE('',*,*,#445,.F.);
#367=ORIENTED_EDGE('',*,*,#542,.F.);
#368=ORIENTED_EDGE('',*,*,#435,.F.);
#369=ORIENTED_EDGE('',*,*,#512,.F.);
#370=ORIENTED_EDGE('',*,*,#411,.F.);
#371=ORIENTED_EDGE('',*,*,#543,.F.);
#372=ORIENTED_EDGE('',*,*,#423,.F.);
#373=ORIENTED_EDGE('',*,*,#491,.F.);
#374=ORIENTED_EDGE('',*,*,#465,.F.);
#375=ORIENTED_EDGE('',*,*,#544,.F.);
#376=ORIENTED_EDGE('',*,*,#463,.F.);
#377=ORIENTED_EDGE('',*,*,#523,.F.);
#378=ORIENTED_EDGE('',*,*,#400,.F.);
#379=ORIENTED_EDGE('',*,*,#545,.F.);
#380=ORIENTED_EDGE('',*,*,#397,.F.);
#381=ORIENTED_EDGE('',*,*,#490,.F.);
#382=ORIENTED_EDGE('',*,*,#546,.F.);
#383=ORIENTED_EDGE('',*,*,#541,.F.);
#384=ORIENTED_EDGE('',*,*,#548,.F.);
#385=ORIENTED_EDGE('',*,*,#547,.F.);
#386=EDGE_CURVE('',#549,#550,#660,.T.);
#387=EDGE_CURVE('',#549,#551,#661,.T.);
#388=EDGE_CURVE('',#552,#551,#662,.T.);
#389=EDGE_CURVE('',#553,#552,#663,.F.);
#390=EDGE_CURVE('',#554,#553,#664,.T.);
#391=EDGE_CURVE('',#554,#555,#665,.T.);
#392=EDGE_CURVE('',#556,#555,#666,.T.);
#393=EDGE_CURVE('',#557,#556,#667,.F.);
#394=EDGE_CURVE('',#557,#558,#668,.T.);
#395=EDGE_CURVE('',#558,#559,#669,.T.);
#396=EDGE_CURVE('',#559,#560,#670,.T.);
#397=EDGE_CURVE('',#560,#550,#29,.F.);
#398=EDGE_CURVE('',#561,#562,#671,.T.);
#399=EDGE_CURVE('',#561,#563,#672,.T.);
#400=EDGE_CURVE('',#563,#564,#30,.T.);
#401=EDGE_CURVE('',#565,#564,#673,.T.);
#402=EDGE_CURVE('',#566,#565,#674,.T.);
#403=EDGE_CURVE('',#567,#566,#675,.T.);
#404=EDGE_CURVE('',#567,#568,#676,.F.);
#405=EDGE_CURVE('',#568,#569,#677,.T.);
#406=EDGE_CURVE('',#570,#569,#678,.T.);
#407=EDGE_CURVE('',#570,#571,#679,.T.);
#408=EDGE_CURVE('',#571,#572,#680,.F.);
#409=EDGE_CURVE('',#572,#562,#681,.T.);
#410=EDGE_CURVE('',#573,#574,#682,.T.);
#411=EDGE_CURVE('',#573,#575,#31,.F.);
#412=EDGE_CURVE('',#575,#576,#683,.T.);
#413=EDGE_CURVE('',#576,#577,#684,.T.);
#414=EDGE_CURVE('',#577,#578,#685,.T.);
#415=EDGE_CURVE('',#579,#578,#686,.T.);
#416=EDGE_CURVE('',#580,#579,#687,.T.);
#417=EDGE_CURVE('',#581,#580,#688,.T.);
#418=EDGE_CURVE('',#582,#581,#689,.T.);
#419=EDGE_CURVE('',#583,#582,#690,.T.);
#420=EDGE_CURVE('',#584,#583,#691,.T.);
#421=EDGE_CURVE('',#574,#584,#692,.T.);
#422=EDGE_CURVE('',#585,#586,#693,.T.);
#423=EDGE_CURVE('',#585,#587,#32,.T.);
#424=EDGE_CURVE('',#587,#588,#694,.T.);
#425=EDGE_CURVE('',#588,#589,#695,.T.);
#426=EDGE_CURVE('',#589,#590,#696,.T.);
#427=EDGE_CURVE('',#590,#591,#697,.T.);
#428=EDGE_CURVE('',#591,#592,#698,.T.);
#429=EDGE_CURVE('',#592,#593,#699,.T.);
#430=EDGE_CURVE('',#593,#594,#700,.T.);
#431=EDGE_CURVE('',#594,#595,#701,.T.);
#432=EDGE_CURVE('',#596,#595,#702,.T.);
#433=EDGE_CURVE('',#586,#596,#703,.T.);
#434=EDGE_CURVE('',#597,#598,#704,.T.);
#435=EDGE_CURVE('',#597,#599,#33,.T.);
#436=EDGE_CURVE('',#599,#561,#705,.T.);
#437=EDGE_CURVE('',#562,#600,#706,.T.);
#438=EDGE_CURVE('',#600,#601,#707,.T.);
#439=EDGE_CURVE('',#601,#570,#708,.T.);
#440=EDGE_CURVE('',#569,#602,#709,.T.);
#441=EDGE_CURVE('',#602,#603,#710,.T.);
#442=EDGE_CURVE('',#604,#603,#711,.T.);
#443=EDGE_CURVE('',#598,#604,#712,.T.);
#444=EDGE_CURVE('',#605,#588,#713,.T.);
#445=EDGE_CURVE('',#605,#606,#34,.F.);
#446=EDGE_CURVE('',#606,#607,#714,.T.);
#447=EDGE_CURVE('',#607,#608,#715,.T.);
#448=EDGE_CURVE('',#608,#609,#716,.T.);
#449=EDGE_CURVE('',#610,#609,#717,.T.);
#450=EDGE_CURVE('',#593,#610,#718,.T.);
#451=EDGE_CURVE('',#611,#592,#719,.T.);
#452=EDGE_CURVE('',#612,#611,#720,.T.);
#453=EDGE_CURVE('',#589,#612,#721,.T.);
#454=EDGE_CURVE('',#574,#613,#722,.T.);
#455=EDGE_CURVE('',#614,#584,#723,.T.);
#456=EDGE_CURVE('',#615,#614,#724,.F.);
#457=EDGE_CURVE('',#581,#615,#725,.T.);
#458=EDGE_CURVE('',#616,#580,#726,.T.);
#459=EDGE_CURVE('',#617,#616,#727,.F.);
#460=EDGE_CURVE('',#617,#618,#728,.T.);
#461=EDGE_CURVE('',#618,#619,#729,.T.);
#462=EDGE_CURVE('',#619,#620,#730,.T.);
#463=EDGE_CURVE('',#620,#613,#35,.F.);
#464=EDGE_CURVE('',#549,#621,#731,.T.);
#465=EDGE_CURVE('',#621,#622,#36,.T.);
#466=EDGE_CURVE('',#623,#622,#732,.T.);
#467=EDGE_CURVE('',#624,#623,#733,.T.);
#468=EDGE_CURVE('',#625,#624,#734,.T.);
#469=EDGE_CURVE('',#625,#626,#735,.F.);
#470=EDGE_CURVE('',#626,#555,#736,.T.);
#471=EDGE_CURVE('',#554,#627,#737,.T.);
#472=EDGE_CURVE('',#627,#628,#738,.F.);
#473=EDGE_CURVE('',#628,#551,#739,.T.);
#474=EDGE_CURVE('',#629,#630,#740,.T.);
#475=EDGE_CURVE('',#629,#631,#741,.T.);
#476=EDGE_CURVE('',#632,#631,#742,.T.);
#477=EDGE_CURVE('',#632,#630,#743,.T.);
#478=EDGE_CURVE('',#633,#634,#744,.T.);
#479=EDGE_CURVE('',#633,#635,#745,.T.);
#480=EDGE_CURVE('',#636,#635,#746,.T.);
#481=EDGE_CURVE('',#636,#634,#747,.T.);
#482=EDGE_CURVE('',#637,#638,#748,.T.);
#483=EDGE_CURVE('',#638,#639,#749,.T.);
#484=EDGE_CURVE('',#640,#639,#750,.T.);
#485=EDGE_CURVE('',#640,#637,#751,.T.);
#486=EDGE_CURVE('',#632,#636,#752,.T.);
#487=EDGE_CURVE('',#630,#635,#753,.T.);
#488=EDGE_CURVE('',#558,#566,#754,.T.);
#489=EDGE_CURVE('',#559,#565,#755,.T.);
#490=EDGE_CURVE('',#564,#560,#756,.T.);
#491=EDGE_CURVE('',#575,#585,#757,.T.);
#492=EDGE_CURVE('',#576,#586,#758,.T.);
#493=EDGE_CURVE('',#577,#596,#759,.T.);
#494=EDGE_CURVE('',#557,#625,#37,.T.);
#495=EDGE_CURVE('',#618,#624,#760,.T.);
#496=EDGE_CURVE('',#617,#578,#38,.T.);
#497=EDGE_CURVE('',#595,#609,#39,.T.);
#498=EDGE_CURVE('',#608,#604,#761,.T.);
#499=EDGE_CURVE('',#603,#567,#40,.T.);
#500=EDGE_CURVE('',#641,#633,#762,.T.);
#501=EDGE_CURVE('',#642,#641,#763,.T.);
#502=EDGE_CURVE('',#642,#643,#764,.T.);
#503=EDGE_CURVE('',#637,#643,#765,.T.);
#504=EDGE_CURVE('',#640,#644,#766,.T.);
#505=EDGE_CURVE('',#644,#645,#767,.T.);
#506=EDGE_CURVE('',#645,#646,#768,.T.);
#507=EDGE_CURVE('',#629,#646,#769,.T.);
#508=EDGE_CURVE('',#647,#639,#770,.T.);
#509=EDGE_CURVE('',#644,#647,#771,.T.);
#510=EDGE_CURVE('',#643,#648,#772,.T.);
#511=EDGE_CURVE('',#648,#638,#773,.T.);
#512=EDGE_CURVE('',#606,#597,#774,.T.);
#513=EDGE_CURVE('',#607,#598,#775,.T.);
#514=EDGE_CURVE('',#641,#649,#776,.T.);
#515=EDGE_CURVE('',#649,#650,#777,.T.);
#516=EDGE_CURVE('',#642,#650,#778,.T.);
#517=EDGE_CURVE('',#634,#649,#779,.T.);
#518=EDGE_CURVE('',#648,#650,#780,.T.);
#519=EDGE_CURVE('',#651,#645,#781,.T.);
#520=EDGE_CURVE('',#651,#652,#782,.T.);
#521=EDGE_CURVE('',#652,#646,#783,.T.);
#522=EDGE_CURVE('',#619,#623,#784,.T.);
#523=EDGE_CURVE('',#622,#620,#785,.T.);
#524=EDGE_CURVE('',#651,#647,#786,.T.);
#525=EDGE_CURVE('',#652,#631,#787,.T.);
#526=EDGE_CURVE('',#653,#653,#41,.T.);
#527=EDGE_CURVE('',#654,#654,#42,.F.);
#528=EDGE_CURVE('',#655,#655,#43,.T.);
#529=EDGE_CURVE('',#556,#626,#44,.T.);
#530=EDGE_CURVE('',#616,#579,#45,.T.);
#531=EDGE_CURVE('',#594,#610,#46,.T.);
#532=EDGE_CURVE('',#602,#568,#47,.T.);
#533=EDGE_CURVE('',#553,#627,#48,.T.);
#534=EDGE_CURVE('',#552,#628,#49,.T.);
#535=EDGE_CURVE('',#615,#582,#50,.T.);
#536=EDGE_CURVE('',#614,#583,#51,.T.);
#537=EDGE_CURVE('',#591,#611,#52,.T.);
#538=EDGE_CURVE('',#590,#612,#53,.T.);
#539=EDGE_CURVE('',#600,#572,#54,.T.);
#540=EDGE_CURVE('',#601,#571,#55,.T.);
#541=EDGE_CURVE('',#656,#656,#56,.T.);
#542=EDGE_CURVE('',#599,#605,#788,.F.);
#543=EDGE_CURVE('',#587,#573,#789,.F.);
#544=EDGE_CURVE('',#613,#621,#790,.F.);
#545=EDGE_CURVE('',#550,#563,#791,.F.);
#546=EDGE_CURVE('',#657,#657,#57,.F.);
#547=EDGE_CURVE('',#658,#658,#58,.T.);
#548=EDGE_CURVE('',#659,#659,#59,.F.);
#549=VERTEX_POINT('',#1602);
#550=VERTEX_POINT('',#1603);
#551=VERTEX_POINT('',#1605);
#552=VERTEX_POINT('',#1607);
#553=VERTEX_POINT('',#1609);
#554=VERTEX_POINT('',#1611);
#555=VERTEX_POINT('',#1613);
#556=VERTEX_POINT('',#1615);
#557=VERTEX_POINT('',#1617);
#558=VERTEX_POINT('',#1619);
#559=VERTEX_POINT('',#1621);
#560=VERTEX_POINT('',#1623);
#561=VERTEX_POINT('',#1627);
#562=VERTEX_POINT('',#1628);
#563=VERTEX_POINT('',#1630);
#564=VERTEX_POINT('',#1632);
#565=VERTEX_POINT('',#1634);
#566=VERTEX_POINT('',#1636);
#567=VERTEX_POINT('',#1638);
#568=VERTEX_POINT('',#1640);
#569=VERTEX_POINT('',#1642);
#570=VERTEX_POINT('',#1644);
#571=VERTEX_POINT('',#1646);
#572=VERTEX_POINT('',#1648);
#573=VERTEX_POINT('',#1652);
#574=VERTEX_POINT('',#1653);
#575=VERTEX_POINT('',#1655);
#576=VERTEX_POINT('',#1657);
#577=VERTEX_POINT('',#1659);
#578=VERTEX_POINT('',#1661);
#579=VERTEX_POINT('',#1663);
#580=VERTEX_POINT('',#1665);
#581=VERTEX_POINT('',#1667);
#582=VERTEX_POINT('',#1669);
#583=VERTEX_POINT('',#1671);
#584=VERTEX_POINT('',#1673);
#585=VERTEX_POINT('',#1677);
#586=VERTEX_POINT('',#1678);
#587=VERTEX_POINT('',#1680);
#588=VERTEX_POINT('',#1682);
#589=VERTEX_POINT('',#1684);
#590=VERTEX_POINT('',#1686);
#591=VERTEX_POINT('',#1688);
#592=VERTEX_POINT('',#1690);
#593=VERTEX_POINT('',#1692);
#594=VERTEX_POINT('',#1694);
#595=VERTEX_POINT('',#1696);
#596=VERTEX_POINT('',#1698);
#597=VERTEX_POINT('',#1702);
#598=VERTEX_POINT('',#1703);
#599=VERTEX_POINT('',#1705);
#600=VERTEX_POINT('',#1708);
#601=VERTEX_POINT('',#1710);
#602=VERTEX_POINT('',#1713);
#603=VERTEX_POINT('',#1715);
#604=VERTEX_POINT('',#1717);
#605=VERTEX_POINT('',#1721);
#606=VERTEX_POINT('',#1723);
#607=VERTEX_POINT('',#1725);
#608=VERTEX_POINT('',#1727);
#609=VERTEX_POINT('',#1729);
#610=VERTEX_POINT('',#1731);
#611=VERTEX_POINT('',#1734);
#612=VERTEX_POINT('',#1736);
#613=VERTEX_POINT('',#1740);
#614=VERTEX_POINT('',#1742);
#615=VERTEX_POINT('',#1744);
#616=VERTEX_POINT('',#1747);
#617=VERTEX_POINT('',#1749);
#618=VERTEX_POINT('',#1751);
#619=VERTEX_POINT('',#1753);
#620=VERTEX_POINT('',#1755);
#621=VERTEX_POINT('',#1759);
#622=VERTEX_POINT('',#1761);
#623=VERTEX_POINT('',#1763);
#624=VERTEX_POINT('',#1765);
#625=VERTEX_POINT('',#1767);
#626=VERTEX_POINT('',#1769);
#627=VERTEX_POINT('',#1772);
#628=VERTEX_POINT('',#1774);
#629=VERTEX_POINT('',#1778);
#630=VERTEX_POINT('',#1779);
#631=VERTEX_POINT('',#1781);
#632=VERTEX_POINT('',#1783);
#633=VERTEX_POINT('',#1787);
#634=VERTEX_POINT('',#1788);
#635=VERTEX_POINT('',#1790);
#636=VERTEX_POINT('',#1792);
#637=VERTEX_POINT('',#1796);
#638=VERTEX_POINT('',#1797);
#639=VERTEX_POINT('',#1799);
#640=VERTEX_POINT('',#1801);
#641=VERTEX_POINT('',#1824);
#642=VERTEX_POINT('',#1826);
#643=VERTEX_POINT('',#1828);
#644=VERTEX_POINT('',#1831);
#645=VERTEX_POINT('',#1833);
#646=VERTEX_POINT('',#1835);
#647=VERTEX_POINT('',#1839);
#648=VERTEX_POINT('',#1843);
#649=VERTEX_POINT('',#1851);
#650=VERTEX_POINT('',#1853);
#651=VERTEX_POINT('',#1861);
#652=VERTEX_POINT('',#1863);
#653=VERTEX_POINT('',#1875);
#654=VERTEX_POINT('',#1878);
#655=VERTEX_POINT('',#1880);
#656=VERTEX_POINT('',#1916);
#657=VERTEX_POINT('',#1923);
#658=VERTEX_POINT('',#1925);
#659=VERTEX_POINT('',#1928);
#660=LINE('',#1601,#792);
#661=LINE('',#1604,#793);
#662=LINE('',#1606,#794);
#663=LINE('',#1608,#795);
#664=LINE('',#1610,#796);
#665=LINE('',#1612,#797);
#666=LINE('',#1614,#798);
#667=LINE('',#1616,#799);
#668=LINE('',#1618,#800);
#669=LINE('',#1620,#801);
#670=LINE('',#1622,#802);
#671=LINE('',#1626,#803);
#672=LINE('',#1629,#804);
#673=LINE('',#1633,#805);
#674=LINE('',#1635,#806);
#675=LINE('',#1637,#807);
#676=LINE('',#1639,#808);
#677=LINE('',#1641,#809);
#678=LINE('',#1643,#810);
#679=LINE('',#1645,#811);
#680=LINE('',#1647,#812);
#681=LINE('',#1649,#813);
#682=LINE('',#1651,#814);
#683=LINE('',#1656,#815);
#684=LINE('',#1658,#816);
#685=LINE('',#1660,#817);
#686=LINE('',#1662,#818);
#687=LINE('',#1664,#819);
#688=LINE('',#1666,#820);
#689=LINE('',#1668,#821);
#690=LINE('',#1670,#822);
#691=LINE('',#1672,#823);
#692=LINE('',#1674,#824);
#693=LINE('',#1676,#825);
#694=LINE('',#1681,#826);
#695=LINE('',#1683,#827);
#696=LINE('',#1685,#828);
#697=LINE('',#1687,#829);
#698=LINE('',#1689,#830);
#699=LINE('',#1691,#831);
#700=LINE('',#1693,#832);
#701=LINE('',#1695,#833);
#702=LINE('',#1697,#834);
#703=LINE('',#1699,#835);
#704=LINE('',#1701,#836);
#705=LINE('',#1706,#837);
#706=LINE('',#1707,#838);
#707=LINE('',#1709,#839);
#708=LINE('',#1711,#840);
#709=LINE('',#1712,#841);
#710=LINE('',#1714,#842);
#711=LINE('',#1716,#843);
#712=LINE('',#1718,#844);
#713=LINE('',#1720,#845);
#714=LINE('',#1724,#846);
#715=LINE('',#1726,#847);
#716=LINE('',#1728,#848);
#717=LINE('',#1730,#849);
#718=LINE('',#1732,#850);
#719=LINE('',#1733,#851);
#720=LINE('',#1735,#852);
#721=LINE('',#1737,#853);
#722=LINE('',#1739,#854);
#723=LINE('',#1741,#855);
#724=LINE('',#1743,#856);
#725=LINE('',#1745,#857);
#726=LINE('',#1746,#858);
#727=LINE('',#1748,#859);
#728=LINE('',#1750,#860);
#729=LINE('',#1752,#861);
#730=LINE('',#1754,#862);
#731=LINE('',#1758,#863);
#732=LINE('',#1762,#864);
#733=LINE('',#1764,#865);
#734=LINE('',#1766,#866);
#735=LINE('',#1768,#867);
#736=LINE('',#1770,#868);
#737=LINE('',#1771,#869);
#738=LINE('',#1773,#870);
#739=LINE('',#1775,#871);
#740=LINE('',#1777,#872);
#741=LINE('',#1780,#873);
#742=LINE('',#1782,#874);
#743=LINE('',#1784,#875);
#744=LINE('',#1786,#876);
#745=LINE('',#1789,#877);
#746=LINE('',#1791,#878);
#747=LINE('',#1793,#879);
#748=LINE('',#1795,#880);
#749=LINE('',#1798,#881);
#750=LINE('',#1800,#882);
#751=LINE('',#1802,#883);
#752=LINE('',#1804,#884);
#753=LINE('',#1805,#885);
#754=LINE('',#1807,#886);
#755=LINE('',#1808,#887);
#756=LINE('',#1810,#888);
#757=LINE('',#1812,#889);
#758=LINE('',#1813,#890);
#759=LINE('',#1815,#891);
#760=LINE('',#1818,#892);
#761=LINE('',#1821,#893);
#762=LINE('',#1823,#894);
#763=LINE('',#1825,#895);
#764=LINE('',#1827,#896);
#765=LINE('',#1829,#897);
#766=LINE('',#1830,#898);
#767=LINE('',#1832,#899);
#768=LINE('',#1834,#900);
#769=LINE('',#1836,#901);
#770=LINE('',#1838,#902);
#771=LINE('',#1840,#903);
#772=LINE('',#1842,#904);
#773=LINE('',#1844,#905);
#774=LINE('',#1846,#906);
#775=LINE('',#1847,#907);
#776=LINE('',#1850,#908);
#777=LINE('',#1852,#909);
#778=LINE('',#1854,#910);
#779=LINE('',#1856,#911);
#780=LINE('',#1858,#912);
#781=LINE('',#1860,#913);
#782=LINE('',#1862,#914);
#783=LINE('',#1864,#915);
#784=LINE('',#1866,#916);
#785=LINE('',#1868,#917);
#786=LINE('',#1870,#918);
#787=LINE('',#1872,#919);
#788=LINE('',#1917,#920);
#789=LINE('',#1918,#921);
#790=LINE('',#1919,#922);
#791=LINE('',#1920,#923);
#792=VECTOR('',#1283,1.);
#793=VECTOR('',#1284,1.);
#794=VECTOR('',#1285,1.);
#795=VECTOR('',#1286,1.);
#796=VECTOR('',#1287,1.);
#797=VECTOR('',#1288,1.);
#798=VECTOR('',#1289,1.);
#799=VECTOR('',#1290,1.);
#800=VECTOR('',#1291,1.);
#801=VECTOR('',#1292,1.);
#802=VECTOR('',#1293,1.);
#803=VECTOR('',#1298,1.);
#804=VECTOR('',#1299,1.);
#805=VECTOR('',#1302,1.);
#806=VECTOR('',#1303,1.);
#807=VECTOR('',#1304,1.);
#808=VECTOR('',#1305,1.);
#809=VECTOR('',#1306,1.);
#810=VECTOR('',#1307,1.);
#811=VECTOR('',#1308,1.);
#812=VECTOR('',#1309,1.);
#813=VECTOR('',#1310,1.);
#814=VECTOR('',#1313,1.);
#815=VECTOR('',#1316,1.);
#816=VECTOR('',#1317,1.);
#817=VECTOR('',#1318,1.);
#818=VECTOR('',#1319,1.);
#819=VECTOR('',#1320,1.);
#820=VECTOR('',#1321,1.);
#821=VECTOR('',#1322,1.);
#822=VECTOR('',#1323,1.);
#823=VECTOR('',#1324,1.);
#824=VECTOR('',#1325,1.);
#825=VECTOR('',#1328,1.);
#826=VECTOR('',#1331,1.);
#827=VECTOR('',#1332,1.);
#828=VECTOR('',#1333,1.);
#829=VECTOR('',#1334,1.);
#830=VECTOR('',#1335,1.);
#831=VECTOR('',#1336,1.);
#832=VECTOR('',#1337,1.);
#833=VECTOR('',#1338,1.);
#834=VECTOR('',#1339,1.);
#835=VECTOR('',#1340,1.);
#836=VECTOR('',#1343,1.);
#837=VECTOR('',#1346,1.);
#838=VECTOR('',#1347,1.);
#839=VECTOR('',#1348,1.);
#840=VECTOR('',#1349,1.);
#841=VECTOR('',#1350,1.);
#842=VECTOR('',#1351,1.);
#843=VECTOR('',#1352,1.);
#844=VECTOR('',#1353,1.);
#845=VECTOR('',#1356,1.);
#846=VECTOR('',#1359,1.);
#847=VECTOR('',#1360,1.);
#848=VECTOR('',#1361,1.);
#849=VECTOR('',#1362,1.);
#850=VECTOR('',#1363,1.);
#851=VECTOR('',#1364,1.);
#852=VECTOR('',#1365,1.);
#853=VECTOR('',#1366,1.);
#854=VECTOR('',#1369,1.);
#855=VECTOR('',#1370,1.);
#856=VECTOR('',#1371,1.);
#857=VECTOR('',#1372,1.);
#858=VECTOR('',#1373,1.);
#859=VECTOR('',#1374,1.);
#860=VECTOR('',#1375,1.);
#861=VECTOR('',#1376,1.);
#862=VECTOR('',#1377,1.);
#863=VECTOR('',#1382,1.);
#864=VECTOR('',#1385,1.);
#865=VECTOR('',#1386,1.);
#866=VECTOR('',#1387,1.);
#867=VECTOR('',#1388,1.);
#868=VECTOR('',#1389,1.);
#869=VECTOR('',#1390,1.);
#870=VECTOR('',#1391,1.);
#871=VECTOR('',#1392,1.);
#872=VECTOR('',#1395,1.);
#873=VECTOR('',#1396,1.);
#874=VECTOR('',#1397,1.);
#875=VECTOR('',#1398,1.);
#876=VECTOR('',#1401,1.);
#877=VECTOR('',#1402,1.);
#878=VECTOR('',#1403,1.);
#879=VECTOR('',#1404,1.);
#880=VECTOR('',#1407,1.);
#881=VECTOR('',#1408,1.);
#882=VECTOR('',#1409,1.);
#883=VECTOR('',#1410,1.);
#884=VECTOR('',#1413,1.);
#885=VECTOR('',#1414,1.);
#886=VECTOR('',#1417,1.);
#887=VECTOR('',#1418,1.);
#888=VECTOR('',#1421,1.);
#889=VECTOR('',#1424,1.);
#890=VECTOR('',#1425,1.);
#891=VECTOR('',#1428,1.);
#892=VECTOR('',#1433,1.);
#893=VECTOR('',#1438,1.);
#894=VECTOR('',#1441,1.);
#895=VECTOR('',#1442,1.);
#896=VECTOR('',#1443,1.);
#897=VECTOR('',#1444,1.);
#898=VECTOR('',#1445,1.);
#899=VECTOR('',#1446,1.);
#900=VECTOR('',#1447,1.);
#901=VECTOR('',#1448,1.);
#902=VECTOR('',#1451,1.);
#903=VECTOR('',#1452,1.);
#904=VECTOR('',#1455,1.);
#905=VECTOR('',#1456,1.);
#906=VECTOR('',#1459,1.);
#907=VECTOR('',#1460,1.);
#908=VECTOR('',#1465,1.);
#909=VECTOR('',#1466,1.);
#910=VECTOR('',#1467,1.);
#911=VECTOR('',#1470,1.);
#912=VECTOR('',#1473,1.);
#913=VECTOR('',#1476,1.);
#914=VECTOR('',#1477,1.);
#915=VECTOR('',#1478,1.);
#916=VECTOR('',#1481,1.);
#917=VECTOR('',#1484,1.);
#918=VECTOR('',#1487,1.);
#919=VECTOR('',#1490,1.);
#920=VECTOR('',#1571,1.);
#921=VECTOR('',#1572,1.);
#922=VECTOR('',#1573,1.);
#923=VECTOR('',#1574,1.);
#924=EDGE_LOOP('',(#60,#61,#62,#63,#64,#65,#66,#67,#68,#69,#70,#71));
#925=EDGE_LOOP('',(#72,#73,#74,#75,#76,#77,#78,#79,#80,#81,#82,#83));
#926=EDGE_LOOP('',(#84,#85,#86,#87,#88,#89,#90,#91,#92,#93,#94,#95));
#927=EDGE_LOOP('',(#96,#97,#98,#99,#100,#101,#102,#103,#104,#105,#106,#107));
#928=EDGE_LOOP('',(#108,#109,#110,#111,#112,#113,#114,#115,#116,#117,#118,
#119));
#929=EDGE_LOOP('',(#120,#121,#122,#123,#124,#125,#126,#127,#128,#129,#130,
#131));
#930=EDGE_LOOP('',(#132,#133,#134,#135,#136,#137,#138,#139,#140,#141,#142,
#143));
#931=EDGE_LOOP('',(#144,#145,#146,#147,#148,#149,#150,#151,#152,#153,#154,
#155));
#932=EDGE_LOOP('',(#156,#157,#158,#159));
#933=EDGE_LOOP('',(#160,#161,#162,#163));
#934=EDGE_LOOP('',(#164,#165,#166,#167));
#935=EDGE_LOOP('',(#168,#169,#170,#171));
#936=EDGE_LOOP('',(#172,#173,#174,#175));
#937=EDGE_LOOP('',(#176,#177,#178,#179));
#938=EDGE_LOOP('',(#180,#181,#182,#183));
#939=EDGE_LOOP('',(#184,#185,#186,#187));
#940=EDGE_LOOP('',(#188,#189,#190,#191,#192,#193,#194,#195,#196,#197,#198,
#199,#200,#201,#202,#203));
#941=EDGE_LOOP('',(#204,#205,#206,#207,#208,#209,#210,#211,#212,#213,#214,
#215));
#942=EDGE_LOOP('',(#216,#217,#218,#219));
#943=EDGE_LOOP('',(#220,#221,#222,#223));
#944=EDGE_LOOP('',(#224,#225,#226,#227));
#945=EDGE_LOOP('',(#228,#229,#230,#231));
#946=EDGE_LOOP('',(#232,#233,#234,#235));
#947=EDGE_LOOP('',(#236,#237,#238,#239));
#948=EDGE_LOOP('',(#240,#241,#242,#243));
#949=EDGE_LOOP('',(#244,#245,#246,#247));
#950=EDGE_LOOP('',(#248,#249,#250,#251));
#951=EDGE_LOOP('',(#252,#253,#254,#255));
#952=EDGE_LOOP('',(#256,#257,#258,#259));
#953=EDGE_LOOP('',(#260,#261,#262,#263));
#954=EDGE_LOOP('',(#264));
#955=EDGE_LOOP('',(#265,#266,#267,#268,#269,#270,#271,#272,#273,#274,#275,
#276));
#956=EDGE_LOOP('',(#277));
#957=EDGE_LOOP('',(#278));
#958=EDGE_LOOP('',(#279));
#959=EDGE_LOOP('',(#280,#281,#282,#283));
#960=EDGE_LOOP('',(#284,#285,#286));
#961=EDGE_LOOP('',(#287,#288,#289,#290));
#962=EDGE_LOOP('',(#291,#292,#293));
#963=EDGE_LOOP('',(#294,#295,#296,#297));
#964=EDGE_LOOP('',(#298,#299,#300));
#965=EDGE_LOOP('',(#301,#302,#303));
#966=EDGE_LOOP('',(#304,#305,#306,#307));
#967=EDGE_LOOP('',(#308,#309,#310));
#968=EDGE_LOOP('',(#311,#312,#313,#314));
#969=EDGE_LOOP('',(#315,#316,#317));
#970=EDGE_LOOP('',(#318,#319,#320));
#971=EDGE_LOOP('',(#321,#322,#323,#324));
#972=EDGE_LOOP('',(#325,#326,#327));
#973=EDGE_LOOP('',(#328,#329,#330));
#974=EDGE_LOOP('',(#331,#332,#333,#334));
#975=EDGE_LOOP('',(#335,#336,#337));
#976=EDGE_LOOP('',(#338,#339,#340));
#977=EDGE_LOOP('',(#341,#342,#343,#344));
#978=EDGE_LOOP('',(#345,#346,#347));
#979=EDGE_LOOP('',(#348));
#980=EDGE_LOOP('',(#349,#350,#351,#352,#353,#354,#355,#356,#357,#358,#359,
#360));
#981=EDGE_LOOP('',(#361));
#982=EDGE_LOOP('',(#362));
#983=EDGE_LOOP('',(#363));
#984=EDGE_LOOP('',(#364));
#985=EDGE_LOOP('',(#365));
#986=EDGE_LOOP('',(#366,#367,#368,#369));
#987=EDGE_LOOP('',(#370,#371,#372,#373));
#988=EDGE_LOOP('',(#374,#375,#376,#377));
#989=EDGE_LOOP('',(#378,#379,#380,#381));
#990=EDGE_LOOP('',(#382));
#991=EDGE_LOOP('',(#383));
#992=EDGE_LOOP('',(#384));
#993=EDGE_LOOP('',(#385));
#994=FACE_BOUND('',#924,.T.);
#995=FACE_BOUND('',#925,.T.);
#996=FACE_BOUND('',#926,.T.);
#997=FACE_BOUND('',#927,.T.);
#998=FACE_BOUND('',#928,.T.);
#999=FACE_BOUND('',#929,.T.);
#1000=FACE_BOUND('',#930,.T.);
#1001=FACE_BOUND('',#931,.T.);
#1002=FACE_BOUND('',#932,.T.);
#1003=FACE_BOUND('',#933,.T.);
#1004=FACE_BOUND('',#934,.T.);
#1005=FACE_BOUND('',#935,.T.);
#1006=FACE_BOUND('',#936,.T.);
#1007=FACE_BOUND('',#937,.T.);
#1008=FACE_BOUND('',#938,.T.);
#1009=FACE_BOUND('',#939,.T.);
#1010=FACE_BOUND('',#940,.T.);
#1011=FACE_BOUND('',#941,.T.);
#1012=FACE_BOUND('',#942,.T.);
#1013=FACE_BOUND('',#943,.T.);
#1014=FACE_BOUND('',#944,.T.);
#1015=FACE_BOUND('',#945,.T.);
#1016=FACE_BOUND('',#946,.T.);
#1017=FACE_BOUND('',#947,.T.);
#1018=FACE_BOUND('',#948,.T.);
#1019=FACE_BOUND('',#949,.T.);
#1020=FACE_BOUND('',#950,.T.);
#1021=FACE_BOUND('',#951,.T.);
#1022=FACE_BOUND('',#952,.T.);
#1023=FACE_BOUND('',#953,.T.);
#1024=FACE_BOUND('',#954,.T.);
#1025=FACE_BOUND('',#955,.T.);
#1026=FACE_BOUND('',#956,.T.);
#1027=FACE_BOUND('',#957,.T.);
#1028=FACE_BOUND('',#958,.T.);
#1029=FACE_BOUND('',#959,.T.);
#1030=FACE_BOUND('',#960,.T.);
#1031=FACE_BOUND('',#961,.T.);
#1032=FACE_BOUND('',#962,.T.);
#1033=FACE_BOUND('',#963,.T.);
#1034=FACE_BOUND('',#964,.T.);
#1035=FACE_BOUND('',#965,.T.);
#1036=FACE_BOUND('',#966,.T.);
#1037=FACE_BOUND('',#967,.T.);
#1038=FACE_BOUND('',#968,.T.);
#1039=FACE_BOUND('',#969,.T.);
#1040=FACE_BOUND('',#970,.T.);
#1041=FACE_BOUND('',#971,.T.);
#1042=FACE_BOUND('',#972,.T.);
#1043=FACE_BOUND('',#973,.T.);
#1044=FACE_BOUND('',#974,.T.);
#1045=FACE_BOUND('',#975,.T.);
#1046=FACE_BOUND('',#976,.T.);
#1047=FACE_BOUND('',#977,.T.);
#1048=FACE_BOUND('',#978,.T.);
#1049=FACE_BOUND('',#979,.T.);
#1050=FACE_BOUND('',#980,.T.);
#1051=FACE_BOUND('',#981,.T.);
#1052=FACE_BOUND('',#982,.T.);
#1053=FACE_BOUND('',#983,.T.);
#1054=FACE_BOUND('',#984,.T.);
#1055=FACE_BOUND('',#985,.T.);
#1056=FACE_BOUND('',#986,.T.);
#1057=FACE_BOUND('',#987,.T.);
#1058=FACE_BOUND('',#988,.T.);
#1059=FACE_BOUND('',#989,.T.);
#1060=FACE_BOUND('',#990,.T.);
#1061=FACE_BOUND('',#991,.T.);
#1062=FACE_BOUND('',#992,.T.);
#1063=FACE_BOUND('',#993,.T.);
#1064=PLANE('',#1186);
#1065=PLANE('',#1188);
#1066=PLANE('',#1190);
#1067=PLANE('',#1192);
#1068=PLANE('',#1194);
#1069=PLANE('',#1196);
#1070=PLANE('',#1198);
#1071=PLANE('',#1200);
#1072=PLANE('',#1202);
#1073=PLANE('',#1203);
#1074=PLANE('',#1204);
#1075=PLANE('',#1205);
#1076=PLANE('',#1206);
#1077=PLANE('',#1207);
#1078=PLANE('',#1208);
#1079=PLANE('',#1209);
#1080=PLANE('',#1210);
#1081=PLANE('',#1215);
#1082=PLANE('',#1216);
#1083=PLANE('',#1217);
#1084=PLANE('',#1218);
#1085=PLANE('',#1219);
#1086=PLANE('',#1220);
#1087=PLANE('',#1221);
#1088=PLANE('',#1222);
#1089=PLANE('',#1223);
#1090=PLANE('',#1224);
#1091=PLANE('',#1225);
#1092=PLANE('',#1226);
#1093=PLANE('',#1227);
#1094=PLANE('',#1232);
#1095=PLANE('',#1235);
#1096=PLANE('',#1238);
#1097=PLANE('',#1241);
#1098=PLANE('',#1242);
#1099=PLANE('',#1245);
#1100=PLANE('',#1249);
#1101=PLANE('',#1250);
#1102=PLANE('',#1254);
#1103=PLANE('',#1255);
#1104=PLANE('',#1259);
#1105=PLANE('',#1260);
#1106=PLANE('',#1264);
#1107=PLANE('',#1265);
#1108=PLANE('',#1270);
#1109=ADVANCED_FACE('',(#994),#1064,.T.);
#1110=ADVANCED_FACE('',(#995),#1065,.F.);
#1111=ADVANCED_FACE('',(#996),#1066,.T.);
#1112=ADVANCED_FACE('',(#997),#1067,.F.);
#1113=ADVANCED_FACE('',(#998),#1068,.F.);
#1114=ADVANCED_FACE('',(#999),#1069,.T.);
#1115=ADVANCED_FACE('',(#1000),#1070,.T.);
#1116=ADVANCED_FACE('',(#1001),#1071,.F.);
#1117=ADVANCED_FACE('',(#1002),#1072,.T.);
#1118=ADVANCED_FACE('',(#1003),#1073,.F.);
#1119=ADVANCED_FACE('',(#1004),#1074,.F.);
#1120=ADVANCED_FACE('',(#1005),#1075,.F.);
#1121=ADVANCED_FACE('',(#1006),#1076,.F.);
#1122=ADVANCED_FACE('',(#1007),#1077,.F.);
#1123=ADVANCED_FACE('',(#1008),#1078,.F.);
#1124=ADVANCED_FACE('',(#1009),#1079,.F.);
#1125=ADVANCED_FACE('',(#1010,#1011),#1080,.F.);
#1126=ADVANCED_FACE('',(#1012),#1081,.T.);
#1127=ADVANCED_FACE('',(#1013),#1082,.F.);
#1128=ADVANCED_FACE('',(#1014),#1083,.F.);
#1129=ADVANCED_FACE('',(#1015),#1084,.F.);
#1130=ADVANCED_FACE('',(#1016),#1085,.F.);
#1131=ADVANCED_FACE('',(#1017),#1086,.F.);
#1132=ADVANCED_FACE('',(#1018),#1087,.T.);
#1133=ADVANCED_FACE('',(#1019),#1088,.F.);
#1134=ADVANCED_FACE('',(#1020),#1089,.F.);
#1135=ADVANCED_FACE('',(#1021),#1090,.F.);
#1136=ADVANCED_FACE('',(#1022),#1091,.T.);
#1137=ADVANCED_FACE('',(#1023),#1092,.F.);
#1138=ADVANCED_FACE('',(#1024,#1025),#1093,.T.);
#1139=ADVANCED_FACE('',(#1026,#1027),#15,.T.);
#1140=ADVANCED_FACE('',(#1028),#1094,.F.);
#1141=ADVANCED_FACE('',(#1029),#16,.T.);
#1142=ADVANCED_FACE('',(#1030),#1095,.T.);
#1143=ADVANCED_FACE('',(#1031),#17,.T.);
#1144=ADVANCED_FACE('',(#1032),#1096,.T.);
#1145=ADVANCED_FACE('',(#1033),#18,.T.);
#1146=ADVANCED_FACE('',(#1034),#1097,.T.);
#1147=ADVANCED_FACE('',(#1035),#1098,.T.);
#1148=ADVANCED_FACE('',(#1036),#19,.T.);
#1149=ADVANCED_FACE('',(#1037),#1099,.T.);
#1150=ADVANCED_FACE('',(#1038),#20,.T.);
#1151=ADVANCED_FACE('',(#1039),#1100,.T.);
#1152=ADVANCED_FACE('',(#1040),#1101,.T.);
#1153=ADVANCED_FACE('',(#1041),#21,.T.);
#1154=ADVANCED_FACE('',(#1042),#1102,.T.);
#1155=ADVANCED_FACE('',(#1043),#1103,.T.);
#1156=ADVANCED_FACE('',(#1044),#22,.T.);
#1157=ADVANCED_FACE('',(#1045),#1104,.T.);
#1158=ADVANCED_FACE('',(#1046),#1105,.T.);
#1159=ADVANCED_FACE('',(#1047),#23,.T.);
#1160=ADVANCED_FACE('',(#1048),#1106,.T.);
#1161=ADVANCED_FACE('',(#1049,#1050),#1107,.T.);
#1162=ADVANCED_FACE('',(#1051,#1052),#24,.T.);
#1163=ADVANCED_FACE('',(#1053),#1108,.F.);
#1164=ADVANCED_FACE('',(#1054,#1055),#14,.T.);
#1165=ADVANCED_FACE('',(#1056),#25,.F.);
#1166=ADVANCED_FACE('',(#1057),#26,.F.);
#1167=ADVANCED_FACE('',(#1058),#27,.F.);
#1168=ADVANCED_FACE('',(#1059),#28,.F.);
#1169=ADVANCED_FACE('',(#1060,#1061),#12,.T.);
#1170=ADVANCED_FACE('',(#1062,#1063),#13,.T.);
#1171=CLOSED_SHELL('',(#1109,#1110,#1111,#1112,#1113,#1114,#1115,#1116,
#1117,#1118,#1119,#1120,#1121,#1122,#1123,#1124,#1125,#1126,#1127,#1128,
#1129,#1130,#1131,#1132,#1133,#1134,#1135,#1136,#1137,#1138,#1139,#1140,
#1141,#1142,#1143,#1144,#1145,#1146,#1147,#1148,#1149,#1150,#1151,#1152,
#1153,#1154,#1155,#1156,#1157,#1158,#1159,#1160,#1161,#1162,#1163,#1164,
#1165,#1166,#1167,#1168,#1169,#1170));
#1172=STYLED_ITEM('',(#1173),#1182);
#1173=PRESENTATION_STYLE_ASSIGNMENT((#1174));
#1174=SURFACE_STYLE_USAGE(.BOTH.,#1175);
#1175=SURFACE_SIDE_STYLE('',(#1178,#1176));
#1176=SURFACE_STYLE_RENDERING_WITH_PROPERTIES(.CONSTANT_SHADING.,#1181,
(#1177));
#1177=SURFACE_STYLE_TRANSPARENT(0.501960784313726);
#1178=SURFACE_STYLE_FILL_AREA(#1179);
#1179=FILL_AREA_STYLE('',(#1180));
#1180=FILL_AREA_STYLE_COLOUR('',#1181);
#1181=DRAUGHTING_PRE_DEFINED_COLOUR('white');
#1182=MANIFOLD_SOLID_BREP('Part 1',#1171);
#1183=SHAPE_DEFINITION_REPRESENTATION(#1942,#1184);
#1184=SHAPE_REPRESENTATION('Part 1',(#1185),#1937);
#1185=AXIS2_PLACEMENT_3D('',#1599,#1279,#1280);
#1186=AXIS2_PLACEMENT_3D('',#1600,#1281,#1282);
#1187=AXIS2_PLACEMENT_3D('',#1624,#1294,#1295);
#1188=AXIS2_PLACEMENT_3D('',#1625,#1296,#1297);
#1189=AXIS2_PLACEMENT_3D('',#1631,#1300,#1301);
#1190=AXIS2_PLACEMENT_3D('',#1650,#1311,#1312);
#1191=AXIS2_PLACEMENT_3D('',#1654,#1314,#1315);
#1192=AXIS2_PLACEMENT_3D('',#1675,#1326,#1327);
#1193=AXIS2_PLACEMENT_3D('',#1679,#1329,#1330);
#1194=AXIS2_PLACEMENT_3D('',#1700,#1341,#1342);
#1195=AXIS2_PLACEMENT_3D('',#1704,#1344,#1345);
#1196=AXIS2_PLACEMENT_3D('',#1719,#1354,#1355);
#1197=AXIS2_PLACEMENT_3D('',#1722,#1357,#1358);
#1198=AXIS2_PLACEMENT_3D('',#1738,#1367,#1368);
#1199=AXIS2_PLACEMENT_3D('',#1756,#1378,#1379);
#1200=AXIS2_PLACEMENT_3D('',#1757,#1380,#1381);
#1201=AXIS2_PLACEMENT_3D('',#1760,#1383,#1384);
#1202=AXIS2_PLACEMENT_3D('',#1776,#1393,#1394);
#1203=AXIS2_PLACEMENT_3D('',#1785,#1399,#1400);
#1204=AXIS2_PLACEMENT_3D('',#1794,#1405,#1406);
#1205=AXIS2_PLACEMENT_3D('',#1803,#1411,#1412);
#1206=AXIS2_PLACEMENT_3D('',#1806,#1415,#1416);
#1207=AXIS2_PLACEMENT_3D('',#1809,#1419,#1420);
#1208=AXIS2_PLACEMENT_3D('',#1811,#1422,#1423);
#1209=AXIS2_PLACEMENT_3D('',#1814,#1426,#1427);
#1210=AXIS2_PLACEMENT_3D('',#1816,#1429,#1430);
#1211=AXIS2_PLACEMENT_3D('',#1817,#1431,#1432);
#1212=AXIS2_PLACEMENT_3D('',#1819,#1434,#1435);
#1213=AXIS2_PLACEMENT_3D('',#1820,#1436,#1437);
#1214=AXIS2_PLACEMENT_3D('',#1822,#1439,#1440);
#1215=AXIS2_PLACEMENT_3D('',#1837,#1449,#1450);
#1216=AXIS2_PLACEMENT_3D('',#1841,#1453,#1454);
#1217=AXIS2_PLACEMENT_3D('',#1845,#1457,#1458);
#1218=AXIS2_PLACEMENT_3D('',#1848,#1461,#1462);
#1219=AXIS2_PLACEMENT_3D('',#1849,#1463,#1464);
#1220=AXIS2_PLACEMENT_3D('',#1855,#1468,#1469);
#1221=AXIS2_PLACEMENT_3D('',#1857,#1471,#1472);
#1222=AXIS2_PLACEMENT_3D('',#1859,#1474,#1475);
#1223=AXIS2_PLACEMENT_3D('',#1865,#1479,#1480);
#1224=AXIS2_PLACEMENT_3D('',#1867,#1482,#1483);
#1225=AXIS2_PLACEMENT_3D('',#1869,#1485,#1486);
#1226=AXIS2_PLACEMENT_3D('',#1871,#1488,#1489);
#1227=AXIS2_PLACEMENT_3D('',#1873,#1491,#1492);
#1228=AXIS2_PLACEMENT_3D('',#1874,#1493,#1494);
#1229=AXIS2_PLACEMENT_3D('',#1876,#1495,#1496);
#1230=AXIS2_PLACEMENT_3D('',#1877,#1497,#1498);
#1231=AXIS2_PLACEMENT_3D('',#1879,#1499,#1500);
#1232=AXIS2_PLACEMENT_3D('',#1881,#1501,#1502);
#1233=AXIS2_PLACEMENT_3D('',#1882,#1503,#1504);
#1234=AXIS2_PLACEMENT_3D('',#1883,#1505,#1506);
#1235=AXIS2_PLACEMENT_3D('',#1884,#1507,#1508);
#1236=AXIS2_PLACEMENT_3D('',#1885,#1509,#1510);
#1237=AXIS2_PLACEMENT_3D('',#1886,#1511,#1512);
#1238=AXIS2_PLACEMENT_3D('',#1887,#1513,#1514);
#1239=AXIS2_PLACEMENT_3D('',#1888,#1515,#1516);
#1240=AXIS2_PLACEMENT_3D('',#1889,#1517,#1518);
#1241=AXIS2_PLACEMENT_3D('',#1890,#1519,#1520);
#1242=AXIS2_PLACEMENT_3D('',#1891,#1521,#1522);
#1243=AXIS2_PLACEMENT_3D('',#1892,#1523,#1524);
#1244=AXIS2_PLACEMENT_3D('',#1893,#1525,#1526);
#1245=AXIS2_PLACEMENT_3D('',#1894,#1527,#1528);
#1246=AXIS2_PLACEMENT_3D('',#1895,#1529,#1530);
#1247=AXIS2_PLACEMENT_3D('',#1896,#1531,#1532);
#1248=AXIS2_PLACEMENT_3D('',#1897,#1533,#1534);
#1249=AXIS2_PLACEMENT_3D('',#1898,#1535,#1536);
#1250=AXIS2_PLACEMENT_3D('',#1899,#1537,#1538);
#1251=AXIS2_PLACEMENT_3D('',#1900,#1539,#1540);
#1252=AXIS2_PLACEMENT_3D('',#1901,#1541,#1542);
#1253=AXIS2_PLACEMENT_3D('',#1902,#1543,#1544);
#1254=AXIS2_PLACEMENT_3D('',#1903,#1545,#1546);
#1255=AXIS2_PLACEMENT_3D('',#1904,#1547,#1548);
#1256=AXIS2_PLACEMENT_3D('',#1905,#1549,#1550);
#1257=AXIS2_PLACEMENT_3D('',#1906,#1551,#1552);
#1258=AXIS2_PLACEMENT_3D('',#1907,#1553,#1554);
#1259=AXIS2_PLACEMENT_3D('',#1908,#1555,#1556);
#1260=AXIS2_PLACEMENT_3D('',#1909,#1557,#1558);
#1261=AXIS2_PLACEMENT_3D('',#1910,#1559,#1560);
#1262=AXIS2_PLACEMENT_3D('',#1911,#1561,#1562);
#1263=AXIS2_PLACEMENT_3D('',#1912,#1563,#1564);
#1264=AXIS2_PLACEMENT_3D('',#1913,#1565,#1566);
#1265=AXIS2_PLACEMENT_3D('',#1914,#1567,#1568);
#1266=AXIS2_PLACEMENT_3D('',#1915,#1569,#1570);
#1267=AXIS2_PLACEMENT_3D('',#1921,#1575,#1576);
#1268=AXIS2_PLACEMENT_3D('',#1922,#1577,#1578);
#1269=AXIS2_PLACEMENT_3D('',#1924,#1579,#1580);
#1270=AXIS2_PLACEMENT_3D('',#1926,#1581,#1582);
#1271=AXIS2_PLACEMENT_3D('',#1927,#1583,#1584);
#1272=AXIS2_PLACEMENT_3D('',#1929,#1585,#1586);
#1273=AXIS2_PLACEMENT_3D('',#1930,#1587,#1588);
#1274=AXIS2_PLACEMENT_3D('',#1931,#1589,#1590);
#1275=AXIS2_PLACEMENT_3D('',#1932,#1591,#1592);
#1276=AXIS2_PLACEMENT_3D('',#1933,#1593,#1594);
#1277=AXIS2_PLACEMENT_3D('',#1934,#1595,#1596);
#1278=AXIS2_PLACEMENT_3D('',#1935,#1597,#1598);
#1279=DIRECTION('',(0.,0.,1.));
#1280=DIRECTION('',(1.,0.,0.));
#1281=DIRECTION('',(0.,0.,1.));
#1282=DIRECTION('',(1.,0.,0.));
#1283=DIRECTION('',(1.,3.49148336110938E-15,0.));
#1284=DIRECTION('',(0.,-1.,0.));
#1285=DIRECTION('',(-1.,-3.49148336110938E-15,0.));
#1286=DIRECTION('',(3.49148336110938E-15,-1.,0.));
#1287=DIRECTION('',(1.,3.49148336110938E-15,0.));
#1288=DIRECTION('',(0.,-1.,0.));
#1289=DIRECTION('',(-1.,-3.49148336110938E-15,0.));
#1290=DIRECTION('',(3.49148336110938E-15,-1.,0.));
#1291=DIRECTION('',(1.,0.,0.));
#1292=DIRECTION('',(0.,1.,0.));
#1293=DIRECTION('',(-0.196116135138184,0.98058067569092,0.));
#1294=DIRECTION('',(0.,0.,1.));
#1295=DIRECTION('',(1.,0.,0.));
#1296=DIRECTION('',(0.,0.,1.));
#1297=DIRECTION('',(1.,0.,0.));
#1298=DIRECTION('',(0.,-1.,0.));
#1299=DIRECTION('',(1.,3.49148336110938E-15,0.));
#1300=DIRECTION('',(0.,0.,1.));
#1301=DIRECTION('',(1.,0.,0.));
#1302=DIRECTION('',(-0.196116135138184,0.98058067569092,0.));
#1303=DIRECTION('',(0.,1.,0.));
#1304=DIRECTION('',(1.,0.,0.));
#1305=DIRECTION('',(3.49148336110938E-15,-1.,0.));
#1306=DIRECTION('',(-1.,-3.49148336110938E-15,0.));
#1307=DIRECTION('',(0.,-1.,0.));
#1308=DIRECTION('',(1.,3.49148336110938E-15,0.));
#1309=DIRECTION('',(3.49148336110938E-15,-1.,0.));
#1310=DIRECTION('',(-1.,-3.49148336110938E-15,0.));
#1311=DIRECTION('',(0.,0.,1.));
#1312=DIRECTION('',(1.,0.,0.));
#1313=DIRECTION('',(1.,3.49148336110938E-15,0.));
#1314=DIRECTION('',(0.,0.,1.));
#1315=DIRECTION('',(1.,0.,0.));
#1316=DIRECTION('',(-0.196116135138184,-0.98058067569092,0.));
#1317=DIRECTION('',(0.,-1.,0.));
#1318=DIRECTION('',(1.,0.,0.));
#1319=DIRECTION('',(3.49148336110938E-15,-1.,0.));
#1320=DIRECTION('',(-1.,-3.49148336110938E-15,0.));
#1321=DIRECTION('',(0.,-1.,0.));
#1322=DIRECTION('',(1.,3.49148336110938E-15,0.));
#1323=DIRECTION('',(3.49148336110938E-15,-1.,0.));
#1324=DIRECTION('',(-1.,-3.49148336110938E-15,0.));
#1325=DIRECTION('',(0.,-1.,0.));
#1326=DIRECTION('',(0.,0.,1.));
#1327=DIRECTION('',(1.,0.,0.));
#1328=DIRECTION('',(-0.196116135138184,-0.98058067569092,0.));
#1329=DIRECTION('',(0.,0.,1.));
#1330=DIRECTION('',(1.,0.,0.));
#1331=DIRECTION('',(1.,3.49148336110938E-15,0.));
#1332=DIRECTION('',(0.,-1.,0.));
#1333=DIRECTION('',(-1.,-3.49148336110938E-15,0.));
#1334=DIRECTION('',(3.49148336110938E-15,-1.,0.));
#1335=DIRECTION('',(1.,3.49148336110938E-15,0.));
#1336=DIRECTION('',(0.,-1.,0.));
#1337=DIRECTION('',(-1.,-3.49148336110938E-15,0.));
#1338=DIRECTION('',(3.49148336110938E-15,-1.,0.));
#1339=DIRECTION('',(1.,0.,0.));
#1340=DIRECTION('',(0.,-1.,0.));
#1341=DIRECTION('',(-1.,0.,-3.49148133884313E-15));
#1342=DIRECTION('',(-3.49148133884313E-15,0.,1.));
#1343=DIRECTION('',(6.84735826081007E-16,-0.98058067569092,-0.196116135138184));
#1344=DIRECTION('',(-1.,0.,-3.49148133884313E-15));
#1345=DIRECTION('',(-3.49148133884313E-15,0.,1.));
#1346=DIRECTION('',(-3.49148133884313E-15,-1.21904490001947E-29,1.));
#1347=DIRECTION('',(3.49148133884313E-15,1.21904490001947E-29,-1.));
#1348=DIRECTION('',(3.49148336110938E-15,-1.,0.));
#1349=DIRECTION('',(-3.49148133884313E-15,-1.21904490001947E-29,1.));
#1350=DIRECTION('',(3.49148133884313E-15,1.21904490001947E-29,-1.));
#1351=DIRECTION('',(3.49148336110938E-15,-1.,0.));
#1352=DIRECTION('',(-3.49148133884313E-15,0.,1.));
#1353=DIRECTION('',(0.,-1.,0.));
#1354=DIRECTION('',(-1.,0.,-3.49148133884313E-15));
#1355=DIRECTION('',(-3.49148133884313E-15,0.,1.));
#1356=DIRECTION('',(-3.49148133884313E-15,-1.21904490001947E-29,1.));
#1357=DIRECTION('',(-1.,0.,-3.49148133884313E-15));
#1358=DIRECTION('',(-3.49148133884313E-15,0.,1.));
#1359=DIRECTION('',(6.84735826081007E-16,-0.98058067569092,-0.196116135138184));
#1360=DIRECTION('',(0.,-1.,0.));
#1361=DIRECTION('',(-3.49148133884313E-15,0.,1.));
#1362=DIRECTION('',(3.49148336110938E-15,-1.,0.));
#1363=DIRECTION('',(3.49148133884313E-15,1.21904490001947E-29,-1.));
#1364=DIRECTION('',(-3.49148133884313E-15,-1.21904490001947E-29,1.));
#1365=DIRECTION('',(3.49148336110938E-15,-1.,0.));
#1366=DIRECTION('',(3.49148133884313E-15,1.21904490001947E-29,-1.));
#1367=DIRECTION('',(-1.,0.,-3.49148133884313E-15));
#1368=DIRECTION('',(-3.49148133884313E-15,0.,1.));
#1369=DIRECTION('',(-3.49148133884313E-15,-1.21904490001947E-29,1.));
#1370=DIRECTION('',(3.49148133884313E-15,1.21904490001947E-29,-1.));
#1371=DIRECTION('',(3.49148336110938E-15,-1.,0.));
#1372=DIRECTION('',(-3.49148133884313E-15,-1.21904490001947E-29,1.));
#1373=DIRECTION('',(3.49148133884313E-15,1.21904490001947E-29,-1.));
#1374=DIRECTION('',(3.49148336110938E-15,-1.,0.));
#1375=DIRECTION('',(-3.49148133884313E-15,0.,1.));
#1376=DIRECTION('',(0.,1.,0.));
#1377=DIRECTION('',(6.84735826081007E-16,0.98058067569092,-0.196116135138184));
#1378=DIRECTION('',(-1.,0.,-3.49148133884313E-15));
#1379=DIRECTION('',(-3.49148133884313E-15,0.,1.));
#1380=DIRECTION('',(-1.,0.,-3.49148133884313E-15));
#1381=DIRECTION('',(-3.49148133884313E-15,0.,1.));
#1382=DIRECTION('',(-3.49148133884313E-15,-1.21904490001947E-29,1.));
#1383=DIRECTION('',(-1.,0.,-3.49148133884313E-15));
#1384=DIRECTION('',(-3.49148133884313E-15,0.,1.));
#1385=DIRECTION('',(6.84735826081007E-16,0.98058067569092,-0.196116135138184));
#1386=DIRECTION('',(0.,1.,0.));
#1387=DIRECTION('',(-3.49148133884313E-15,0.,1.));
#1388=DIRECTION('',(3.49148336110938E-15,-1.,0.));
#1389=DIRECTION('',(3.49148133884313E-15,1.21904490001947E-29,-1.));
#1390=DIRECTION('',(-3.49148133884313E-15,-1.21904490001947E-29,1.));
#1391=DIRECTION('',(3.49148336110938E-15,-1.,0.));
#1392=DIRECTION('',(3.49148133884313E-15,1.21904490001947E-29,-1.));
#1393=DIRECTION('',(0.,0.,1.));
#1394=DIRECTION('',(1.,0.,0.));
#1395=DIRECTION('',(1.,3.49148336110938E-15,0.));
#1396=DIRECTION('',(0.,-1.,0.));
#1397=DIRECTION('',(-1.,-3.49148336110938E-15,0.));
#1398=DIRECTION('',(0.,1.,0.));
#1399=DIRECTION('',(0.,0.,1.));
#1400=DIRECTION('',(1.,0.,0.));
#1401=DIRECTION('',(0.,-1.,0.));
#1402=DIRECTION('',(1.,3.49148336110938E-15,0.));
#1403=DIRECTION('',(0.,1.,0.));
#1404=DIRECTION('',(-1.,-3.49148336110938E-15,0.));
#1405=DIRECTION('',(1.,0.,0.));
#1406=DIRECTION('',(0.,0.,-1.));
#1407=DIRECTION('',(0.,-1.,0.));
#1408=DIRECTION('',(0.,0.,1.));
#1409=DIRECTION('',(0.,-1.,0.));
#1410=DIRECTION('',(0.,0.,-1.));
#1411=DIRECTION('',(-1.,0.,0.));
#1412=DIRECTION('',(0.,0.,1.));
#1413=DIRECTION('',(0.,0.,-1.));
#1414=DIRECTION('',(0.,0.,-1.));
#1415=DIRECTION('',(-1.,0.,0.));
#1416=DIRECTION('',(0.,0.,1.));
#1417=DIRECTION('',(0.,0.,-1.));
#1418=DIRECTION('',(0.,0.,-1.));
#1419=DIRECTION('',(-0.98058067569092,-0.196116135138184,0.));
#1420=DIRECTION('',(0.196116135138184,-0.98058067569092,0.));
#1421=DIRECTION('',(0.,0.,1.));
#1422=DIRECTION('',(0.98058067569092,-0.196116135138184,0.));
#1423=DIRECTION('',(0.196116135138184,0.98058067569092,0.));
#1424=DIRECTION('',(0.,0.,-1.));
#1425=DIRECTION('',(0.,0.,-1.));
#1426=DIRECTION('',(1.,0.,0.));
#1427=DIRECTION('',(0.,0.,-1.));
#1428=DIRECTION('',(0.,0.,-1.));
#1429=DIRECTION('',(0.,1.,0.));
#1430=DIRECTION('',(0.,0.,1.));
#1431=DIRECTION('',(3.49148336110938E-15,-1.,0.));
#1432=DIRECTION('',(1.,3.49148336110938E-15,0.));
#1433=DIRECTION('',(1.,0.,3.49148133884313E-15));
#1434=DIRECTION('',(3.49148336110938E-15,-1.,0.));
#1435=DIRECTION('',(1.,3.49148336110938E-15,0.));
#1436=DIRECTION('',(3.49148336110938E-15,-1.,0.));
#1437=DIRECTION('',(1.,3.49148336110938E-15,0.));
#1438=DIRECTION('',(1.,0.,3.49148133884313E-15));
#1439=DIRECTION('',(3.49148336110938E-15,-1.,0.));
#1440=DIRECTION('',(1.,3.49148336110938E-15,0.));
#1441=DIRECTION('',(-3.49148133884313E-15,-1.21904490001947E-29,1.));
#1442=DIRECTION('',(1.,0.,3.49148133884313E-15));
#1443=DIRECTION('',(-3.49148133884313E-15,-1.21904490001947E-29,1.));
#1444=DIRECTION('',(1.,3.49148336110938E-15,0.));
#1445=DIRECTION('',(1.,3.49148336110938E-15,0.));
#1446=DIRECTION('',(-3.49148133884313E-15,-1.21904490001947E-29,1.));
#1447=DIRECTION('',(1.,0.,3.49148133884313E-15));
#1448=DIRECTION('',(-3.49148133884313E-15,-1.21904490001947E-29,1.));
#1449=DIRECTION('',(0.,0.,1.));
#1450=DIRECTION('',(1.,0.,0.));
#1451=DIRECTION('',(-1.,-3.49148336110938E-15,0.));
#1452=DIRECTION('',(0.,-1.,0.));
#1453=DIRECTION('',(0.,0.,1.));
#1454=DIRECTION('',(1.,0.,0.));
#1455=DIRECTION('',(0.,-1.,0.));
#1456=DIRECTION('',(-1.,-3.49148336110938E-15,0.));
#1457=DIRECTION('',(-3.42367913040504E-15,-0.196116135138184,0.98058067569092));
#1458=DIRECTION('',(0.,-0.98058067569092,-0.196116135138184));
#1459=DIRECTION('',(1.,3.49148336110938E-15,4.18977801106501E-15));
#1460=DIRECTION('',(1.,0.,3.49148133884313E-15));
#1461=DIRECTION('',(-3.49148133884313E-15,0.,1.));
#1462=DIRECTION('',(1.,0.,3.49148133884313E-15));
#1463=DIRECTION('',(-3.49148133884313E-15,0.,1.));
#1464=DIRECTION('',(1.,0.,3.49148133884313E-15));
#1465=DIRECTION('',(0.,-1.,0.));
#1466=DIRECTION('',(-1.,-3.49148336110938E-15,-3.49148133884313E-15));
#1467=DIRECTION('',(0.,-1.,0.));
#1468=DIRECTION('',(-1.,0.,-3.49148133884313E-15));
#1469=DIRECTION('',(-3.49148133884313E-15,0.,1.));
#1470=DIRECTION('',(3.49148133884313E-15,1.21904490001947E-29,-1.));
#1471=DIRECTION('',(-1.,0.,-3.49148133884313E-15));
#1472=DIRECTION('',(-3.49148133884313E-15,0.,1.));
#1473=DIRECTION('',(3.49148133884313E-15,1.21904490001947E-29,-1.));
#1474=DIRECTION('',(3.49148133884313E-15,0.,-1.));
#1475=DIRECTION('',(-1.,0.,-3.49148133884313E-15));
#1476=DIRECTION('',(0.,1.,0.));
#1477=DIRECTION('',(1.,3.49148336110938E-15,3.49148133884313E-15));
#1478=DIRECTION('',(0.,1.,0.));
#1479=DIRECTION('',(3.49148133884313E-15,0.,-1.));
#1480=DIRECTION('',(-1.,0.,-3.49148133884313E-15));
#1481=DIRECTION('',(1.,0.,3.49148133884313E-15));
#1482=DIRECTION('',(3.42367913040504E-15,-0.196116135138184,-0.98058067569092));
#1483=DIRECTION('',(0.,0.98058067569092,-0.196116135138184));
#1484=DIRECTION('',(-1.,-3.49148336110938E-15,-2.79318466662126E-15));
#1485=DIRECTION('',(-1.,0.,-3.49148133884313E-15));
#1486=DIRECTION('',(-3.49148133884313E-15,0.,1.));
#1487=DIRECTION('',(3.49148133884313E-15,1.21904490001947E-29,-1.));
#1488=DIRECTION('',(-1.,0.,-3.49148133884313E-15));
#1489=DIRECTION('',(-3.49148133884313E-15,0.,1.));
#1490=DIRECTION('',(3.49148133884313E-15,1.21904490001947E-29,-1.));
#1491=DIRECTION('',(-3.49148336110938E-15,1.,0.));
#1492=DIRECTION('',(-1.,-3.49148336110938E-15,0.));
#1493=DIRECTION('',(-3.49148336110938E-15,1.,0.));
#1494=DIRECTION('',(-1.,-3.49148336110938E-15,0.));
#1495=DIRECTION('',(3.49148336110938E-15,-1.,0.));
#1496=DIRECTION('',(1.,3.49148336110938E-15,0.));
#1497=DIRECTION('',(-3.49148336110938E-15,1.,0.));
#1498=DIRECTION('',(-1.,-3.49148336110938E-15,0.));
#1499=DIRECTION('',(3.49148336110938E-15,-1.,0.));
#1500=DIRECTION('',(1.,3.49148336110938E-15,0.));
#1501=DIRECTION('',(0.,1.,0.));
#1502=DIRECTION('',(0.,0.,1.));
#1503=DIRECTION('',(3.49148336110938E-15,-1.,0.));
#1504=DIRECTION('',(1.,3.49148336110938E-15,0.));
#1505=DIRECTION('',(3.49148336110938E-15,-1.,0.));
#1506=DIRECTION('',(1.,3.49148336110938E-15,0.));
#1507=DIRECTION('',(-3.49148336110938E-15,1.,0.));
#1508=DIRECTION('',(-1.,-3.49148336110938E-15,0.));
#1509=DIRECTION('',(3.49148336110938E-15,-1.,0.));
#1510=DIRECTION('',(1.,3.49148336110938E-15,0.));
#1511=DIRECTION('',(3.49148336110938E-15,-1.,0.));
#1512=DIRECTION('',(1.,3.49148336110938E-15,0.));
#1513=DIRECTION('',(-3.49148336110938E-15,1.,0.));
#1514=DIRECTION('',(-1.,-3.49148336110938E-15,0.));
#1515=DIRECTION('',(3.49148336110938E-15,-1.,0.));
#1516=DIRECTION('',(1.,3.49148336110938E-15,0.));
#1517=DIRECTION('',(3.49148336110938E-15,-1.,0.));
#1518=DIRECTION('',(1.,3.49148336110938E-15,0.));
#1519=DIRECTION('',(-3.49148336110938E-15,1.,0.));
#1520=DIRECTION('',(-1.,-3.49148336110938E-15,0.));
#1521=DIRECTION('',(-3.49148336110938E-15,1.,0.));
#1522=DIRECTION('',(-1.,-3.49148336110938E-15,0.));
#1523=DIRECTION('',(3.49148336110938E-15,-1.,0.));
#1524=DIRECTION('',(1.,3.49148336110938E-15,0.));
#1525=DIRECTION('',(3.49148336110938E-15,-1.,0.));
#1526=DIRECTION('',(1.,3.49148336110938E-15,0.));
#1527=DIRECTION('',(3.49148336110938E-15,-1.,0.));
#1528=DIRECTION('',(1.,3.49148336110938E-15,0.));
#1529=DIRECTION('',(3.49148336110938E-15,-1.,0.));
#1530=DIRECTION('',(1.,3.49148336110938E-15,0.));
#1531=DIRECTION('',(3.49148336110938E-15,-1.,0.));
#1532=DIRECTION('',(1.,3.49148336110938E-15,0.));
#1533=DIRECTION('',(3.49148336110938E-15,-1.,0.));
#1534=DIRECTION('',(1.,3.49148336110938E-15,0.));
#1535=DIRECTION('',(-3.49148336110938E-15,1.,0.));
#1536=DIRECTION('',(-1.,-3.49148336110938E-15,0.));
#1537=DIRECTION('',(3.49148336110938E-15,-1.,0.));
#1538=DIRECTION('',(1.,3.49148336110938E-15,0.));
#1539=DIRECTION('',(3.49148336110938E-15,-1.,0.));
#1540=DIRECTION('',(1.,3.49148336110938E-15,0.));
#1541=DIRECTION('',(3.49148336110938E-15,-1.,0.));
#1542=DIRECTION('',(1.,3.49148336110938E-15,0.));
#1543=DIRECTION('',(3.49148336110938E-15,-1.,0.));
#1544=DIRECTION('',(1.,3.49148336110938E-15,0.));
#1545=DIRECTION('',(-3.49148336110938E-15,1.,0.));
#1546=DIRECTION('',(-1.,-3.49148336110938E-15,0.));
#1547=DIRECTION('',(3.49148336110938E-15,-1.,0.));
#1548=DIRECTION('',(1.,3.49148336110938E-15,0.));
#1549=DIRECTION('',(3.49148336110938E-15,-1.,0.));
#1550=DIRECTION('',(1.,3.49148336110938E-15,0.));
#1551=DIRECTION('',(3.49148336110938E-15,-1.,0.));
#1552=DIRECTION('',(1.,3.49148336110938E-15,0.));
#1553=DIRECTION('',(3.49148336110938E-15,-1.,0.));
#1554=DIRECTION('',(1.,3.49148336110938E-15,0.));
#1555=DIRECTION('',(-3.49148336110938E-15,1.,0.));
#1556=DIRECTION('',(-1.,-3.49148336110938E-15,0.));
#1557=DIRECTION('',(-3.49148336110938E-15,1.,0.));
#1558=DIRECTION('',(-1.,-3.49148336110938E-15,0.));
#1559=DIRECTION('',(3.49148336110938E-15,-1.,0.));
#1560=DIRECTION('',(1.,3.49148336110938E-15,0.));
#1561=DIRECTION('',(3.49148336110938E-15,-1.,0.));
#1562=DIRECTION('',(1.,3.49148336110938E-15,0.));
#1563=DIRECTION('',(3.49148336110938E-15,-1.,0.));
#1564=DIRECTION('',(1.,3.49148336110938E-15,0.));
#1565=DIRECTION('',(3.49148336110938E-15,-1.,0.));
#1566=DIRECTION('',(1.,3.49148336110938E-15,0.));
#1567=DIRECTION('',(3.49148336110938E-15,-1.,0.));
#1568=DIRECTION('',(1.,3.49148336110938E-15,0.));
#1569=DIRECTION('',(3.49148336110938E-15,-1.,0.));
#1570=DIRECTION('',(1.,3.49148336110938E-15,0.));
#1571=DIRECTION('',(1.,3.49148336110938E-15,4.18977801106501E-15));
#1572=DIRECTION('',(0.,0.,-1.));
#1573=DIRECTION('',(-1.,-3.49148336110938E-15,-2.79318466662126E-15));
#1574=DIRECTION('',(0.,0.,1.));
#1575=DIRECTION('',(3.49148336110938E-15,-1.,0.));
#1576=DIRECTION('',(1.,3.49148336110938E-15,0.));
#1577=DIRECTION('',(3.49148336110938E-15,-1.,0.));
#1578=DIRECTION('',(1.,3.49148336110938E-15,0.));
#1579=DIRECTION('',(0.,-1.,0.));
#1580=DIRECTION('',(0.,0.,-1.));
#1581=DIRECTION('',(0.,-1.,0.));
#1582=DIRECTION('',(0.,0.,-1.));
#1583=DIRECTION('',(0.,-1.,0.));
#1584=DIRECTION('',(0.,0.,-1.));
#1585=DIRECTION('',(3.49148336110938E-15,-1.,0.));
#1586=DIRECTION('',(1.,3.49148336110938E-15,0.));
#1587=DIRECTION('',(1.,3.49148336110938E-15,4.18977801106501E-15));
#1588=DIRECTION('',(4.18977801106501E-15,0.,-1.));
#1589=DIRECTION('',(0.,0.,-1.));
#1590=DIRECTION('',(-1.,0.,0.));
#1591=DIRECTION('',(-1.,-3.49148336110938E-15,-2.79318466662126E-15));
#1592=DIRECTION('',(3.49148336110938E-15,-1.,0.));
#1593=DIRECTION('',(0.,0.,1.));
#1594=DIRECTION('',(1.,0.,0.));
#1595=DIRECTION('',(3.49148336110938E-15,-1.,0.));
#1596=DIRECTION('',(1.,3.49148336110938E-15,0.));
#1597=DIRECTION('',(0.,-1.,0.));
#1598=DIRECTION('',(0.,0.,-1.));
#1599=CARTESIAN_POINT('',(0.,0.,0.));
#1600=CARTESIAN_POINT('',(-0.0060325,0.004572,0.0004445));
#1601=CARTESIAN_POINT('',(-0.00603250000000036,0.1074928,0.0004445));
#1602=CARTESIAN_POINT('',(0.0004445,0.1074928,0.0004445));
#1603=CARTESIAN_POINT('',(0.00876516643467884,0.1074928,0.0004445));
#1604=CARTESIAN_POINT('',(0.0004445,0.004572,0.0004445));
#1605=CARTESIAN_POINT('',(0.0004445,0.012192,0.0004445));
#1606=CARTESIAN_POINT('',(-0.0060325,0.012192,0.0004445));
#1607=CARTESIAN_POINT('',(0.00926033804728531,0.012192,0.0004445));
#1608=CARTESIAN_POINT('',(0.00926033804728536,3.2332316210345E-17,0.0004445));
#1609=CARTESIAN_POINT('',(0.00926033804728531,0.01143,0.0004445));
#1610=CARTESIAN_POINT('',(-0.0060325,0.01143,0.0004445));
#1611=CARTESIAN_POINT('',(0.0004445,0.01143,0.0004445));
#1612=CARTESIAN_POINT('',(0.0004445,0.004572,0.0004445));
#1613=CARTESIAN_POINT('',(0.0004445,0.005588,0.0004445));
#1614=CARTESIAN_POINT('',(-0.0060325,0.005588,0.0004445));
#1615=CARTESIAN_POINT('',(0.00926033804728532,0.005588,0.0004445));
#1616=CARTESIAN_POINT('',(0.00926033804728533,3.23323162103449E-17,0.0004445));
#1617=CARTESIAN_POINT('',(0.00926033804728531,0.004572,0.0004445));
#1618=CARTESIAN_POINT('',(0.0060325,0.004572,0.0004445));
#1619=CARTESIAN_POINT('',(0.009271,0.004572,0.0004445));
#1620=CARTESIAN_POINT('',(0.009271,0.004572,0.0004445));
#1621=CARTESIAN_POINT('',(0.009271,0.093345,0.0004445));
#1622=CARTESIAN_POINT('',(0.009271,0.093345,0.0004445));
#1623=CARTESIAN_POINT('',(0.00689716024748764,0.105214198762562,0.0004445));
#1624=CARTESIAN_POINT('',(0.00876516643467885,0.1055878,0.0004445));
#1625=CARTESIAN_POINT('',(-0.0060325,0.004572,-0.0004445));
#1626=CARTESIAN_POINT('',(0.0004445,0.004572,-0.0004445));
#1627=CARTESIAN_POINT('',(0.0004445,0.1074928,-0.0004445));
#1628=CARTESIAN_POINT('',(0.0004445,0.012192,-0.0004445));
#1629=CARTESIAN_POINT('',(-0.00603250000000036,0.1074928,-0.0004445));
#1630=CARTESIAN_POINT('',(0.00876516643467884,0.1074928,-0.0004445));
#1631=CARTESIAN_POINT('',(0.00876516643467885,0.1055878,-0.0004445));
#1632=CARTESIAN_POINT('',(0.00689716024748764,0.105214198762562,-0.0004445));
#1633=CARTESIAN_POINT('',(0.009271,0.093345,-0.0004445));
#1634=CARTESIAN_POINT('',(0.009271,0.093345,-0.0004445));
#1635=CARTESIAN_POINT('',(0.009271,0.004572,-0.0004445));
#1636=CARTESIAN_POINT('',(0.009271,0.004572,-0.0004445));
#1637=CARTESIAN_POINT('',(0.0060325,0.004572,-0.0004445));
#1638=CARTESIAN_POINT('',(0.00926033804728531,0.004572,-0.0004445));
#1639=CARTESIAN_POINT('',(0.00926033804728533,3.23323162103449E-17,-0.0004445));
#1640=CARTESIAN_POINT('',(0.00926033804728532,0.005588,-0.0004445));
#1641=CARTESIAN_POINT('',(-0.0060325,0.005588,-0.0004445));
#1642=CARTESIAN_POINT('',(0.0004445,0.005588,-0.0004445));
#1643=CARTESIAN_POINT('',(0.0004445,0.004572,-0.0004445));
#1644=CARTESIAN_POINT('',(0.0004445,0.01143,-0.0004445));
#1645=CARTESIAN_POINT('',(-0.0060325,0.01143,-0.0004445));
#1646=CARTESIAN_POINT('',(0.00926033804728531,0.01143,-0.0004445));
#1647=CARTESIAN_POINT('',(0.00926033804728536,3.2332316210345E-17,-0.0004445));
#1648=CARTESIAN_POINT('',(0.00926033804728531,0.012192,-0.0004445));
#1649=CARTESIAN_POINT('',(-0.0060325,0.012192,-0.0004445));
#1650=CARTESIAN_POINT('',(-0.0060325,0.004572,0.0004445));
#1651=CARTESIAN_POINT('',(-0.00603250000000036,0.1074928,0.0004445));
#1652=CARTESIAN_POINT('',(-0.00876516643467887,0.1074928,0.0004445));
#1653=CARTESIAN_POINT('',(-0.0004445,0.1074928,0.0004445));
#1654=CARTESIAN_POINT('',(-0.00876516643467886,0.1055878,0.0004445));
#1655=CARTESIAN_POINT('',(-0.00689716024748765,0.105214198762562,0.0004445));
#1656=CARTESIAN_POINT('',(-0.009271,0.093345,0.0004445));
#1657=CARTESIAN_POINT('',(-0.009271,0.093345,0.0004445));
#1658=CARTESIAN_POINT('',(-0.009271,0.004572,0.0004445));
#1659=CARTESIAN_POINT('',(-0.009271,0.004572,0.0004445));
#1660=CARTESIAN_POINT('',(-0.0060325,0.004572,0.0004445));
#1661=CARTESIAN_POINT('',(-0.00926033804728535,0.004572,0.0004445));
#1662=CARTESIAN_POINT('',(-0.00926033804728533,-3.23323162103449E-17,0.0004445));
#1663=CARTESIAN_POINT('',(-0.00926033804728535,0.005588,0.0004445));
#1664=CARTESIAN_POINT('',(-0.0060325,0.005588,0.0004445));
#1665=CARTESIAN_POINT('',(-0.0004445,0.005588,0.0004445));
#1666=CARTESIAN_POINT('',(-0.0004445,0.004572,0.0004445));
#1667=CARTESIAN_POINT('',(-0.0004445,0.01143,0.0004445));
#1668=CARTESIAN_POINT('',(-0.0060325,0.01143,0.0004445));
#1669=CARTESIAN_POINT('',(-0.00926033804728539,0.01143,0.0004445));
#1670=CARTESIAN_POINT('',(-0.00926033804728536,-3.2332316210345E-17,0.0004445));
#1671=CARTESIAN_POINT('',(-0.0092603380472854,0.012192,0.0004445));
#1672=CARTESIAN_POINT('',(-0.0060325,0.012192,0.0004445));
#1673=CARTESIAN_POINT('',(-0.0004445,0.012192,0.0004445));
#1674=CARTESIAN_POINT('',(-0.0004445,0.004572,0.0004445));
#1675=CARTESIAN_POINT('',(-0.0060325,0.004572,-0.0004445));
#1676=CARTESIAN_POINT('',(-0.009271,0.093345,-0.0004445));
#1677=CARTESIAN_POINT('',(-0.00689716024748765,0.105214198762562,-0.0004445));
#1678=CARTESIAN_POINT('',(-0.009271,0.093345,-0.0004445));
#1679=CARTESIAN_POINT('',(-0.00876516643467886,0.1055878,-0.0004445));
#1680=CARTESIAN_POINT('',(-0.00876516643467887,0.1074928,-0.0004445));
#1681=CARTESIAN_POINT('',(-0.00603250000000036,0.1074928,-0.0004445));
#1682=CARTESIAN_POINT('',(-0.0004445,0.1074928,-0.0004445));
#1683=CARTESIAN_POINT('',(-0.0004445,0.004572,-0.0004445));
#1684=CARTESIAN_POINT('',(-0.0004445,0.012192,-0.0004445));
#1685=CARTESIAN_POINT('',(-0.0060325,0.012192,-0.0004445));
#1686=CARTESIAN_POINT('',(-0.0092603380472854,0.012192,-0.0004445));
#1687=CARTESIAN_POINT('',(-0.00926033804728536,-3.2332316210345E-17,-0.0004445));
#1688=CARTESIAN_POINT('',(-0.00926033804728539,0.01143,-0.0004445));
#1689=CARTESIAN_POINT('',(-0.0060325,0.01143,-0.0004445));
#1690=CARTESIAN_POINT('',(-0.0004445,0.01143,-0.0004445));
#1691=CARTESIAN_POINT('',(-0.0004445,0.004572,-0.0004445));
#1692=CARTESIAN_POINT('',(-0.0004445,0.005588,-0.0004445));
#1693=CARTESIAN_POINT('',(-0.0060325,0.005588,-0.0004445));
#1694=CARTESIAN_POINT('',(-0.00926033804728535,0.005588,-0.0004445));
#1695=CARTESIAN_POINT('',(-0.00926033804728533,-3.23323162103449E-17,-0.0004445));
#1696=CARTESIAN_POINT('',(-0.00926033804728535,0.004572,-0.0004445));
#1697=CARTESIAN_POINT('',(-0.0060325,0.004572,-0.0004445));
#1698=CARTESIAN_POINT('',(-0.009271,0.004572,-0.0004445));
#1699=CARTESIAN_POINT('',(-0.009271,0.004572,-0.0004445));
#1700=CARTESIAN_POINT('',(0.000444500000000021,0.004572,-0.0060325));
#1701=CARTESIAN_POINT('',(0.000444500000000032,0.093345,-0.009271));
#1702=CARTESIAN_POINT('',(0.000444500000000024,0.105214198762562,-0.00689716024748765));
#1703=CARTESIAN_POINT('',(0.000444500000000032,0.093345,-0.009271));
#1704=CARTESIAN_POINT('',(0.000444500000000031,0.1055878,-0.00876516643467885));
#1705=CARTESIAN_POINT('',(0.000444500000000031,0.1074928,-0.00876516643467885));
#1706=CARTESIAN_POINT('',(0.000444500000000021,0.1074928,-0.0060325));
#1707=CARTESIAN_POINT('',(0.000444500000000021,0.012192,-0.0060325));
#1708=CARTESIAN_POINT('',(0.000444499999999991,0.012192,-0.00926033804728536));
#1709=CARTESIAN_POINT('',(0.000444500000000032,1.12887678689995E-31,-0.00926033804728535));
#1710=CARTESIAN_POINT('',(0.000444500000000032,0.01143,-0.00926033804728535));
#1711=CARTESIAN_POINT('',(0.000444500000000021,0.01143,-0.0060325));
#1712=CARTESIAN_POINT('',(0.000444500000000021,0.005588,-0.0060325));
#1713=CARTESIAN_POINT('',(0.000444500000000015,0.005588,-0.00926033804728533));
#1714=CARTESIAN_POINT('',(0.000444500000000032,1.12887678689995E-31,-0.00926033804728533));
#1715=CARTESIAN_POINT('',(0.000444500000000032,0.004572,-0.00926033804728533));
#1716=CARTESIAN_POINT('',(0.000444500000000021,0.004572,-0.0060325));
#1717=CARTESIAN_POINT('',(0.000444500000000032,0.004572,-0.009271));
#1718=CARTESIAN_POINT('',(0.000444500000000032,0.004572,-0.009271));
#1719=CARTESIAN_POINT('',(-0.000444499999999979,0.004572,-0.0060325));
#1720=CARTESIAN_POINT('',(-0.000444499999999979,0.1074928,-0.0060325));
#1721=CARTESIAN_POINT('',(-0.000444499999999969,0.1074928,-0.00876516643467885));
#1722=CARTESIAN_POINT('',(-0.000444499999999969,0.1055878,-0.00876516643467885));
#1723=CARTESIAN_POINT('',(-0.000444499999999976,0.105214198762562,-0.00689716024748765));
#1724=CARTESIAN_POINT('',(-0.000444499999999968,0.093345,-0.009271));
#1725=CARTESIAN_POINT('',(-0.000444499999999968,0.093345,-0.009271));
#1726=CARTESIAN_POINT('',(-0.000444499999999968,0.004572,-0.009271));
#1727=CARTESIAN_POINT('',(-0.000444499999999968,0.004572,-0.009271));
#1728=CARTESIAN_POINT('',(-0.000444499999999979,0.004572,-0.0060325));
#1729=CARTESIAN_POINT('',(-0.000444499999999968,0.004572,-0.00926033804728533));
#1730=CARTESIAN_POINT('',(-0.000444499999999968,1.12887678689995E-31,-0.00926033804728534));
#1731=CARTESIAN_POINT('',(-0.000444499999999987,0.005588,-0.00926033804728534));
#1732=CARTESIAN_POINT('',(-0.000444499999999979,0.005588,-0.0060325));
#1733=CARTESIAN_POINT('',(-0.000444499999999979,0.01143,-0.0060325));
#1734=CARTESIAN_POINT('',(-0.000444499999999968,0.01143,-0.00926033804728536));
#1735=CARTESIAN_POINT('',(-0.000444499999999968,1.12887678689995E-31,-0.00926033804728536));
#1736=CARTESIAN_POINT('',(-0.00044450000000001,0.012192,-0.00926033804728536));
#1737=CARTESIAN_POINT('',(-0.000444499999999979,0.012192,-0.0060325));
#1738=CARTESIAN_POINT('',(-0.000444499999999979,0.004572,-0.0060325));
#1739=CARTESIAN_POINT('',(-0.000444499999999979,0.1074928,-0.0060325));
#1740=CARTESIAN_POINT('',(-0.000444500000000031,0.1074928,0.00876516643467885));
#1741=CARTESIAN_POINT('',(-0.000444499999999979,0.012192,-0.0060325));
#1742=CARTESIAN_POINT('',(-0.000444500000000075,0.012192,0.00926033804728535));
#1743=CARTESIAN_POINT('',(-0.000444500000000032,-1.12887678689995E-31,0.00926033804728535));
#1744=CARTESIAN_POINT('',(-0.000444500000000032,0.01143,0.00926033804728535));
#1745=CARTESIAN_POINT('',(-0.000444499999999979,0.01143,-0.0060325));
#1746=CARTESIAN_POINT('',(-0.000444499999999979,0.005588,-0.0060325));
#1747=CARTESIAN_POINT('',(-0.000444500000000052,0.005588,0.00926033804728533));
#1748=CARTESIAN_POINT('',(-0.000444500000000032,-1.12887678689995E-31,0.00926033804728533));
#1749=CARTESIAN_POINT('',(-0.000444500000000032,0.004572,0.00926033804728533));
#1750=CARTESIAN_POINT('',(-0.000444500000000021,0.004572,0.0060325));
#1751=CARTESIAN_POINT('',(-0.000444500000000032,0.004572,0.009271));
#1752=CARTESIAN_POINT('',(-0.000444500000000032,0.004572,0.009271));
#1753=CARTESIAN_POINT('',(-0.000444500000000032,0.093345,0.009271));
#1754=CARTESIAN_POINT('',(-0.000444500000000032,0.093345,0.009271));
#1755=CARTESIAN_POINT('',(-0.000444500000000024,0.105214198762562,0.00689716024748765));
#1756=CARTESIAN_POINT('',(-0.000444500000000031,0.1055878,0.00876516643467885));
#1757=CARTESIAN_POINT('',(0.000444500000000021,0.004572,-0.0060325));
#1758=CARTESIAN_POINT('',(0.000444500000000021,0.1074928,-0.0060325));
#1759=CARTESIAN_POINT('',(0.000444499999999969,0.1074928,0.00876516643467885));
#1760=CARTESIAN_POINT('',(0.000444499999999969,0.1055878,0.00876516643467885));
#1761=CARTESIAN_POINT('',(0.000444499999999976,0.105214198762562,0.00689716024748765));
#1762=CARTESIAN_POINT('',(0.000444499999999968,0.093345,0.009271));
#1763=CARTESIAN_POINT('',(0.000444499999999968,0.093345,0.009271));
#1764=CARTESIAN_POINT('',(0.000444499999999968,0.004572,0.009271));
#1765=CARTESIAN_POINT('',(0.000444499999999968,0.004572,0.009271));
#1766=CARTESIAN_POINT('',(0.000444499999999979,0.004572,0.0060325));
#1767=CARTESIAN_POINT('',(0.000444499999999968,0.004572,0.00926033804728533));
#1768=CARTESIAN_POINT('',(0.000444499999999968,-1.12887678689995E-31,0.00926033804728534));
#1769=CARTESIAN_POINT('',(0.00044449999999995,0.005588,0.00926033804728534));
#1770=CARTESIAN_POINT('',(0.000444500000000021,0.005588,-0.0060325));
#1771=CARTESIAN_POINT('',(0.000444500000000021,0.01143,-0.0060325));
#1772=CARTESIAN_POINT('',(0.000444499999999968,0.01143,0.00926033804728535));
#1773=CARTESIAN_POINT('',(0.000444499999999968,-1.12887678689995E-31,0.00926033804728536));
#1774=CARTESIAN_POINT('',(0.000444499999999927,0.012192,0.00926033804728536));
#1775=CARTESIAN_POINT('',(0.000444500000000021,0.012192,-0.0060325));
#1776=CARTESIAN_POINT('',(-0.0060325,0.004572,0.0004445));
#1777=CARTESIAN_POINT('',(-0.0060325,0.004572,0.0004445));
#1778=CARTESIAN_POINT('',(0.0004445,0.004572,0.0004445));
#1779=CARTESIAN_POINT('',(0.0060325,0.004572,0.0004445));
#1780=CARTESIAN_POINT('',(0.0004445,0.004572,0.0004445));
#1781=CARTESIAN_POINT('',(0.0004445,0.001778,0.0004445));
#1782=CARTESIAN_POINT('',(-0.0060325,0.00177799999999996,0.0004445));
#1783=CARTESIAN_POINT('',(0.0060325,0.001778,0.0004445));
#1784=CARTESIAN_POINT('',(0.0060325,0.,0.0004445));
#1785=CARTESIAN_POINT('',(-0.0060325,0.004572,-0.0004445));
#1786=CARTESIAN_POINT('',(0.0004445,0.004572,-0.0004445));
#1787=CARTESIAN_POINT('',(0.0004445,0.004572,-0.0004445));
#1788=CARTESIAN_POINT('',(0.0004445,0.001778,-0.0004445));
#1789=CARTESIAN_POINT('',(-0.0060325,0.004572,-0.0004445));
#1790=CARTESIAN_POINT('',(0.0060325,0.004572,-0.0004445));
#1791=CARTESIAN_POINT('',(0.0060325,0.,-0.0004445));
#1792=CARTESIAN_POINT('',(0.0060325,0.001778,-0.0004445));
#1793=CARTESIAN_POINT('',(-0.0060325,0.00177799999999996,-0.0004445));
#1794=CARTESIAN_POINT('',(-0.0060325,0.,0.0004445));
#1795=CARTESIAN_POINT('',(-0.0060325,0.,-0.0004445));
#1796=CARTESIAN_POINT('',(-0.0060325,0.004572,-0.0004445));
#1797=CARTESIAN_POINT('',(-0.0060325,0.00177799999999997,-0.0004445));
#1798=CARTESIAN_POINT('',(-0.0060325,0.00177799999999997,0.0004445));
#1799=CARTESIAN_POINT('',(-0.0060325,0.00177799999999996,0.0004445));
#1800=CARTESIAN_POINT('',(-0.0060325,0.,0.0004445));
#1801=CARTESIAN_POINT('',(-0.0060325,0.004572,0.0004445));
#1802=CARTESIAN_POINT('',(-0.0060325,0.004572,0.0004445));
#1803=CARTESIAN_POINT('',(0.0060325,0.,0.0004445));
#1804=CARTESIAN_POINT('',(0.0060325,0.001778,0.0004445));
#1805=CARTESIAN_POINT('',(0.0060325,0.004572,0.0004445));
#1806=CARTESIAN_POINT('',(0.009271,0.004572,0.0004445));
#1807=CARTESIAN_POINT('',(0.009271,0.004572,0.0004445));
#1808=CARTESIAN_POINT('',(0.009271,0.093345,0.0004445));
#1809=CARTESIAN_POINT('',(0.009271,0.093345,0.0004445));
#1810=CARTESIAN_POINT('',(0.00689716024748764,0.105214198762562,0.0004445));
#1811=CARTESIAN_POINT('',(-0.009271,0.093345,0.0004445));
#1812=CARTESIAN_POINT('',(-0.00689716024748765,0.105214198762562,0.0004445));
#1813=CARTESIAN_POINT('',(-0.009271,0.093345,0.0004445));
#1814=CARTESIAN_POINT('',(-0.009271,0.004572,0.0004445));
#1815=CARTESIAN_POINT('',(-0.009271,0.004572,0.0004445));
#1816=CARTESIAN_POINT('',(-0.0060325,0.004572,0.0004445));
#1817=CARTESIAN_POINT('',(-1.5963061926992E-17,0.004572,0.));
#1818=CARTESIAN_POINT('',(-0.000444500000000032,0.004572,0.009271));
#1819=CARTESIAN_POINT('',(-1.5963061926992E-17,0.004572,0.));
#1820=CARTESIAN_POINT('',(-1.5963061926992E-17,0.004572,0.));
#1821=CARTESIAN_POINT('',(-0.000444499999999968,0.004572,-0.009271));
#1822=CARTESIAN_POINT('',(-1.5963061926992E-17,0.004572,0.));
#1823=CARTESIAN_POINT('',(0.000444500000000021,0.004572,-0.0060325));
#1824=CARTESIAN_POINT('',(0.000444500000000021,0.004572,-0.0060325));
#1825=CARTESIAN_POINT('',(-0.000444499999999979,0.004572,-0.0060325));
#1826=CARTESIAN_POINT('',(-0.000444499999999979,0.004572,-0.0060325));
#1827=CARTESIAN_POINT('',(-0.000444499999999979,0.004572,-0.0060325));
#1828=CARTESIAN_POINT('',(-0.0004445,0.004572,-0.0004445));
#1829=CARTESIAN_POINT('',(-0.0060325,0.004572,-0.0004445));
#1830=CARTESIAN_POINT('',(-0.0060325,0.004572,0.0004445));
#1831=CARTESIAN_POINT('',(-0.0004445,0.004572,0.0004445));
#1832=CARTESIAN_POINT('',(-0.000444499999999979,0.004572,-0.0060325));
#1833=CARTESIAN_POINT('',(-0.000444500000000021,0.004572,0.0060325));
#1834=CARTESIAN_POINT('',(-0.000444500000000021,0.004572,0.0060325));
#1835=CARTESIAN_POINT('',(0.000444499999999979,0.004572,0.0060325));
#1836=CARTESIAN_POINT('',(0.000444500000000021,0.004572,-0.0060325));
#1837=CARTESIAN_POINT('',(-0.0060325,0.004572,0.0004445));
#1838=CARTESIAN_POINT('',(-0.0060325,0.00177799999999996,0.0004445));
#1839=CARTESIAN_POINT('',(-0.0004445,0.001778,0.0004445));
#1840=CARTESIAN_POINT('',(-0.0004445,0.004572,0.0004445));
#1841=CARTESIAN_POINT('',(-0.0060325,0.004572,-0.0004445));
#1842=CARTESIAN_POINT('',(-0.0004445,0.004572,-0.0004445));
#1843=CARTESIAN_POINT('',(-0.0004445,0.001778,-0.0004445));
#1844=CARTESIAN_POINT('',(-0.0060325,0.00177799999999996,-0.0004445));
#1845=CARTESIAN_POINT('',(-0.000444499999999968,0.093345,-0.009271));
#1846=CARTESIAN_POINT('',(-0.000444500000000019,0.105214198762562,-0.00689716024748765));
#1847=CARTESIAN_POINT('',(-0.000444499999999968,0.093345,-0.009271));
#1848=CARTESIAN_POINT('',(-0.000444499999999968,0.004572,-0.009271));
#1849=CARTESIAN_POINT('',(-0.000444499999999979,0.,-0.0060325));
#1850=CARTESIAN_POINT('',(0.000444500000000021,0.,-0.0060325));
#1851=CARTESIAN_POINT('',(0.000444500000000021,0.001778,-0.0060325));
#1852=CARTESIAN_POINT('',(-0.000444499999999985,0.001778,-0.0060325));
#1853=CARTESIAN_POINT('',(-0.000444499999999979,0.001778,-0.0060325));
#1854=CARTESIAN_POINT('',(-0.000444499999999979,0.,-0.0060325));
#1855=CARTESIAN_POINT('',(0.000444500000000021,0.004572,-0.0060325));
#1856=CARTESIAN_POINT('',(0.000444500000000021,0.001778,-0.0060325));
#1857=CARTESIAN_POINT('',(-0.000444499999999979,0.004572,-0.0060325));
#1858=CARTESIAN_POINT('',(-0.000444499999999979,0.001778,-0.0060325));
#1859=CARTESIAN_POINT('',(-0.000444500000000021,0.,0.0060325));
#1860=CARTESIAN_POINT('',(-0.000444500000000021,0.,0.0060325));
#1861=CARTESIAN_POINT('',(-0.000444500000000021,0.001778,0.0060325));
#1862=CARTESIAN_POINT('',(-0.000444500000000027,0.001778,0.0060325));
#1863=CARTESIAN_POINT('',(0.000444499999999979,0.001778,0.0060325));
#1864=CARTESIAN_POINT('',(0.000444499999999979,0.,0.0060325));
#1865=CARTESIAN_POINT('',(-0.000444500000000032,0.004572,0.009271));
#1866=CARTESIAN_POINT('',(-0.000444500000000032,0.093345,0.009271));
#1867=CARTESIAN_POINT('',(-0.000444500000000032,0.093345,0.009271));
#1868=CARTESIAN_POINT('',(-0.000444500000000067,0.105214198762562,0.00689716024748765));
#1869=CARTESIAN_POINT('',(-0.000444499999999979,0.004572,-0.0060325));
#1870=CARTESIAN_POINT('',(-0.000444499999999979,0.001778,-0.0060325));
#1871=CARTESIAN_POINT('',(0.000444500000000021,0.004572,-0.0060325));
#1872=CARTESIAN_POINT('',(0.000444500000000021,0.001778,-0.0060325));
#1873=CARTESIAN_POINT('',(4.76067785318441E-32,0.001778,0.));
#1874=CARTESIAN_POINT('',(-6.20785741605243E-18,0.001778,0.));
#1875=CARTESIAN_POINT('',(-0.00698500000000001,0.00177799999999998,0.));
#1876=CARTESIAN_POINT('',(0.,0.,0.));
#1877=CARTESIAN_POINT('',(-3.32563790145661E-18,0.000952499999999977,0.));
#1878=CARTESIAN_POINT('',(-0.0078105,0.00095249999999995,0.));
#1879=CARTESIAN_POINT('',(9.52135570636881E-32,-2.72702307919448E-17,0.));
#1880=CARTESIAN_POINT('',(0.0078105,1.23259516440783E-32,0.));
#1881=CARTESIAN_POINT('',(-0.0060325,0.,0.0004445));
#1882=CARTESIAN_POINT('',(0.,0.,0.));
#1883=CARTESIAN_POINT('',(-1.95104090218791E-17,0.005588,0.));
#1884=CARTESIAN_POINT('',(5.6508859070319E-32,0.005588,0.));
#1885=CARTESIAN_POINT('',(0.,0.,0.));
#1886=CARTESIAN_POINT('',(-1.95104090218791E-17,0.005588,0.));
#1887=CARTESIAN_POINT('',(5.6508859070319E-32,0.005588,0.));
#1888=CARTESIAN_POINT('',(0.,0.,0.));
#1889=CARTESIAN_POINT('',(-1.95104090218791E-17,0.005588,0.));
#1890=CARTESIAN_POINT('',(5.6508859070319E-32,0.005588,0.));
#1891=CARTESIAN_POINT('',(5.6508859070319E-32,0.005588,0.));
#1892=CARTESIAN_POINT('',(-1.95104090218791E-17,0.005588,0.));
#1893=CARTESIAN_POINT('',(0.,0.,0.));
#1894=CARTESIAN_POINT('',(5.6508859070319E-32,0.01143,0.));
#1895=CARTESIAN_POINT('',(-3.99076548174801E-17,0.01143,0.));
#1896=CARTESIAN_POINT('',(0.,0.,0.));
#1897=CARTESIAN_POINT('',(-4.25681651386455E-17,0.012192,0.));
#1898=CARTESIAN_POINT('',(5.6508859070319E-32,0.012192,0.));
#1899=CARTESIAN_POINT('',(5.6508859070319E-32,0.01143,0.));
#1900=CARTESIAN_POINT('',(-3.99076548174801E-17,0.01143,0.));
#1901=CARTESIAN_POINT('',(0.,0.,0.));
#1902=CARTESIAN_POINT('',(-4.25681651386455E-17,0.012192,0.));
#1903=CARTESIAN_POINT('',(5.6508859070319E-32,0.012192,0.));
#1904=CARTESIAN_POINT('',(5.6508859070319E-32,0.01143,0.));
#1905=CARTESIAN_POINT('',(-3.99076548174801E-17,0.01143,0.));
#1906=CARTESIAN_POINT('',(0.,0.,0.));
#1907=CARTESIAN_POINT('',(-4.25681651386455E-17,0.012192,0.));
#1908=CARTESIAN_POINT('',(5.6508859070319E-32,0.012192,0.));
#1909=CARTESIAN_POINT('',(5.6508859070319E-32,0.012192,0.));
#1910=CARTESIAN_POINT('',(-4.25681651386455E-17,0.012192,0.));
#1911=CARTESIAN_POINT('',(0.,0.,0.));
#1912=CARTESIAN_POINT('',(-3.99076548174801E-17,0.01143,0.));
#1913=CARTESIAN_POINT('',(5.6508859070319E-32,0.01143,0.));
#1914=CARTESIAN_POINT('',(2.11520995148795E-19,0.1074928,0.));
#1915=CARTESIAN_POINT('',(-3.75309322639059E-16,0.1074928,0.));
#1916=CARTESIAN_POINT('',(0.01163955,0.1074928,0.));
#1917=CARTESIAN_POINT('',(3.69356225864913E-17,0.1074928,-0.00876516643467885));
#1918=CARTESIAN_POINT('',(-0.00876516643467887,0.1074928,0.));
#1919=CARTESIAN_POINT('',(-2.42712074905795E-17,0.1074928,0.00876516643467885));
#1920=CARTESIAN_POINT('',(0.00876516643467884,0.1074928,0.));
#1921=CARTESIAN_POINT('',(0.,0.,0.));
#1922=CARTESIAN_POINT('',(-3.7597445021935E-16,0.1076833,0.));
#1923=CARTESIAN_POINT('',(0.01183005,0.1076833,0.));
#1924=CARTESIAN_POINT('',(-3.80674685120075E-16,0.1090295,0.));
#1925=CARTESIAN_POINT('',(-3.80674685120075E-16,0.1090295,-0.0118300500000004));
#1926=CARTESIAN_POINT('',(0.006096,0.10922,0.0004445));
#1927=CARTESIAN_POINT('',(-3.80674685120075E-16,0.10922,0.));
#1928=CARTESIAN_POINT('',(-3.80674685120075E-16,0.10922,-0.0116395500000004));
#1929=CARTESIAN_POINT('',(-3.32563790145661E-18,0.000952499999999977,0.));
#1930=CARTESIAN_POINT('',(-0.000444500000000013,0.1055878,-0.00876516643467885));
#1931=CARTESIAN_POINT('',(-0.00876516643467886,0.1055878,0.0004445));
#1932=CARTESIAN_POINT('',(-0.000444500000000074,0.1055878,0.00876516643467885));
#1933=CARTESIAN_POINT('',(0.00876516643467885,0.1055878,0.0004445));
#1934=CARTESIAN_POINT('',(-3.7597445021935E-16,0.1076833,0.));
#1935=CARTESIAN_POINT('',(-3.80674685120075E-16,0.1090295,0.));
#1936=MECHANICAL_DESIGN_GEOMETRIC_PRESENTATION_REPRESENTATION('',(#1172),
#1937);
#1937=(
GEOMETRIC_REPRESENTATION_CONTEXT(3)
GLOBAL_UNCERTAINTY_ASSIGNED_CONTEXT((#1938))
GLOBAL_UNIT_ASSIGNED_CONTEXT((#1941,#1940,#1939))
REPRESENTATION_CONTEXT('Part 1','TOP_LEVEL_ASSEMBLY_PART')
);
#1938=UNCERTAINTY_MEASURE_WITH_UNIT(LENGTH_MEASURE(1.E-8),#1941,
'DISTANCE_ACCURACY_VALUE','Maximum Tolerance applied to model');
#1939=(
NAMED_UNIT(*)
SI_UNIT($,.STERADIAN.)
SOLID_ANGLE_UNIT()
);
#1940=(
NAMED_UNIT(*)
PLANE_ANGLE_UNIT()
SI_UNIT($,.RADIAN.)
);
#1941=(
LENGTH_UNIT()
NAMED_UNIT(*)
SI_UNIT($,.METRE.)
);
#1942=PRODUCT_DEFINITION_SHAPE('','',#1943);
#1943=PRODUCT_DEFINITION('','',#1945,#1944);
#1944=PRODUCT_DEFINITION_CONTEXT('',#1951,'design');
#1945=PRODUCT_DEFINITION_FORMATION_WITH_SPECIFIED_SOURCE('','',#1947,
 .NOT_KNOWN.);
#1946=PRODUCT_RELATED_PRODUCT_CATEGORY('','',(#1947));
#1947=PRODUCT('Part 1','Part 1','Part 1',(#1949));
#1948=PRODUCT_CATEGORY('','');
#1949=PRODUCT_CONTEXT('',#1951,'mechanical');
#1950=APPLICATION_PROTOCOL_DEFINITION('international standard',
'ap242_managed_model_based_3d_engineering',2020,#1951);
#1951=APPLICATION_CONTEXT('managed model based 3d engineering');
ENDSEC;
END-ISO-10303-21;
