ISO-10303-21;
HEADER;
/* Generated by software containing ST-Developer
 * from STEP Tools, Inc. (www.steptools.com) 
 */
/* OPTION: using custom renumber hook */

FILE_DESCRIPTION(
/* description */ (
'CAx-IF Rec.Pracs.---Representation and Presentation of Product Manufa
cturing Information (PMI)---4.0---2014-10-13',
'CAx-IF Rec.Pracs.---3D Tessellated Geometry---0.4---2014-09-14','2;1'),

/* implementation_level */ '2;1');

FILE_NAME(
/* name */ 'Hull Service Hatch-Buoy',
/* time_stamp */ '2026-04-15T00:06:19-07:00',
/* author */ (''),
/* organization */ (''),
/* preprocessor_version */ 'ST-DEVELOPER v20',
/* originating_system */ 'SIEMENS PLM Software NX2406.1700',
/* authorisation */ $);

FILE_SCHEMA (('AP242_MANAGED_MODEL_BASED_3D_ENGINEERING_MIM_LF { 1 0 10303 442 3 1 4 }'));
ENDSEC;

DATA;
#10=DEFAULT_MODEL_GEOMETRIC_VIEW('Trimetric','',#60,#34,'','',#696,*);
#11=MECHANICAL_DESIGN_AND_DRAUGHTING_RELATIONSHIP('','',#26,#27);
#12=MECHANICAL_DESIGN_AND_DRAUGHTING_RELATIONSHIP('','',#28,#27);
#13=MECHANICAL_DESIGN_AND_DRAUGHTING_RELATIONSHIP('','',#29,#27);
#14=MECHANICAL_DESIGN_AND_DRAUGHTING_RELATIONSHIP('','',#30,#27);
#15=MECHANICAL_DESIGN_AND_DRAUGHTING_RELATIONSHIP('','',#31,#27);
#16=MECHANICAL_DESIGN_AND_DRAUGHTING_RELATIONSHIP('','',#32,#27);
#17=MECHANICAL_DESIGN_AND_DRAUGHTING_RELATIONSHIP('','',#33,#27);
#18=MECHANICAL_DESIGN_AND_DRAUGHTING_RELATIONSHIP('','',#34,#27);
#19=MODEL_GEOMETRIC_VIEW('Top','',#53,#26);
#20=MODEL_GEOMETRIC_VIEW('Front','',#54,#28);
#21=MODEL_GEOMETRIC_VIEW('Right','',#55,#29);
#22=MODEL_GEOMETRIC_VIEW('Back','',#56,#30);
#23=MODEL_GEOMETRIC_VIEW('Bottom','',#57,#31);
#24=MODEL_GEOMETRIC_VIEW('Left','',#58,#32);
#25=MODEL_GEOMETRIC_VIEW('Isometric','',#59,#33);
#26=DRAUGHTING_MODEL('Top',(#53,#44),#688);
#27=DRAUGHTING_MODEL('',(#45),#688);
#28=DRAUGHTING_MODEL('Front',(#54,#46),#688);
#29=DRAUGHTING_MODEL('Right',(#55,#47),#688);
#30=DRAUGHTING_MODEL('Back',(#56,#48),#688);
#31=DRAUGHTING_MODEL('Bottom',(#57,#49),#688);
#32=DRAUGHTING_MODEL('Left',(#58,#50),#688);
#33=DRAUGHTING_MODEL('Isometric',(#59,#51),#688);
#34=DRAUGHTING_MODEL('Trimetric',(#60,#52),#688);
#35=REPRESENTATION_MAP(#337,#78);
#36=REPRESENTATION_MAP(#337,#78);
#37=REPRESENTATION_MAP(#337,#78);
#38=REPRESENTATION_MAP(#337,#78);
#39=REPRESENTATION_MAP(#337,#78);
#40=REPRESENTATION_MAP(#337,#78);
#41=REPRESENTATION_MAP(#337,#78);
#42=REPRESENTATION_MAP(#337,#78);
#43=REPRESENTATION_MAP(#337,#78);
#44=MAPPED_ITEM('',#35,#337);
#45=MAPPED_ITEM('',#36,#337);
#46=MAPPED_ITEM('',#37,#337);
#47=MAPPED_ITEM('',#38,#337);
#48=MAPPED_ITEM('',#39,#337);
#49=MAPPED_ITEM('',#40,#337);
#50=MAPPED_ITEM('',#41,#337);
#51=MAPPED_ITEM('',#42,#337);
#52=MAPPED_ITEM('',#43,#337);
#53=CAMERA_MODEL_D3('Top',#351,#61);
#54=CAMERA_MODEL_D3('Front',#353,#62);
#55=CAMERA_MODEL_D3('Right',#355,#63);
#56=CAMERA_MODEL_D3('Back',#357,#64);
#57=CAMERA_MODEL_D3('Bottom',#359,#65);
#58=CAMERA_MODEL_D3('Left',#361,#66);
#59=CAMERA_MODEL_D3('Isometric',#363,#67);
#60=CAMERA_MODEL_D3('Trimetric',#365,#68);
#61=VIEW_VOLUME(.PARALLEL.,#664,8.03226923942566,0.,.F.,0.,.F.,.F.,#69);
#62=VIEW_VOLUME(.PARALLEL.,#667,10.0916585922241,0.,.F.,0.,.F.,.F.,#70);
#63=VIEW_VOLUME(.PARALLEL.,#670,10.0916585922241,0.,.F.,0.,.F.,.F.,#71);
#64=VIEW_VOLUME(.PARALLEL.,#673,10.0916585922241,0.,.F.,0.,.F.,.F.,#72);
#65=VIEW_VOLUME(.PARALLEL.,#676,8.03226923942566,0.,.F.,0.,.F.,.F.,#73);
#66=VIEW_VOLUME(.PARALLEL.,#679,10.0916585922241,0.,.F.,0.,.F.,.F.,#74);
#67=VIEW_VOLUME(.PARALLEL.,#682,15.2022088197551,0.,.F.,0.,.F.,.F.,#75);
#68=VIEW_VOLUME(.PARALLEL.,#685,13.8839442320448,0.,.F.,0.,.F.,.F.,#76);
#69=PLANAR_BOX('',4.00533928734391,4.00533928734391,#352);
#70=PLANAR_BOX('',5.03226615406473,5.03226615406473,#354);
#71=PLANAR_BOX('',5.03226615406473,5.03226615406473,#356);
#72=PLANAR_BOX('',5.03226615406473,5.03226615406473,#358);
#73=PLANAR_BOX('',4.00533928734391,4.00533928734391,#360);
#74=PLANAR_BOX('',5.03226615406473,5.03226615406473,#362);
#75=PLANAR_BOX('',7.58067271217678,7.58067271217678,#364);
#76=PLANAR_BOX('',6.92331215977483,6.92331215977483,#366);
#77=SHAPE_REPRESENTATION_RELATIONSHIP('','',#336,#78);
#78=ADVANCED_BREP_SHAPE_REPRESENTATION('',(#334),#688);
#79=PLANE('',#339);
#80=PLANE('',#341);
#81=PLANE('',#343);
#82=PLANE('',#345);
#83=PLANE('',#346);
#84=PLANE('',#347);
#85=PLANE('',#348);
#86=PLANE('',#349);
#87=PLANE('',#350);
#88=LINE('',#631,#104);
#89=LINE('',#632,#105);
#90=LINE('',#634,#106);
#91=LINE('',#636,#107);
#92=LINE('',#638,#108);
#93=LINE('',#640,#109);
#94=LINE('',#642,#110);
#95=LINE('',#644,#111);
#96=LINE('',#647,#112);
#97=LINE('',#649,#113);
#98=LINE('',#651,#114);
#99=LINE('',#653,#115);
#100=LINE('',#655,#116);
#101=LINE('',#657,#117);
#102=LINE('',#659,#118);
#103=LINE('',#661,#119);
#104=VECTOR('',#371,39.3700787401575);
#105=VECTOR('',#372,39.3700787401575);
#106=VECTOR('',#375,39.3700787401575);
#107=VECTOR('',#378,39.3700787401575);
#108=VECTOR('',#381,39.3700787401575);
#109=VECTOR('',#384,39.3700787401575);
#110=VECTOR('',#387,39.3700787401575);
#111=VECTOR('',#390,39.3700787401575);
#112=VECTOR('',#395,39.3700787401575);
#113=VECTOR('',#396,39.3700787401575);
#114=VECTOR('',#397,39.3700787401575);
#115=VECTOR('',#400,39.3700787401575);
#116=VECTOR('',#401,39.3700787401575);
#117=VECTOR('',#404,39.3700787401575);
#118=VECTOR('',#405,39.3700787401575);
#119=VECTOR('',#408,39.3700787401575);
#120=CYLINDRICAL_SURFACE('',#338,1.);
#121=CYLINDRICAL_SURFACE('',#340,1.);
#122=CYLINDRICAL_SURFACE('',#342,1.);
#123=CYLINDRICAL_SURFACE('',#344,1.);
#124=ORIENTED_EDGE('',*,*,#196,.T.);
#125=ORIENTED_EDGE('',*,*,#197,.T.);
#126=ORIENTED_EDGE('',*,*,#198,.T.);
#127=ORIENTED_EDGE('',*,*,#199,.T.);
#128=ORIENTED_EDGE('',*,*,#200,.T.);
#129=ORIENTED_EDGE('',*,*,#201,.T.);
#130=ORIENTED_EDGE('',*,*,#202,.T.);
#131=ORIENTED_EDGE('',*,*,#203,.T.);
#132=ORIENTED_EDGE('',*,*,#204,.T.);
#133=ORIENTED_EDGE('',*,*,#205,.T.);
#134=ORIENTED_EDGE('',*,*,#206,.T.);
#135=ORIENTED_EDGE('',*,*,#207,.T.);
#136=ORIENTED_EDGE('',*,*,#208,.F.);
#137=ORIENTED_EDGE('',*,*,#209,.F.);
#138=ORIENTED_EDGE('',*,*,#210,.F.);
#139=ORIENTED_EDGE('',*,*,#211,.F.);
#140=ORIENTED_EDGE('',*,*,#212,.F.);
#141=ORIENTED_EDGE('',*,*,#213,.F.);
#142=ORIENTED_EDGE('',*,*,#214,.F.);
#143=ORIENTED_EDGE('',*,*,#215,.F.);
#144=ORIENTED_EDGE('',*,*,#216,.T.);
#145=ORIENTED_EDGE('',*,*,#209,.T.);
#146=ORIENTED_EDGE('',*,*,#217,.F.);
#147=ORIENTED_EDGE('',*,*,#196,.F.);
#148=ORIENTED_EDGE('',*,*,#218,.T.);
#149=ORIENTED_EDGE('',*,*,#210,.T.);
#150=ORIENTED_EDGE('',*,*,#216,.F.);
#151=ORIENTED_EDGE('',*,*,#203,.F.);
#152=ORIENTED_EDGE('',*,*,#219,.T.);
#153=ORIENTED_EDGE('',*,*,#211,.T.);
#154=ORIENTED_EDGE('',*,*,#218,.F.);
#155=ORIENTED_EDGE('',*,*,#202,.F.);
#156=ORIENTED_EDGE('',*,*,#220,.T.);
#157=ORIENTED_EDGE('',*,*,#212,.T.);
#158=ORIENTED_EDGE('',*,*,#219,.F.);
#159=ORIENTED_EDGE('',*,*,#201,.F.);
#160=ORIENTED_EDGE('',*,*,#221,.T.);
#161=ORIENTED_EDGE('',*,*,#213,.T.);
#162=ORIENTED_EDGE('',*,*,#220,.F.);
#163=ORIENTED_EDGE('',*,*,#200,.F.);
#164=ORIENTED_EDGE('',*,*,#222,.T.);
#165=ORIENTED_EDGE('',*,*,#214,.T.);
#166=ORIENTED_EDGE('',*,*,#221,.F.);
#167=ORIENTED_EDGE('',*,*,#199,.F.);
#168=ORIENTED_EDGE('',*,*,#223,.T.);
#169=ORIENTED_EDGE('',*,*,#215,.T.);
#170=ORIENTED_EDGE('',*,*,#222,.F.);
#171=ORIENTED_EDGE('',*,*,#198,.F.);
#172=ORIENTED_EDGE('',*,*,#217,.T.);
#173=ORIENTED_EDGE('',*,*,#208,.T.);
#174=ORIENTED_EDGE('',*,*,#223,.F.);
#175=ORIENTED_EDGE('',*,*,#197,.F.);
#176=ORIENTED_EDGE('',*,*,#224,.T.);
#177=ORIENTED_EDGE('',*,*,#207,.F.);
#178=ORIENTED_EDGE('',*,*,#225,.F.);
#179=ORIENTED_EDGE('',*,*,#226,.T.);
#180=ORIENTED_EDGE('',*,*,#227,.T.);
#181=ORIENTED_EDGE('',*,*,#204,.F.);
#182=ORIENTED_EDGE('',*,*,#224,.F.);
#183=ORIENTED_EDGE('',*,*,#228,.T.);
#184=ORIENTED_EDGE('',*,*,#225,.T.);
#185=ORIENTED_EDGE('',*,*,#206,.F.);
#186=ORIENTED_EDGE('',*,*,#229,.F.);
#187=ORIENTED_EDGE('',*,*,#230,.T.);
#188=ORIENTED_EDGE('',*,*,#228,.F.);
#189=ORIENTED_EDGE('',*,*,#226,.F.);
#190=ORIENTED_EDGE('',*,*,#230,.F.);
#191=ORIENTED_EDGE('',*,*,#231,.F.);
#192=ORIENTED_EDGE('',*,*,#229,.T.);
#193=ORIENTED_EDGE('',*,*,#205,.F.);
#194=ORIENTED_EDGE('',*,*,#227,.F.);
#195=ORIENTED_EDGE('',*,*,#231,.T.);
#196=EDGE_CURVE('',#232,#233,#256,.T.);
#197=EDGE_CURVE('',#233,#234,#257,.T.);
#198=EDGE_CURVE('',#234,#235,#258,.T.);
#199=EDGE_CURVE('',#235,#236,#259,.T.);
#200=EDGE_CURVE('',#236,#237,#260,.T.);
#201=EDGE_CURVE('',#237,#238,#261,.T.);
#202=EDGE_CURVE('',#238,#239,#262,.T.);
#203=EDGE_CURVE('',#239,#232,#263,.T.);
#204=EDGE_CURVE('',#240,#241,#264,.F.);
#205=EDGE_CURVE('',#241,#242,#265,.F.);
#206=EDGE_CURVE('',#242,#243,#266,.F.);
#207=EDGE_CURVE('',#243,#240,#267,.F.);
#208=EDGE_CURVE('',#244,#245,#268,.T.);
#209=EDGE_CURVE('',#246,#244,#269,.T.);
#210=EDGE_CURVE('',#247,#246,#270,.T.);
#211=EDGE_CURVE('',#248,#247,#271,.T.);
#212=EDGE_CURVE('',#249,#248,#272,.T.);
#213=EDGE_CURVE('',#250,#249,#273,.T.);
#214=EDGE_CURVE('',#251,#250,#274,.T.);
#215=EDGE_CURVE('',#245,#251,#275,.T.);
#216=EDGE_CURVE('',#232,#246,#88,.F.);
#217=EDGE_CURVE('',#233,#244,#89,.F.);
#218=EDGE_CURVE('',#239,#247,#90,.F.);
#219=EDGE_CURVE('',#238,#248,#91,.F.);
#220=EDGE_CURVE('',#237,#249,#92,.F.);
#221=EDGE_CURVE('',#236,#250,#93,.F.);
#222=EDGE_CURVE('',#235,#251,#94,.F.);
#223=EDGE_CURVE('',#234,#245,#95,.F.);
#224=EDGE_CURVE('',#252,#240,#96,.F.);
#225=EDGE_CURVE('',#253,#243,#97,.F.);
#226=EDGE_CURVE('',#253,#252,#98,.T.);
#227=EDGE_CURVE('',#254,#241,#99,.F.);
#228=EDGE_CURVE('',#252,#254,#100,.T.);
#229=EDGE_CURVE('',#255,#242,#101,.F.);
#230=EDGE_CURVE('',#255,#253,#102,.T.);
#231=EDGE_CURVE('',#254,#255,#103,.T.);
#232=VERTEX_POINT('',#476);
#233=VERTEX_POINT('',#477);
#234=VERTEX_POINT('',#482);
#235=VERTEX_POINT('',#490);
#236=VERTEX_POINT('',#495);
#237=VERTEX_POINT('',#502);
#238=VERTEX_POINT('',#507);
#239=VERTEX_POINT('',#515);
#240=VERTEX_POINT('',#524);
#241=VERTEX_POINT('',#525);
#242=VERTEX_POINT('',#532);
#243=VERTEX_POINT('',#537);
#244=VERTEX_POINT('',#583);
#245=VERTEX_POINT('',#584);
#246=VERTEX_POINT('',#592);
#247=VERTEX_POINT('',#597);
#248=VERTEX_POINT('',#605);
#249=VERTEX_POINT('',#610);
#250=VERTEX_POINT('',#617);
#251=VERTEX_POINT('',#622);
#252=VERTEX_POINT('',#648);
#253=VERTEX_POINT('',#650);
#254=VERTEX_POINT('',#654);
#255=VERTEX_POINT('',#658);
#256=B_SPLINE_CURVE_WITH_KNOTS('',3,(#469,#470,#471,#472,#473,#474,#475),
 .UNSPECIFIED.,.F.,.F.,(4,1,1,1,4),(2.80081063138029E-13,0.0100540549689487,
0.0201081099376173,0.0301621649062859,0.0402162198749545),.UNSPECIFIED.);
#257=B_SPLINE_CURVE_WITH_KNOTS('',3,(#478,#479,#480,#481),.UNSPECIFIED.,
 .F.,.F.,(4,4),(1.38777878078145E-17,0.079666345919143),.UNSPECIFIED.);
#258=B_SPLINE_CURVE_WITH_KNOTS('',3,(#483,#484,#485,#486,#487,#488,#489),
 .UNSPECIFIED.,.F.,.F.,(4,1,1,1,4),(2.89483189107888E-13,0.01034772798386,
0.0206954559674305,0.0310431839510009,0.0413909119345714),.UNSPECIFIED.);
#259=B_SPLINE_CURVE_WITH_KNOTS('',3,(#491,#492,#493,#494),.UNSPECIFIED.,
 .F.,.F.,(4,4),(3.46944695195361E-17,0.0762000000017322),.UNSPECIFIED.);
#260=B_SPLINE_CURVE_WITH_KNOTS('',3,(#496,#497,#498,#499,#500,#501),
 .UNSPECIFIED.,.F.,.F.,(4,1,1,4),(2.81686100484452E-13,0.0103450935420358,
0.02069018708379,0.0413803741672983),.UNSPECIFIED.);
#261=B_SPLINE_CURVE_WITH_KNOTS('',3,(#503,#504,#505,#506),.UNSPECIFIED.,
 .F.,.F.,(4,4),(1.0772060116307E-16,0.0796663459210589),.UNSPECIFIED.);
#262=B_SPLINE_CURVE_WITH_KNOTS('',3,(#508,#509,#510,#511,#512,#513,#514),
 .UNSPECIFIED.,.F.,.F.,(4,1,1,1,4),(1.01980496663289E-16,0.0100530585888068,
0.0201061171776134,0.0301591757664201,0.0402122343552268),.UNSPECIFIED.);
#263=B_SPLINE_CURVE_WITH_KNOTS('',3,(#516,#517,#518,#519),.UNSPECIFIED.,
 .F.,.F.,(4,4),(1.38777878078145E-17,0.0761999999999999),.UNSPECIFIED.);
#264=B_SPLINE_CURVE_WITH_KNOTS('',3,(#520,#521,#522,#523),.UNSPECIFIED.,
 .F.,.F.,(4,4),(0.,0.106130489744296),.UNSPECIFIED.);
#265=B_SPLINE_CURVE_WITH_KNOTS('',3,(#526,#527,#528,#529,#530,#531),
 .UNSPECIFIED.,.F.,.F.,(4,1,1,4),(2.08166817117217E-17,0.05081801063871,
0.076227015958065,0.10163602127742),.UNSPECIFIED.);
#266=B_SPLINE_CURVE_WITH_KNOTS('',3,(#533,#534,#535,#536),.UNSPECIFIED.,
 .F.,.F.,(4,4),(1.27946881663023E-16,0.106130489744296),.UNSPECIFIED.);
#267=B_SPLINE_CURVE_WITH_KNOTS('',3,(#538,#539,#540,#541,#542),
 .UNSPECIFIED.,.F.,.F.,(4,1,4),(0.,0.0508,0.1016),.UNSPECIFIED.);
#268=B_SPLINE_CURVE_WITH_KNOTS('',3,(#579,#580,#581,#582),.UNSPECIFIED.,
 .F.,.F.,(4,4),(5.7219584981528E-17,0.0796280232900191),.UNSPECIFIED.);
#269=B_SPLINE_CURVE_WITH_KNOTS('',3,(#585,#586,#587,#588,#589,#590,#591),
 .UNSPECIFIED.,.F.,.F.,(4,1,1,1,4),(0.,0.0100537572258271,0.0201075144516543,
0.0301612716774814,0.0402150289033086),.UNSPECIFIED.);
#270=B_SPLINE_CURVE_WITH_KNOTS('',3,(#593,#594,#595,#596),.UNSPECIFIED.,
 .F.,.F.,(4,4),(3.46944695195361E-17,0.0761999999999999),.UNSPECIFIED.);
#271=B_SPLINE_CURVE_WITH_KNOTS('',3,(#598,#599,#600,#601,#602,#603,#604),
 .UNSPECIFIED.,.F.,.F.,(4,1,1,1,4),(1.01980496663289E-16,0.0100526665765858,
0.0201053331531715,0.0301579997297571,0.0402106663063428),.UNSPECIFIED.);
#272=B_SPLINE_CURVE_WITH_KNOTS('',3,(#606,#607,#608,#609),.UNSPECIFIED.,
 .F.,.F.,(4,4),(0.,0.0796280232919298),.UNSPECIFIED.);
#273=B_SPLINE_CURVE_WITH_KNOTS('',3,(#611,#612,#613,#614,#615,#616),
 .UNSPECIFIED.,.F.,.F.,(4,1,1,4),(2.81730655346943E-13,0.0103322791956565,
0.0206645583910312,0.0413291167817808),.UNSPECIFIED.);
#274=B_SPLINE_CURVE_WITH_KNOTS('',3,(#618,#619,#620,#621),.UNSPECIFIED.,
 .F.,.F.,(4,4),(6.93889390390723E-18,0.0762000000017321),.UNSPECIFIED.);
#275=B_SPLINE_CURVE_WITH_KNOTS('',3,(#623,#624,#625,#626,#627,#628,#629),
 .UNSPECIFIED.,.F.,.F.,(4,1,1,1,4),(2.89578850675113E-13,0.0103348155221953,
0.0206696310441011,0.0310044465660068,0.0413392620879125),.UNSPECIFIED.);
#276=EDGE_LOOP('',(#124,#125,#126,#127,#128,#129,#130,#131));
#277=EDGE_LOOP('',(#132,#133,#134,#135));
#278=EDGE_LOOP('',(#136,#137,#138,#139,#140,#141,#142,#143));
#279=EDGE_LOOP('',(#144,#145,#146,#147));
#280=EDGE_LOOP('',(#148,#149,#150,#151));
#281=EDGE_LOOP('',(#152,#153,#154,#155));
#282=EDGE_LOOP('',(#156,#157,#158,#159));
#283=EDGE_LOOP('',(#160,#161,#162,#163));
#284=EDGE_LOOP('',(#164,#165,#166,#167));
#285=EDGE_LOOP('',(#168,#169,#170,#171));
#286=EDGE_LOOP('',(#172,#173,#174,#175));
#287=EDGE_LOOP('',(#176,#177,#178,#179));
#288=EDGE_LOOP('',(#180,#181,#182,#183));
#289=EDGE_LOOP('',(#184,#185,#186,#187));
#290=EDGE_LOOP('',(#188,#189,#190,#191));
#291=EDGE_LOOP('',(#192,#193,#194,#195));
#292=FACE_BOUND('',#276,.T.);
#293=FACE_BOUND('',#277,.T.);
#294=FACE_BOUND('',#278,.T.);
#295=FACE_BOUND('',#279,.T.);
#296=FACE_BOUND('',#280,.T.);
#297=FACE_BOUND('',#281,.T.);
#298=FACE_BOUND('',#282,.T.);
#299=FACE_BOUND('',#283,.T.);
#300=FACE_BOUND('',#284,.T.);
#301=FACE_BOUND('',#285,.T.);
#302=FACE_BOUND('',#286,.T.);
#303=FACE_BOUND('',#287,.T.);
#304=FACE_BOUND('',#288,.T.);
#305=FACE_BOUND('',#289,.T.);
#306=FACE_BOUND('',#290,.T.);
#307=FACE_BOUND('',#291,.T.);
#308=B_SPLINE_SURFACE_WITH_KNOTS('',3,3,((#444,#445,#446,#447,#448),(#449,
#450,#451,#452,#453),(#454,#455,#456,#457,#458),(#459,#460,#461,#462,#463),
(#464,#465,#466,#467,#468)),.UNSPECIFIED.,.F.,.F.,.F.,(4,1,4),(4,1,4),(0.301614795124244,
0.349520707578656,0.397426620033067),(6.03824416989725,6.28312004202713,
6.52799591415702),.UNSPECIFIED.);
#309=B_SPLINE_SURFACE_WITH_KNOTS('',3,3,((#543,#544,#545,#546,#547,#548,
#549,#550,#551),(#552,#553,#554,#555,#556,#557,#558,#559,#560),(#561,#562,
#563,#564,#565,#566,#567,#568,#569),(#570,#571,#572,#573,#574,#575,#576,
#577,#578)),.UNSPECIFIED.,.F.,.F.,.F.,(4,4),(4,1,3,1,4),(0.299805400798787,
0.394610922636676),(6.04730422845684,6.08683576633022,6.28318530717959,
6.47953484802895,6.51894342687165),.UNSPECIFIED.);
#310=ADVANCED_FACE('',(#292,#293),#308,.T.);
#311=ADVANCED_FACE('',(#294),#309,.F.);
#312=ADVANCED_FACE('',(#295),#120,.T.);
#313=ADVANCED_FACE('',(#296),#79,.T.);
#314=ADVANCED_FACE('',(#297),#121,.T.);
#315=ADVANCED_FACE('',(#298),#80,.T.);
#316=ADVANCED_FACE('',(#299),#122,.T.);
#317=ADVANCED_FACE('',(#300),#81,.T.);
#318=ADVANCED_FACE('',(#301),#123,.T.);
#319=ADVANCED_FACE('',(#302),#82,.T.);
#320=ADVANCED_FACE('',(#303),#83,.F.);
#321=ADVANCED_FACE('',(#304),#84,.F.);
#322=ADVANCED_FACE('',(#305),#85,.F.);
#323=ADVANCED_FACE('',(#306),#86,.F.);
#324=ADVANCED_FACE('',(#307),#87,.F.);
#325=CLOSED_SHELL('',(#310,#311,#312,#313,#314,#315,#316,#317,#318,#319,
#320,#321,#322,#323,#324));
#326=STYLED_ITEM('',(#327),#334);
#327=PRESENTATION_STYLE_ASSIGNMENT((#328));
#328=SURFACE_STYLE_USAGE(.BOTH.,#329);
#329=SURFACE_SIDE_STYLE('',(#330));
#330=SURFACE_STYLE_FILL_AREA(#331);
#331=FILL_AREA_STYLE('',(#332));
#332=FILL_AREA_STYLE_COLOUR('',#333);
#333=COLOUR_RGB('',0.596078431372549,0.788235294117647,0.92156862745098);
#334=MANIFOLD_SOLID_BREP('Part 1',#325);
#335=SHAPE_DEFINITION_REPRESENTATION(#696,#336);
#336=SHAPE_REPRESENTATION('Hull Service Hatch-Buoy',(#337),#688);
#337=AXIS2_PLACEMENT_3D('',#443,#367,#368);
#338=AXIS2_PLACEMENT_3D('',#630,#369,#370);
#339=AXIS2_PLACEMENT_3D('',#633,#373,#374);
#340=AXIS2_PLACEMENT_3D('',#635,#376,#377);
#341=AXIS2_PLACEMENT_3D('',#637,#379,#380);
#342=AXIS2_PLACEMENT_3D('',#639,#382,#383);
#343=AXIS2_PLACEMENT_3D('',#641,#385,#386);
#344=AXIS2_PLACEMENT_3D('',#643,#388,#389);
#345=AXIS2_PLACEMENT_3D('',#645,#391,#392);
#346=AXIS2_PLACEMENT_3D('',#646,#393,#394);
#347=AXIS2_PLACEMENT_3D('',#652,#398,#399);
#348=AXIS2_PLACEMENT_3D('',#656,#402,#403);
#349=AXIS2_PLACEMENT_3D('',#660,#406,#407);
#350=AXIS2_PLACEMENT_3D('',#662,#409,#410);
#351=AXIS2_PLACEMENT_3D('',#663,#411,#412);
#352=AXIS2_PLACEMENT_3D('',#665,#413,#414);
#353=AXIS2_PLACEMENT_3D('',#666,#415,#416);
#354=AXIS2_PLACEMENT_3D('',#668,#417,#418);
#355=AXIS2_PLACEMENT_3D('',#669,#419,#420);
#356=AXIS2_PLACEMENT_3D('',#671,#421,#422);
#357=AXIS2_PLACEMENT_3D('',#672,#423,#424);
#358=AXIS2_PLACEMENT_3D('',#674,#425,#426);
#359=AXIS2_PLACEMENT_3D('',#675,#427,#428);
#360=AXIS2_PLACEMENT_3D('',#677,#429,#430);
#361=AXIS2_PLACEMENT_3D('',#678,#431,#432);
#362=AXIS2_PLACEMENT_3D('',#680,#433,#434);
#363=AXIS2_PLACEMENT_3D('',#681,#435,#436);
#364=AXIS2_PLACEMENT_3D('',#683,#437,#438);
#365=AXIS2_PLACEMENT_3D('',#684,#439,#440);
#366=AXIS2_PLACEMENT_3D('',#686,#441,#442);
#367=DIRECTION('',(0.,0.,1.));
#368=DIRECTION('',(1.,0.,0.));
#369=DIRECTION('',(0.,0.,-1.));
#370=DIRECTION('',(-1.,0.,0.));
#371=DIRECTION('',(0.,0.,-1.));
#372=DIRECTION('',(0.,0.,-1.));
#373=DIRECTION('',(0.,-1.,0.));
#374=DIRECTION('',(0.,0.,-1.));
#375=DIRECTION('',(0.,0.,-1.));
#376=DIRECTION('',(0.,0.,-1.));
#377=DIRECTION('',(-1.,0.,0.));
#378=DIRECTION('',(0.,0.,-1.));
#379=DIRECTION('',(1.,-1.4569855965547E-15,0.));
#380=DIRECTION('',(1.4569855965547E-15,1.,0.));
#381=DIRECTION('',(0.,0.,-1.));
#382=DIRECTION('',(0.,0.,-1.));
#383=DIRECTION('',(-1.,0.,0.));
#384=DIRECTION('',(0.,0.,-1.));
#385=DIRECTION('',(0.,1.,0.));
#386=DIRECTION('',(0.,0.,1.));
#387=DIRECTION('',(0.,0.,-1.));
#388=DIRECTION('',(0.,0.,-1.));
#389=DIRECTION('',(-1.,0.,0.));
#390=DIRECTION('',(0.,0.,-1.));
#391=DIRECTION('',(-1.,1.45698559658782E-15,0.));
#392=DIRECTION('',(-1.45698559658782E-15,-1.,0.));
#393=DIRECTION('',(0.,-1.,0.));
#394=DIRECTION('',(0.,0.,-1.));
#395=DIRECTION('',(0.,0.,-1.));
#396=DIRECTION('',(0.,0.,-1.));
#397=DIRECTION('',(-1.,0.,0.));
#398=DIRECTION('',(1.,-1.36592399683213E-15,0.));
#399=DIRECTION('',(1.36592399683213E-15,1.,0.));
#400=DIRECTION('',(0.,0.,-1.));
#401=DIRECTION('',(-1.36592399683213E-15,-1.,0.));
#402=DIRECTION('',(-1.,1.36592399683213E-15,0.));
#403=DIRECTION('',(-1.36592399683213E-15,-1.,0.));
#404=DIRECTION('',(0.,0.,-1.));
#405=DIRECTION('',(1.36592399683213E-15,1.,0.));
#406=DIRECTION('',(0.,0.,1.));
#407=DIRECTION('',(1.,0.,0.));
#408=DIRECTION('',(1.,0.,0.));
#409=DIRECTION('',(0.,1.,0.));
#410=DIRECTION('',(0.,0.,1.));
#411=DIRECTION('',(0.,0.,-1.));
#412=DIRECTION('',(-1.,0.,0.));
#413=DIRECTION('',(0.,0.,1.));
#414=DIRECTION('',(1.,0.,0.));
#415=DIRECTION('',(0.,1.,0.));
#416=DIRECTION('',(-1.,0.,0.));
#417=DIRECTION('',(0.,0.,1.));
#418=DIRECTION('',(1.,0.,0.));
#419=DIRECTION('',(-1.,0.,0.));
#420=DIRECTION('',(0.,-1.,0.));
#421=DIRECTION('',(0.,0.,1.));
#422=DIRECTION('',(1.,0.,0.));
#423=DIRECTION('',(0.,-1.,0.));
#424=DIRECTION('',(1.,0.,0.));
#425=DIRECTION('',(0.,0.,1.));
#426=DIRECTION('',(1.,0.,0.));
#427=DIRECTION('',(0.,0.,1.));
#428=DIRECTION('',(-1.,0.,0.));
#429=DIRECTION('',(0.,0.,1.));
#430=DIRECTION('',(1.,0.,0.));
#431=DIRECTION('',(1.,0.,0.));
#432=DIRECTION('',(0.,1.,0.));
#433=DIRECTION('',(0.,0.,1.));
#434=DIRECTION('',(1.,0.,0.));
#435=DIRECTION('',(-0.577350269189626,0.577350269189626,-0.577350269189626));
#436=DIRECTION('',(-0.707106782787203,-0.707106779585892,3.2013104944717E-9));
#437=DIRECTION('',(0.,0.,1.));
#438=DIRECTION('',(1.,0.,0.));
#439=DIRECTION('',(-0.718873086818576,0.585048618558824,-0.375419230954334));
#440=DIRECTION('',(-0.631219054305384,-0.775604606408327,-3.59593687881965E-8));
#441=DIRECTION('',(0.,0.,1.));
#442=DIRECTION('',(1.,0.,0.));
#443=CARTESIAN_POINT('',(0.,0.,0.));
#444=CARTESIAN_POINT('',(2.82035446479928,2.50000009025595,5.18248766183263));
#445=CARTESIAN_POINT('',(1.89946454670456,2.50000016824833,5.41288495281117));
#446=CARTESIAN_POINT('',(0.000766479660868195,2.50000040773275,5.64630812816503));
#447=CARTESIAN_POINT('',(-1.89796157398156,2.50000016660372,5.41313256793309));
#448=CARTESIAN_POINT('',(-2.81888163094441,2.50000009096773,5.18285580308542));
#449=CARTESIAN_POINT('',(2.76428882808836,1.64228107954252,4.95818889442557));
#450=CARTESIAN_POINT('',(1.8617063257289,1.64228115980004,5.18400588107758));
#451=CARTESIAN_POINT('',(0.000751240101649597,1.6422814062398,5.41278930045498));
#452=CARTESIAN_POINT('',(-1.86023322989285,1.64228115810766,5.18424857370553));
#453=CARTESIAN_POINT('',(-2.76284527211212,1.64228108027497,4.95854971756166));
#454=CARTESIAN_POINT('',(2.6470744722807,-0.0571122808474577,4.48925577067991));
#455=CARTESIAN_POINT('',(1.78276662511498,-0.057112196466161,4.70549688008949));
#456=CARTESIAN_POINT('',(0.000719379275148007,-0.0571119373638767,4.92458013938915));
#457=CARTESIAN_POINT('',(-1.78135599177445,-0.0571121982454881,4.70572928144285));
#458=CARTESIAN_POINT('',(-2.64569212647576,-0.0571122800773703,4.48960129409999));
#459=CARTESIAN_POINT('',(2.5221390014863,-1.71398033144117,3.98943324607791));
#460=CARTESIAN_POINT('',(1.69862706040158,-1.71398024361918,4.19546769067285));
#461=CARTESIAN_POINT('',(0.000685419640134401,-1.71397997395187,4.40421183523324));
#462=CARTESIAN_POINT('',(-1.69728300405471,-1.71398024547106,4.19568912285047));
#463=CARTESIAN_POINT('',(-2.52082189785877,-1.71398033063968,3.98976246196346));
#464=CARTESIAN_POINT('',(2.45835266593276,-2.52917796099265,3.73424674223433));
#465=CARTESIAN_POINT('',(1.65566925528352,-2.52917787159303,3.93507012900006));
#466=CARTESIAN_POINT('',(0.000668081386279401,-2.52917759708145,4.1385355972503));
#467=CARTESIAN_POINT('',(-1.65435919010016,-2.52917787347818,3.93528596081907));
#468=CARTESIAN_POINT('',(-2.4570688719728,-2.52917796017676,3.73456763223897));
#469=CARTESIAN_POINT('',(-1.50000000000015,-2.50000000006819,3.93476325656873));
#470=CARTESIAN_POINT('',(-1.63232390542356,-2.50000000006819,3.91499349223092));
#471=CARTESIAN_POINT('',(-1.89507338994356,-2.4474712981339,3.88730432278905));
#472=CARTESIAN_POINT('',(-2.23204284604755,-2.21997815373324,3.89119189072279));
#473=CARTESIAN_POINT('',(-2.45121429853753,-1.8831979516534,3.94902395027816));
#474=CARTESIAN_POINT('',(-2.50000000000015,-1.62729592298402,4.0197259371803));
#475=CARTESIAN_POINT('',(-2.50000000000015,-1.50000000006819,4.06069037766494));
#476=CARTESIAN_POINT('',(-1.50000000000015,-2.49999999999999,3.93476325656873));
#477=CARTESIAN_POINT('',(-2.50000000000015,-1.50000000006819,4.06069037766494));
#478=CARTESIAN_POINT('',(-2.50000000000015,-1.50000000006819,4.06069037766494));
#479=CARTESIAN_POINT('',(-2.50000000000014,-0.504656742761778,4.38099662700709));
#480=CARTESIAN_POINT('',(-2.50000000000014,0.495189414437231,4.68654121847128));
#481=CARTESIAN_POINT('',(-2.50000000000014,1.50000000000001,4.97581114361839));
#482=CARTESIAN_POINT('',(-2.50000000000014,1.50000000000001,4.975811143603));
#483=CARTESIAN_POINT('',(-2.50000000006833,1.50000000000001,4.975811143603));
#484=CARTESIAN_POINT('',(-2.50000000006833,1.63243570509095,5.01393740048062));
#485=CARTESIAN_POINT('',(-2.44795492476282,1.88971022955702,5.09928452633636));
#486=CARTESIAN_POINT('',(-2.23162609574105,2.21845713643048,5.2371945042521));
#487=CARTESIAN_POINT('',(-1.90331641910473,2.44367346496252,5.35961994152873));
#488=CARTESIAN_POINT('',(-1.63679270495173,2.50000000000001,5.41470158491737));
#489=CARTESIAN_POINT('',(-1.50000000006833,2.50000000000001,5.43248604396683));
#490=CARTESIAN_POINT('',(-1.50000000006834,2.50000000000001,5.43248604396683));
#491=CARTESIAN_POINT('',(-1.50000000006834,2.50000000000001,5.43248604396683));
#492=CARTESIAN_POINT('',(-0.500000000045992,2.50000000000001,5.56249633263694));
#493=CARTESIAN_POINT('',(0.49999999997674,2.50000000000001,5.56249633263992));
#494=CARTESIAN_POINT('',(1.49999999999986,2.50000000000001,5.43248604397573));
#495=CARTESIAN_POINT('',(1.49999999999986,2.50000000000001,5.43248604399427));
#496=CARTESIAN_POINT('',(1.49999999999986,2.50000000006821,5.43248604399427));
#497=CARTESIAN_POINT('',(1.63668075159771,2.50000000006821,5.41471614002463));
#498=CARTESIAN_POINT('',(1.90246672887369,2.44405341314235,5.35988782973413));
#499=CARTESIAN_POINT('',(2.34144664383054,2.14322288284763,5.19616856301236));
#500=CARTESIAN_POINT('',(2.49999999999986,1.76460727753445,5.05198761753835));
#501=CARTESIAN_POINT('',(2.49999999999986,1.5000000000682,4.97581114363809));
#502=CARTESIAN_POINT('',(2.49999999999986,1.50000000006821,4.97581114363808));
#503=CARTESIAN_POINT('',(2.49999999999986,1.5000000000682,4.97581114363808));
#504=CARTESIAN_POINT('',(2.49999999999986,0.495189414481037,4.68654121848476));
#505=CARTESIAN_POINT('',(2.49999999999985,-0.504656742737824,4.38099662701487));
#506=CARTESIAN_POINT('',(2.49999999999985,-1.50000000006818,4.06069037766502));
#507=CARTESIAN_POINT('',(2.49999999999985,-1.50000000006818,4.06069037766501));
#508=CARTESIAN_POINT('',(2.49999999999985,-1.50000000006818,4.06069037766501));
#509=CARTESIAN_POINT('',(2.49999999999985,-1.62729364125952,4.01972667145029));
#510=CARTESIAN_POINT('',(2.45154842576199,-1.88216094329648,3.94928003732679));
#511=CARTESIAN_POINT('',(2.23257679358855,-2.21940022668332,3.89125318718301));
#512=CARTESIAN_POINT('',(1.89632124561192,-2.44704250483514,3.88721626138503));
#513=CARTESIAN_POINT('',(1.63236858338376,-2.50000000006819,3.91498681715025));
#514=CARTESIAN_POINT('',(1.49999999999985,-2.50000000006819,3.93476325656878));
#515=CARTESIAN_POINT('',(1.49999999999985,-2.50000000006818,3.93476325659101));
#516=CARTESIAN_POINT('',(1.49999999999985,-2.49999999999999,3.93476325659101));
#517=CARTESIAN_POINT('',(0.499999999999848,-2.49999999999999,4.08416758587304));
#518=CARTESIAN_POINT('',(-0.500000000000154,-2.5,4.08416758587302));
#519=CARTESIAN_POINT('',(-1.50000000000015,-2.5,3.93476325659096));
#520=CARTESIAN_POINT('',(-2.00000000000015,-1.99999999999999,4.01033102191113));
#521=CARTESIAN_POINT('',(-2.00000000000015,-0.674616707446978,4.43925478327029));
#522=CARTESIAN_POINT('',(-2.00000000000014,0.658330943262361,4.84312650481633));
#523=CARTESIAN_POINT('',(-2.00000000000014,2.00000000000002,5.2181142144564));
#524=CARTESIAN_POINT('',(-2.00000000000014,2.00000000000001,5.21811421445639));
#525=CARTESIAN_POINT('',(-2.00000000000015,-1.99999999999999,4.01033102191113));
#526=CARTESIAN_POINT('',(1.99999999999985,-1.99999999999999,4.01033102191119));
#527=CARTESIAN_POINT('',(1.33635426189055,-1.99999999999999,4.1415985244755));
#528=CARTESIAN_POINT('',(0.338038320946851,-1.99999999999999,4.23829503216811));
#529=CARTESIAN_POINT('',(-0.997460346975319,-1.99999999999999,4.17434332075605));
#530=CARTESIAN_POINT('',(-1.66818081445919,-2.,4.0759640446033));
#531=CARTESIAN_POINT('',(-2.00000000000015,-2.,4.01033102191113));
#532=CARTESIAN_POINT('',(1.99999999999985,-1.99999999999999,4.0103310219112));
#533=CARTESIAN_POINT('',(1.99999999999986,2.00000000000001,5.21811421445644));
#534=CARTESIAN_POINT('',(1.99999999999986,0.658330943262358,4.84312650481638));
#535=CARTESIAN_POINT('',(1.99999999999985,-0.674616707446972,4.43925478327035));
#536=CARTESIAN_POINT('',(1.99999999999985,-1.99999999999998,4.01033102191119));
#537=CARTESIAN_POINT('',(1.99999999999986,2.00000000000001,5.21811421445646));
#538=CARTESIAN_POINT('',(-2.00000000000014,2.00000000000001,5.21811421445639));
#539=CARTESIAN_POINT('',(-1.33333333333348,2.00000000000001,5.33587651236757));
#540=CARTESIAN_POINT('',(-7.90869994165804E-14,2.00000000000002,5.45103970428884));
#541=CARTESIAN_POINT('',(1.33333333333319,2.00000000000002,5.33587651236761));
#542=CARTESIAN_POINT('',(1.99999999999986,2.00000000000002,5.21811421445644));
#543=CARTESIAN_POINT('',(2.80878788085366,2.50000000000459,5.58515498406427));
#544=CARTESIAN_POINT('',(2.65480210427122,2.50000000000459,5.62217623604076));
#545=CARTESIAN_POINT('',(1.7316195279225,2.50000000000459,5.82491460109541));
#546=CARTESIAN_POINT('',(0.786623352991406,2.50000000000459,5.91798860053153));
#547=CARTESIAN_POINT('',(-3.4899358119061E-14,2.50000000000459,5.91798860053153));
#548=CARTESIAN_POINT('',(-0.786623352991415,2.50000000000459,5.91798860053153));
#549=CARTESIAN_POINT('',(-1.73112692455517,2.50000000000459,5.82496311829236));
#550=CARTESIAN_POINT('',(-2.65383963339883,2.50000000000459,5.622387571333));
#551=CARTESIAN_POINT('',(-2.80735098597327,2.50000000000459,5.5855003487973));
#552=CARTESIAN_POINT('',(2.7018142300759,0.794791785659672,5.14009021024071));
#553=CARTESIAN_POINT('',(2.55369305466223,0.794791785659672,5.17570149512524));
#554=CARTESIAN_POINT('',(1.66567020368815,0.794791785659672,5.37071849994103));
#555=CARTESIAN_POINT('',(0.756664532522927,0.794791785659672,5.46024774415372));
#556=CARTESIAN_POINT('',(-3.3670026521912E-14,0.794791785659672,5.46024774415372));
#557=CARTESIAN_POINT('',(-0.756664532522937,0.794791785659672,5.46024774415372));
#558=CARTESIAN_POINT('',(-1.66519636128919,0.794791785659672,5.37076516934388));
#559=CARTESIAN_POINT('',(-2.55276723982346,0.794791785659672,5.17590478164032));
#560=CARTESIAN_POINT('',(-2.70043205983035,0.794791785659672,5.14042242163931));
#561=CARTESIAN_POINT('',(2.58516883961397,-0.878549823190169,4.65478608211146));
#562=CARTESIAN_POINT('',(2.44344249777156,-0.878549823190169,4.68885992145886));
#563=CARTESIAN_POINT('',(1.59375824574256,-0.878549823190169,4.87545745967319));
#564=CARTESIAN_POINT('',(0.723997064544437,-0.878549823190169,4.96112145899498));
#565=CARTESIAN_POINT('',(-3.22358063252383E-14,-0.878549823190169,4.96112145899498));
#566=CARTESIAN_POINT('',(-0.723997064544445,-0.878549823190169,4.96112145899498));
#567=CARTESIAN_POINT('',(-1.5933048605353,-0.878549823190169,4.87550211421852));
#568=CARTESIAN_POINT('',(-2.44255665312472,-0.878549823190169,4.68905443148787));
#569=CARTESIAN_POINT('',(-2.58384634178637,-0.878549823190169,4.65510395095169));
#570=CARTESIAN_POINT('',(2.46343192457604,-2.5000000000682,4.14829862315864));
#571=CARTESIAN_POINT('',(2.32837954822909,-2.5000000000682,4.18076790808697));
#572=CARTESIAN_POINT('',(1.51870735963411,-2.5000000000682,4.35857847335478));
#573=CARTESIAN_POINT('',(0.68990367467234,-2.5000000000682,4.44020851139426));
#574=CARTESIAN_POINT('',(-3.0733289928723E-14,-2.5000000000682,4.44020851139425));
#575=CARTESIAN_POINT('',(-0.689903674672348,-2.5000000000682,4.44020851139425));
#576=CARTESIAN_POINT('',(-1.51827532456678,-2.5000000000682,4.35862102509486));
#577=CARTESIAN_POINT('',(-2.32753541845706,-2.5000000000682,4.18095325853982));
#578=CARTESIAN_POINT('',(-2.46217170384355,-2.5000000000682,4.14860152339357));
#579=CARTESIAN_POINT('',(-2.50000000000015,-1.50000000006819,4.46478751416704));
#580=CARTESIAN_POINT('',(-2.50000000000014,-0.504603001874498,4.78327537815716));
#581=CARTESIAN_POINT('',(-2.50000000000014,0.495241118563656,5.08710137175979));
#582=CARTESIAN_POINT('',(-2.50000000000014,1.50000000000001,5.37472372064151));
#583=CARTESIAN_POINT('',(-2.50000000000015,-1.50000000006819,4.46478751416705));
#584=CARTESIAN_POINT('',(-2.50000000000014,1.50000000000001,5.37472372062665));
#585=CARTESIAN_POINT('',(-1.50000000000015,-2.50000000006819,4.33291077367134));
#586=CARTESIAN_POINT('',(-1.63243111344969,-2.50000000006819,4.31387966670681));
#587=CARTESIAN_POINT('',(-1.89533680154283,-2.44737741721407,4.28783635249853));
#588=CARTESIAN_POINT('',(-2.23218297174306,-2.21979559535657,4.29414024126905));
#589=CARTESIAN_POINT('',(-2.45117217286782,-1.88322826973251,4.3533642480203));
#590=CARTESIAN_POINT('',(-2.50000000000015,-1.62735892719429,4.42403766989981));
#591=CARTESIAN_POINT('',(-2.50000000000015,-1.50000000006819,4.46478751416705));
#592=CARTESIAN_POINT('',(-1.50000000000015,-2.50000000006819,4.33291077367134));
#593=CARTESIAN_POINT('',(1.49999999999985,-2.49999999999999,4.33291077369352));
#594=CARTESIAN_POINT('',(0.499999999999847,-2.49999999999999,4.47661648203323));
#595=CARTESIAN_POINT('',(-0.50000000000015,-2.5,4.47661648203321));
#596=CARTESIAN_POINT('',(-1.50000000000015,-2.5,4.33291077369347));
#597=CARTESIAN_POINT('',(1.49999999999985,-2.50000000006818,4.33291077369352));
#598=CARTESIAN_POINT('',(2.49999999999985,-1.50000000006818,4.46478751416712));
#599=CARTESIAN_POINT('',(2.49999999999985,-1.62736010327234,4.42403729360119));
#600=CARTESIAN_POINT('',(2.45151095473925,-1.88218101605616,4.35362381814625));
#601=CARTESIAN_POINT('',(2.23271083200747,-2.21922312736738,4.2942049761891));
#602=CARTESIAN_POINT('',(1.89659926264811,-2.44694080630861,4.28775623998133));
#603=CARTESIAN_POINT('',(1.63247855317271,-2.50000000006819,4.31387284934782));
#604=CARTESIAN_POINT('',(1.49999999999985,-2.50000000006819,4.33291077367139));
#605=CARTESIAN_POINT('',(2.49999999999985,-1.50000000006818,4.46478751416712));
#606=CARTESIAN_POINT('',(2.49999999999986,1.50000000006821,5.37472372066109));
#607=CARTESIAN_POINT('',(2.49999999999986,0.495241118607529,5.08710137177321));
#608=CARTESIAN_POINT('',(2.49999999999985,-0.504603001850599,4.78327537816487));
#609=CARTESIAN_POINT('',(2.49999999999985,-1.50000000006818,4.46478751416711));
#610=CARTESIAN_POINT('',(2.49999999999986,1.50000000006821,5.37472372066109));
#611=CARTESIAN_POINT('',(1.49999999999986,2.5000000000682,5.82397757314394));
#612=CARTESIAN_POINT('',(1.63658125723686,2.5000000000682,5.80680287990715));
#613=CARTESIAN_POINT('',(1.90231329954148,2.44412931864723,5.75338551143549));
#614=CARTESIAN_POINT('',(2.34155002846205,2.14320969040052,5.59273501243938));
#615=CARTESIAN_POINT('',(2.49999999999985,1.76438797472865,5.45040744109659));
#616=CARTESIAN_POINT('',(2.49999999999985,1.50000000006821,5.37472372066109));
#617=CARTESIAN_POINT('',(1.49999999999986,2.50000000000001,5.82397757314394));
#618=CARTESIAN_POINT('',(-1.50000000006834,2.50000000000001,5.82397757311688));
#619=CARTESIAN_POINT('',(-0.500000000045966,2.50000000000001,5.94972464548563));
#620=CARTESIAN_POINT('',(0.49999999997677,2.50000000000002,5.9497246454885));
#621=CARTESIAN_POINT('',(1.49999999999986,2.50000000000002,5.82397757312549));
#622=CARTESIAN_POINT('',(-1.50000000006834,2.50000000000001,5.82397757311688));
#623=CARTESIAN_POINT('',(-2.50000000006834,1.50000000000002,5.37472372062665));
#624=CARTESIAN_POINT('',(-2.50000000006834,1.63232387702307,5.41260276307727));
#625=CARTESIAN_POINT('',(-2.44803512754214,1.8895346482728,5.49708632666762));
#626=CARTESIAN_POINT('',(-2.23166839222601,2.21845344286283,5.63298689685651));
#627=CARTESIAN_POINT('',(-1.90318544292729,2.44374341856783,5.75311837458976));
#628=CARTESIAN_POINT('',(-1.63669209955506,2.50000000000001,5.80678894179087));
#629=CARTESIAN_POINT('',(-1.50000000006833,2.50000000000001,5.82397757311688));
#630=CARTESIAN_POINT('',(-1.50000000000015,-1.50000000006819,15.8524344758064));
#631=CARTESIAN_POINT('',(-1.50000000000015,-2.49999999999999,15.8524344758064));
#632=CARTESIAN_POINT('',(-2.50000000000015,-1.50000000006819,15.8524344758064));
#633=CARTESIAN_POINT('',(1.49999999999985,-2.49999999999999,15.8524344758064));
#634=CARTESIAN_POINT('',(1.49999999999985,-2.50000000006818,15.8524344758064));
#635=CARTESIAN_POINT('',(1.49999999999985,-1.50000000006818,15.8524344758064));
#636=CARTESIAN_POINT('',(2.49999999999985,-1.50000000006818,15.8524344758064));
#637=CARTESIAN_POINT('',(2.49999999999986,1.5000000000682,15.8524344758064));
#638=CARTESIAN_POINT('',(2.49999999999986,1.50000000006821,15.8524344758064));
#639=CARTESIAN_POINT('',(1.49999999999986,1.50000000006821,15.8524344758064));
#640=CARTESIAN_POINT('',(1.49999999999986,2.50000000000001,15.8524344758064));
#641=CARTESIAN_POINT('',(-1.50000000006834,2.50000000000001,15.8524344758064));
#642=CARTESIAN_POINT('',(-1.50000000006834,2.50000000000001,15.8524344758064));
#643=CARTESIAN_POINT('',(-1.50000000006834,1.50000000000001,15.8524344758064));
#644=CARTESIAN_POINT('',(-2.50000000000014,1.50000000000001,15.8524344758064));
#645=CARTESIAN_POINT('',(-2.50000000000015,-1.50000000006819,15.8524344758064));
#646=CARTESIAN_POINT('',(1.99999999999986,2.00000000000001,113.286031567906));
#647=CARTESIAN_POINT('',(-2.00000000000014,2.00000000000001,113.286031567906));
#648=CARTESIAN_POINT('',(-2.00000000000014,2.00000000000001,0.0103344758063525));
#649=CARTESIAN_POINT('',(1.99999999999986,2.00000000000001,113.286031567906));
#650=CARTESIAN_POINT('',(1.99999999999986,2.00000000000001,0.0103344758063525));
#651=CARTESIAN_POINT('',(1.99999999999986,2.00000000000001,0.0103344758063525));
#652=CARTESIAN_POINT('',(-2.00000000000014,2.00000000000001,113.286031567906));
#653=CARTESIAN_POINT('',(-2.00000000000015,-1.99999999999999,113.286031567906));
#654=CARTESIAN_POINT('',(-2.00000000000015,-1.99999999999999,0.0103344758063525));
#655=CARTESIAN_POINT('',(-2.00000000000014,2.00000000000001,0.0103344758063525));
#656=CARTESIAN_POINT('',(1.99999999999985,-1.99999999999999,113.286031567906));
#657=CARTESIAN_POINT('',(1.99999999999985,-1.99999999999999,113.286031567906));
#658=CARTESIAN_POINT('',(1.99999999999985,-1.99999999999999,0.0103344758063525));
#659=CARTESIAN_POINT('',(1.99999999999985,-1.99999999999999,0.0103344758063525));
#660=CARTESIAN_POINT('',(0.,20.5,0.0103344758063525));
#661=CARTESIAN_POINT('',(-2.00000000000015,-1.99999999999999,0.0103344758063525));
#662=CARTESIAN_POINT('',(-2.00000000000015,-1.99999999999999,113.286031567906));
#663=CARTESIAN_POINT('',(0.000718447437975556,2.22044604925031E-15,11.1835775375366));
#664=CARTESIAN_POINT('',(0.,0.,0.));
#665=CARTESIAN_POINT('',(-2.00266964367195,-2.00266964367195,8.03226923942566));
#666=CARTESIAN_POINT('',(0.000718447437975556,-10.0916585922241,3.15130829811096));
#667=CARTESIAN_POINT('',(0.,0.,0.));
#668=CARTESIAN_POINT('',(-2.51613307703236,-2.51613307703236,10.0916585922241));
#669=CARTESIAN_POINT('',(10.0916585922241,2.22044604925031E-15,3.15130829811096));
#670=CARTESIAN_POINT('',(0.,0.,0.));
#671=CARTESIAN_POINT('',(-2.51613307703236,-2.51613307703236,10.0916585922241));
#672=CARTESIAN_POINT('',(0.000718447437975556,10.0916585922241,3.15130829811096));
#673=CARTESIAN_POINT('',(0.,0.,0.));
#674=CARTESIAN_POINT('',(-2.51613307703236,-2.51613307703236,10.0916585922241));
#675=CARTESIAN_POINT('',(0.000718447437975556,2.22044604925031E-15,-4.8809609413147));
#676=CARTESIAN_POINT('',(0.,0.,0.));
#677=CARTESIAN_POINT('',(-2.00266964367195,-2.00266964367195,8.03226923942566));
#678=CARTESIAN_POINT('',(-10.0916585922241,2.22044604925031E-15,3.15130829811096));
#679=CARTESIAN_POINT('',(0.,0.,0.));
#680=CARTESIAN_POINT('',(-2.51613307703236,-2.51613307703236,10.0916585922241));
#681=CARTESIAN_POINT('',(7.72704219818115,-7.72632372379303,10.877632021904));
#682=CARTESIAN_POINT('',(0.,0.,0.));
#683=CARTESIAN_POINT('',(-3.79033635608839,-3.79033635608839,15.2022088197551));
#684=CARTESIAN_POINT('',(9.13066978619939,-7.43033157170589,7.91926988105087));
#685=CARTESIAN_POINT('',(0.,0.,0.));
#686=CARTESIAN_POINT('',(-3.46165607988741,-3.46165607988741,13.8839442320448));
#687=MECHANICAL_DESIGN_GEOMETRIC_PRESENTATION_REPRESENTATION('',(#326),
#688);
#688=(
GEOMETRIC_REPRESENTATION_CONTEXT(3)
GLOBAL_UNCERTAINTY_ASSIGNED_CONTEXT((#689))
GLOBAL_UNIT_ASSIGNED_CONTEXT((#692,#691,#690))
REPRESENTATION_CONTEXT('Hull Service Hatch-Buoy',
'TOP_LEVEL_ASSEMBLY_PART')
);
#689=UNCERTAINTY_MEASURE_WITH_UNIT(LENGTH_MEASURE(0.000196850393700787),
#692,'DISTANCE_ACCURACY_VALUE','Maximum Tolerance applied to model');
#690=(
NAMED_UNIT(*)
SI_UNIT($,.STERADIAN.)
SOLID_ANGLE_UNIT()
);
#691=(
NAMED_UNIT(*)
PLANE_ANGLE_UNIT()
SI_UNIT($,.RADIAN.)
);
#692=(
CONVERSION_BASED_UNIT('INCH',#694)
LENGTH_UNIT()
NAMED_UNIT(#693)
);
#693=DIMENSIONAL_EXPONENTS(1.,0.,0.,0.,0.,0.,0.);
#694=LENGTH_MEASURE_WITH_UNIT(LENGTH_MEASURE(25.4),#695);
#695=(
LENGTH_UNIT()
NAMED_UNIT(*)
SI_UNIT(.MILLI.,.METRE.)
);
#696=PRODUCT_DEFINITION_SHAPE('','',#697);
#697=PRODUCT_DEFINITION('','',#699,#698);
#698=PRODUCT_DEFINITION_CONTEXT('',#705,'design');
#699=PRODUCT_DEFINITION_FORMATION_WITH_SPECIFIED_SOURCE('','',#701,
 .NOT_KNOWN.);
#700=PRODUCT_RELATED_PRODUCT_CATEGORY('','',(#701));
#701=PRODUCT('Hull Service Hatch-Buoy','Hull Service Hatch-Buoy',
'Hull Service Hatch-Buoy',(#703));
#702=PRODUCT_CATEGORY('','');
#703=PRODUCT_CONTEXT('',#705,'mechanical');
#704=APPLICATION_PROTOCOL_DEFINITION('international standard',
'ap242_managed_model_based_3d_engineering',2020,#705);
#705=APPLICATION_CONTEXT('managed model based 3d engineering');
ENDSEC;
END-ISO-10303-21;
